<svg width="44" height="44" viewBox="0 0 44 44" fill="none" xmlns="http://www.w3.org/2000/svg">
<rect width="44" height="44" rx="8" fill="#F6F6F6"/>
<path d="M22 16.4404V19.7704" stroke="#0F0F0F" stroke-width="1.5" stroke-miterlimit="10" stroke-linecap="round"/>
<path d="M22.02 12C18.34 12 15.36 14.98 15.36 18.66V20.76C15.36 21.44 15.08 22.46 14.73 23.04L13.46 25.16C12.68 26.47 13.22 27.93 14.66 28.41C19.44 30 24.61 30 29.39 28.41C30.74 27.96 31.32 26.38 30.59 25.16L29.32 23.04C28.97 22.46 28.69 21.43 28.69 20.76V18.66C28.68 15 25.68 12 22.02 12Z" stroke="#0F0F0F" stroke-width="1.5" stroke-miterlimit="10" stroke-linecap="round"/>
<path d="M25.33 28.8203C25.33 30.6503 23.83 32.1503 22 32.1503C21.09 32.1503 20.25 31.7703 19.65 31.1703C19.05 30.5703 18.67 29.7303 18.67 28.8203" stroke="#0F0F0F" stroke-width="1.5" stroke-miterlimit="10"/>
</svg>
