<svg width="20" height="20" viewBox="0 0 20 20" fill="none" xmlns="http://www.w3.org/2000/svg">
<path d="M9.99964 8.56671C9.14964 8.56671 8.29964 8.41671 7.4913 8.12504C7.1663 8.00838 6.99964 7.65004 7.1163 7.32504C7.2413 7.00004 7.59964 6.83338 7.92464 6.95004C9.2663 7.43338 10.7413 7.43338 12.083 6.95004C12.408 6.83338 12.7663 7.00004 12.883 7.32504C12.9996 7.65004 12.833 8.00838 12.508 8.12504C11.6996 8.41671 10.8496 8.56671 9.99964 8.56671Z" fill="#0F0F0F"/>
<path d="M15.8916 18.9584C15.4666 18.9584 14.9999 18.8334 14.5499 18.5751L10.4833 16.3167C10.2416 16.1834 9.7666 16.1834 9.52494 16.3167L5.45827 18.5751C4.63327 19.0334 3.7916 19.0834 3.14993 18.7001C2.50827 18.3251 2.1416 17.5667 2.1416 16.6251V4.88341C2.1416 2.76675 3.8666 1.04175 5.98327 1.04175H14.0249C16.1416 1.04175 17.8666 2.76675 17.8666 4.88341V16.6251C17.8666 17.5667 17.4999 18.3251 16.8583 18.7001C16.5666 18.8751 16.2333 18.9584 15.8916 18.9584ZM9.99994 14.9667C10.3916 14.9667 10.7749 15.0501 11.0833 15.2251L15.1499 17.4834C15.5749 17.7251 15.9666 17.7751 16.2166 17.6251C16.4666 17.4751 16.6083 17.1167 16.6083 16.6251V4.88341C16.6083 3.45841 15.4416 2.29175 14.0166 2.29175H5.98327C4.55827 2.29175 3.3916 3.45841 3.3916 4.88341V16.6251C3.3916 17.1167 3.53327 17.4834 3.78327 17.6251C4.03327 17.7667 4.4166 17.7251 4.84994 17.4834L8.9166 15.2251C9.22494 15.0501 9.60827 14.9667 9.99994 14.9667Z" fill="#0F0F0F"/>
<path d="M15.8916 18.9584C15.4666 18.9584 14.9999 18.8334 14.5499 18.5751L10.4833 16.3167C10.2416 16.1834 9.7666 16.1834 9.52494 16.3167L5.45827 18.5751C4.63327 19.0334 3.7916 19.0834 3.14993 18.7001C2.50827 18.3251 2.1416 17.5667 2.1416 16.6251V4.88341C2.1416 2.76675 3.8666 1.04175 5.98327 1.04175H14.0249C16.1416 1.04175 17.8666 2.76675 17.8666 4.88341V16.6251C17.8666 17.5667 17.4999 18.3251 16.8583 18.7001C16.5666 18.8751 16.2333 18.9584 15.8916 18.9584ZM9.99994 14.9667C10.3916 14.9667 10.7749 15.0501 11.0833 15.2251L15.1499 17.4834C15.5749 17.7251 15.9666 17.7751 16.2166 17.6251C16.4666 17.4751 16.6083 17.1167 16.6083 16.6251V4.88341C16.6083 3.45841 15.4416 2.29175 14.0166 2.29175H5.98327C4.55827 2.29175 3.3916 3.45841 3.3916 4.88341V16.6251C3.3916 17.1167 3.53327 17.4834 3.78327 17.6251C4.03327 17.7667 4.4166 17.7251 4.84994 17.4834L8.9166 15.2251C9.22494 15.0501 9.60827 14.9667 9.99994 14.9667Z" fill="#0F0F0F"/>
</svg>
