<svg width="44" height="44" viewBox="0 0 44 44" fill="none" xmlns="http://www.w3.org/2000/svg">
<rect width="44" height="44" rx="8" fill="#F2F8F2"/>
<path d="M28.0462 17.8637L17.8646 28.0453C17.3428 28.5672 16.4773 28.5672 15.9555 28.0453C15.4337 27.5235 15.4337 26.6581 15.9555 26.1363L26.1371 15.9547C26.6589 15.4329 27.5244 15.4329 28.0462 15.9547C28.568 16.4765 28.568 17.3419 28.0462 17.8637Z" fill="#288B22"/>
<path d="M28.0462 28.0453C27.5244 28.5671 26.6589 28.5671 26.1371 28.0453L15.9555 17.8637C15.4337 17.3419 15.4337 16.4765 15.9555 15.9547C16.4773 15.4328 17.3428 15.4328 17.8646 15.9547L28.0462 26.1363C28.568 26.6581 28.568 27.5235 28.0462 28.0453Z" fill="#288B22"/>
</svg>
