<svg width="21" height="20" viewBox="0 0 21 20" fill="none" xmlns="http://www.w3.org/2000/svg">
<path d="M14.5837 15.8417C14.3253 15.8417 14.067 15.7667 13.842 15.6167L13.042 15.0917C12.817 14.9417 12.7087 14.6584 12.7837 14.4001C12.842 14.2084 12.867 13.9834 12.867 13.7334V10.3417C12.867 8.98335 12.017 8.13338 10.6587 8.13338H5.00032C4.90032 8.13338 4.80866 8.14173 4.71699 8.15007C4.54199 8.1584 4.37533 8.10006 4.242 7.98339C4.10866 7.86672 4.04199 7.70007 4.04199 7.52507V5.21672C4.04199 2.76672 5.75866 1.05005 8.20866 1.05005H15.292C17.742 1.05005 19.4587 2.76672 19.4587 5.21672V9.4667C19.4587 10.675 19.0503 11.7417 18.3003 12.475C17.7003 13.0834 16.867 13.475 15.917 13.5917V14.5167C15.917 15.0167 15.642 15.4667 15.2087 15.7001C15.0087 15.7917 14.792 15.8417 14.5837 15.8417ZM14.0837 14.275L14.6253 14.5834C14.6753 14.5584 14.6753 14.5167 14.6753 14.5084V13C14.6753 12.6584 14.9587 12.375 15.3003 12.375C16.1753 12.375 16.917 12.1001 17.4253 11.5834C17.9503 11.0667 18.217 10.3334 18.217 9.45835V5.20837C18.217 3.43337 17.0753 2.29171 15.3003 2.29171H8.21699C6.44199 2.29171 5.30032 3.43337 5.30032 5.20837V6.87504H10.667C12.7003 6.87504 14.1253 8.30006 14.1253 10.3334V13.725C14.117 13.9167 14.1087 14.1 14.0837 14.275Z" fill="#0F0F0F"/>
<path d="M5.55866 18.9583C5.37533 18.9583 5.18366 18.9167 5.00866 18.825C4.617 18.6167 4.37532 18.2167 4.37532 17.7667V17.1333C3.64199 17.0167 2.992 16.7083 2.50866 16.225C1.87533 15.5916 1.54199 14.725 1.54199 13.725V10.3334C1.54199 8.45002 2.77532 7.06668 4.60865 6.89168C4.74199 6.88335 4.86699 6.875 5.00032 6.875H10.6587C12.692 6.875 14.117 8.30002 14.117 10.3334V13.725C14.117 14.0916 14.0753 14.4333 13.9837 14.7417C13.6087 16.2417 12.3337 17.1833 10.6587 17.1833H8.58366L6.22532 18.75C6.02532 18.8917 5.792 18.9583 5.55866 18.9583ZM5.00032 8.125C4.90032 8.125 4.80866 8.13335 4.71699 8.14168C3.51699 8.25002 2.79199 9.07502 2.79199 10.3334V13.725C2.79199 14.3916 3.00033 14.95 3.39199 15.3416C3.77533 15.725 4.33365 15.9333 5.00032 15.9333C5.34199 15.9333 5.62532 16.2167 5.62532 16.5583V17.65L8.04199 16.0417C8.14199 15.975 8.26699 15.9333 8.39199 15.9333H10.6587C11.7587 15.9333 12.5337 15.3833 12.7753 14.4167C12.8337 14.2083 12.867 13.975 12.867 13.725V10.3334C12.867 8.97502 12.017 8.125 10.6587 8.125H5.00032Z" fill="#0F0F0F"/>
</svg>
