<svg width="32" height="32" viewBox="0 0 32 32" fill="none" xmlns="http://www.w3.org/2000/svg">
<path d="M28 0H4C1.794 0 0 1.794 0 4V28C0 30.206 1.794 32 4 32H28C30.206 32 32 30.206 32 28V4C32 1.794 30.206 0 28 0Z" fill="#0F0F0F"/>
<path fill-rule="evenodd" clip-rule="evenodd" d="M20.3333 14.1538H17.2222V11.6923C17.2222 11.0129 17.7797 11.0769 18.4667 11.0769H19.7111V8H17.2222C16.2321 8 15.2825 8.38901 14.5824 9.08145C13.8822 9.77389 13.4889 10.713 13.4889 11.6923V14.1538H11V17.2308H13.4889V24H17.2222V17.2308H19.0889L20.3333 14.1538Z" fill="white"/>
</svg>
