<svg width="48" height="48" viewBox="0 0 48 48" fill="none" xmlns="http://www.w3.org/2000/svg">
<rect x="0.5" y="0.5" width="47" height="47" rx="23.5" stroke="#DEDEDE"/>
<path d="M24 18.4404V21.7704" stroke="#0F0F0F" stroke-width="1.5" stroke-miterlimit="10" stroke-linecap="round"/>
<path d="M24.0199 14C20.3399 14 17.3599 16.98 17.3599 20.66V22.76C17.3599 23.44 17.0799 24.46 16.7299 25.04L15.4599 27.16C14.6799 28.47 15.2199 29.93 16.6599 30.41C21.4399 32 26.6099 32 31.3899 30.41C32.7399 29.96 33.3199 28.38 32.5899 27.16L31.3199 25.04C30.9699 24.46 30.6899 23.43 30.6899 22.76V20.66C30.6799 17 27.6799 14 24.0199 14Z" stroke="#0F0F0F" stroke-width="1.5" stroke-miterlimit="10" stroke-linecap="round"/>
<path d="M27.3299 30.8203C27.3299 32.6503 25.8299 34.1503 23.9999 34.1503C23.0899 34.1503 22.2499 33.7703 21.6499 33.1703C21.0499 32.5703 20.6699 31.7303 20.6699 30.8203" stroke="#0F0F0F" stroke-width="1.5" stroke-miterlimit="10"/>
</svg>
