<svg width="44" height="44" viewBox="0 0 44 44" fill="none" xmlns="http://www.w3.org/2000/svg">
<path d="M16.4997 19.7083C13.713 19.7083 11.458 17.4533 11.458 14.6667C11.458 11.88 13.713 9.625 16.4997 9.625C19.2863 9.625 21.5413 11.88 21.5413 14.6667C21.5413 17.4533 19.2863 19.7083 16.4997 19.7083ZM16.4997 12.375C15.2347 12.375 14.208 13.4017 14.208 14.6667C14.208 15.9317 15.2347 16.9583 16.4997 16.9583C17.7647 16.9583 18.7913 15.9317 18.7913 14.6667C18.7913 13.4017 17.7647 12.375 16.4997 12.375Z" fill="#98989A"/>
<path d="M27.5003 41.7084H16.5003C6.54533 41.7084 2.29199 37.455 2.29199 27.5V16.5C2.29199 6.54502 6.54533 2.29169 16.5003 2.29169H23.8337C24.5853 2.29169 25.2087 2.91502 25.2087 3.66669C25.2087 4.41835 24.5853 5.04169 23.8337 5.04169H16.5003C8.04866 5.04169 5.04199 8.04835 5.04199 16.5V27.5C5.04199 35.9517 8.04866 38.9584 16.5003 38.9584H27.5003C35.952 38.9584 38.9587 35.9517 38.9587 27.5V18.3334C38.9587 17.5817 39.582 16.9584 40.3337 16.9584C41.0853 16.9584 41.7087 17.5817 41.7087 18.3334V27.5C41.7087 37.455 37.4553 41.7084 27.5003 41.7084Z" fill="#98989A"/>
<path d="M38.9583 10.5417H28.875C28.1233 10.5417 27.5 9.91835 27.5 9.16669C27.5 8.41502 28.1233 7.79169 28.875 7.79169H38.9583C39.71 7.79169 40.3333 8.41502 40.3333 9.16669C40.3333 9.91835 39.71 10.5417 38.9583 10.5417Z" fill="#98989A"/>
<path d="M33.917 15.5833C33.1653 15.5833 32.542 14.96 32.542 14.2083V4.125C32.542 3.37333 33.1653 2.75 33.917 2.75C34.6687 2.75 35.292 3.37333 35.292 4.125V14.2083C35.292 14.96 34.6687 15.5833 33.917 15.5833Z" fill="#98989A"/>
<path d="M4.89472 36.1167C4.45472 36.1167 4.01472 35.8967 3.75806 35.5117C3.33639 34.8883 3.50139 34.0267 4.12472 33.605L13.1631 27.5367C15.1431 26.2167 17.8747 26.3633 19.6714 27.885L20.2764 28.4167C21.1931 29.205 22.7514 29.205 23.6497 28.4167L31.2764 21.8717C33.2381 20.2033 36.2814 20.2033 38.2431 21.8717L41.2314 24.4383C41.7997 24.9333 41.8731 25.795 41.3781 26.3817C40.8831 26.95 40.0214 27.0233 39.4347 26.5283L36.4464 23.9617C35.5297 23.1733 33.9714 23.1733 33.0731 23.9617L25.4464 30.5067C23.5031 32.175 20.4414 32.175 18.4797 30.5067L17.8747 29.975C17.0314 29.26 15.6381 29.1867 14.7031 29.8283L5.68306 35.8967C5.42639 36.0433 5.15139 36.1167 4.89472 36.1167Z" fill="#98989A"/>
</svg>
