<svg width="38" height="38" viewBox="0 0 38 38" fill="none" xmlns="http://www.w3.org/2000/svg">
<path d="M14.8349 6.17119C11.5289 7.30359 8.7093 9.78119 7.1437 12.9048C6.5965 13.984 6.2013 15.1316 5.9657 16.3172C5.3653 19.266 5.7833 22.4048 7.1437 25.0952C8.0253 26.8508 9.2945 28.4088 10.8297 29.6248C12.2813 30.78 13.9685 31.6312 15.7621 32.11C18.0193 32.718 20.4285 32.7028 22.7085 32.186C24.7681 31.7148 26.7137 30.7268 28.2641 29.298C29.9057 27.7856 31.0761 25.802 31.6993 23.6664C32.3757 21.3332 32.4669 18.848 32.0413 16.4616C27.7853 16.4616 23.5293 16.4616 19.2657 16.4616C19.2657 18.2248 19.2657 19.9956 19.2657 21.7588C21.7281 21.7588 24.1981 21.7588 26.6605 21.7588C26.3717 23.4536 25.3685 24.9964 23.9397 25.954C23.0429 26.5544 22.0169 26.9496 20.9529 27.132C19.8813 27.3144 18.7793 27.3372 17.7153 27.1244C16.6285 26.9116 15.5949 26.4556 14.6905 25.8172C13.2465 24.8064 12.1445 23.3168 11.5821 21.6524C11.0045 19.9576 10.9969 18.0652 11.5821 16.3704C11.9849 15.1772 12.6613 14.0676 13.5505 13.1708C14.6449 12.046 16.0661 11.248 17.6013 10.9212C18.9161 10.64 20.2993 10.6932 21.5837 11.0808C22.6781 11.4152 23.6813 12.008 24.5097 12.7984C25.3457 11.97 26.1741 11.134 27.0101 10.3056C27.4433 9.85719 27.9069 9.43159 28.3325 8.96799C27.0709 7.79759 25.5813 6.85519 23.9625 6.26239C21.0593 5.17559 17.7685 5.15279 14.8349 6.17119Z" fill="white"/>
<path d="M14.835 6.17109C17.7686 5.15269 21.0594 5.17549 23.9778 6.25469C25.5966 6.84749 27.0786 7.78989 28.3478 8.96029C27.9222 9.41629 27.4662 9.84949 27.0254 10.2979C26.1894 11.1263 25.361 11.9623 24.525 12.7907C23.6966 12.0003 22.6934 11.3999 21.599 11.0731C20.3146 10.6855 18.9314 10.6323 17.6166 10.9135C16.0814 11.2403 14.6602 12.0459 13.5658 13.1631C12.6766 14.0599 12.0002 15.1695 11.5974 16.3627C10.1154 15.2151 8.63337 14.0599 7.15137 12.9123C8.70937 9.78109 11.529 7.30349 14.835 6.17109Z" fill="#E94435"/>
<path d="M5.9657 16.3167C6.2013 15.1311 6.6041 13.9835 7.1437 12.9043C8.6257 14.0519 10.1077 15.2071 11.5897 16.3547C11.0045 18.0495 11.0121 19.9419 11.5897 21.6367C10.1077 22.7843 8.6257 23.9395 7.1437 25.0871C5.7833 22.4119 5.3653 19.2655 5.9657 16.3167Z" fill="#F8BB15"/>
<path d="M19.2737 16.4541C23.5297 16.4541 27.7857 16.4541 32.0493 16.4541C32.4749 18.8405 32.3837 21.3257 31.7073 23.6589C31.0841 25.7945 29.9137 27.7857 28.2721 29.2905C26.8357 28.1733 25.3917 27.0561 23.9629 25.9389C25.3917 24.9889 26.3949 23.4385 26.6837 21.7437C24.2213 21.7437 21.7513 21.7437 19.2889 21.7437C19.2661 19.9881 19.2737 18.2249 19.2737 16.4541Z" fill="#547DBE"/>
<path d="M7.14355 25.0949C8.62555 23.9473 10.1076 22.7921 11.5896 21.6445C12.152 23.3165 13.254 24.7985 14.698 25.8093C15.6024 26.4477 16.636 26.8961 17.7228 27.1165C18.7868 27.3293 19.8964 27.3065 20.9604 27.1241C22.0244 26.9417 23.0504 26.5465 23.9472 25.9461C25.3836 27.0633 26.8276 28.1805 28.2564 29.2977C26.706 30.7341 24.7604 31.7145 22.7008 32.1857C20.4284 32.7025 18.0192 32.7177 15.7544 32.1097C13.9608 31.6309 12.2736 30.7797 10.822 29.6245C9.29435 28.4009 8.02515 26.8429 7.14355 25.0949Z" fill="#34A751"/>
</svg>
