<svg width="34" height="34" viewBox="0 0 34 34" fill="none" xmlns="http://www.w3.org/2000/svg">
<path d="M27 13.52V8.98C27 7.57 26.36 7 24.77 7H20.73C19.14 7 18.5 7.57 18.5 8.98V13.51C18.5 14.93 19.14 15.49 20.73 15.49H24.77C26.36 15.5 27 14.93 27 13.52Z" fill="#98989A"/>
<path d="M27 24.77V20.73C27 19.14 26.36 18.5 24.77 18.5H20.73C19.14 18.5 18.5 19.14 18.5 20.73V24.77C18.5 26.36 19.14 27 20.73 27H24.77C26.36 27 27 26.36 27 24.77Z" fill="#98989A"/>
<path d="M15.5 13.52V8.98C15.5 7.57 14.86 7 13.27 7H9.23C7.64 7 7 7.57 7 8.98V13.51C7 14.93 7.64 15.49 9.23 15.49H13.27C14.86 15.5 15.5 14.93 15.5 13.52Z" fill="#98989A"/>
<path d="M15.5 24.77V20.73C15.5 19.14 14.86 18.5 13.27 18.5H9.23C7.64 18.5 7 19.14 7 20.73V24.77C7 26.36 7.64 27 9.23 27H13.27C14.86 27 15.5 26.36 15.5 24.77Z" fill="#98989A"/>
</svg>
