<svg width="44" height="44" viewBox="0 0 44 44" fill="none" xmlns="http://www.w3.org/2000/svg">
<rect width="44" height="44" rx="8" fill="#F2F8F2"/>
<path d="M19.379 30.7733V27.7156C19.379 26.9351 20.0164 26.3023 20.8027 26.3023H23.6769C24.0545 26.3023 24.4166 26.4512 24.6836 26.7163C24.9505 26.9813 25.1005 27.3408 25.1005 27.7156V30.7733C25.0981 31.0978 25.2263 31.4099 25.4566 31.6402C25.6869 31.8705 26.0003 32 26.3272 32H28.2881C29.2039 32.0023 30.083 31.6428 30.7314 31.0008C31.3798 30.3588 31.7443 29.487 31.7443 28.5778V19.8669C31.7442 19.1325 31.4163 18.4358 30.8489 17.9647L24.1783 12.6759C23.0179 11.7486 21.3554 11.7785 20.2297 12.747L13.7113 17.9647C13.117 18.422 12.7618 19.1206 12.7443 19.8669V28.5689C12.7443 30.4639 14.2916 32 16.2004 32H18.1166C18.7955 32 19.3473 31.4562 19.3522 30.7822L19.379 30.7733Z" fill="#288B22"/>
</svg>
