<svg width="28" height="24" viewBox="0 0 28 24" fill="none" xmlns="http://www.w3.org/2000/svg">
<path d="M24 0H4C2.93949 0.00115803 1.92275 0.422957 1.17285 1.17285C0.422957 1.92275 0.00115803 2.93949 0 4V20C0.00115803 21.0605 0.422957 22.0773 1.17285 22.8271C1.92275 23.577 2.93949 23.9988 4 24H24C25.0605 23.9988 26.0773 23.577 26.8271 22.8271C27.577 22.0773 27.9988 21.0605 28 20V4C27.9988 2.93949 27.577 1.92275 26.8271 1.17285C26.0773 0.422957 25.0605 0.00115803 24 0ZM19 4C19.5933 4 20.1734 4.17595 20.6667 4.50559C21.1601 4.83524 21.5446 5.30377 21.7716 5.85195C21.9987 6.40013 22.0581 7.00333 21.9424 7.58527C21.8266 8.16721 21.5409 8.70176 21.1213 9.12132C20.7018 9.54088 20.1672 9.8266 19.5853 9.94236C19.0033 10.0581 18.4001 9.9987 17.8519 9.77164C17.3038 9.54458 16.8352 9.16006 16.5056 8.66671C16.1759 8.17336 16 7.59334 16 7C16.0008 6.2046 16.3172 5.44202 16.8796 4.87959C17.442 4.31716 18.2046 4.00083 19 4ZM4 22C3.46957 22 2.96086 21.7893 2.58579 21.4142C2.21071 21.0391 2 20.5304 2 20V15.7731L7.9275 10.5044C8.4994 9.99716 9.24317 9.72707 10.0073 9.74914C10.7714 9.7712 11.4983 10.0838 12.04 10.6231L16.0994 14.6737L8.77312 22H4ZM26 20C26 20.5304 25.7893 21.0391 25.4142 21.4142C25.0391 21.7893 24.5304 22 24 22H11.6019L19.1906 14.4112C19.7279 13.9543 20.4097 13.7026 21.115 13.7008C21.8203 13.6989 22.5035 13.9471 23.0431 14.4013L26 16.865V20Z" fill="#288B22"/>
</svg>
