<svg width="48" height="48" viewBox="0 0 48 48" fill="none" xmlns="http://www.w3.org/2000/svg">
<rect width="48" height="48" rx="6" fill="#F8F8F8"/>
<path d="M24 20.75C23.138 20.75 22.3114 21.0924 21.7019 21.7019C21.0924 22.3114 20.75 23.138 20.75 24C20.75 24.862 21.0924 25.6886 21.7019 26.2981C22.3114 26.9076 23.138 27.25 24 27.25C24.862 27.25 25.6886 26.9076 26.2981 26.2981C26.9076 25.6886 27.25 24.862 27.25 24C27.25 23.138 26.9076 22.3114 26.2981 21.7019C25.6886 21.0924 24.862 20.75 24 20.75Z" fill="#0F0F0F"/>
<path fill-rule="evenodd" clip-rule="evenodd" d="M18.7699 15.0819C22.246 14.6966 25.7539 14.6966 29.2299 15.0819C31.1289 15.2939 32.6599 16.7889 32.8829 18.6949C33.2952 22.2196 33.2952 25.7803 32.8829 29.3049C32.6599 31.2109 31.1289 32.7059 29.2309 32.9189C25.7546 33.3043 22.2463 33.3043 18.7699 32.9189C16.8709 32.7059 15.3399 31.2109 15.1169 29.3059C14.7047 25.781 14.7047 22.2199 15.1169 18.6949C15.3399 16.7889 16.8709 15.2939 18.7699 15.0819ZM28.9999 17.9999C28.7347 17.9999 28.4804 18.1053 28.2928 18.2928C28.1053 18.4804 27.9999 18.7347 27.9999 18.9999C27.9999 19.2652 28.1053 19.5195 28.2928 19.707C28.4804 19.8946 28.7347 19.9999 28.9999 19.9999C29.2652 19.9999 29.5195 19.8946 29.7071 19.707C29.8946 19.5195 29.9999 19.2652 29.9999 18.9999C29.9999 18.7347 29.8946 18.4804 29.7071 18.2928C29.5195 18.1053 29.2652 17.9999 28.9999 17.9999ZM19.2499 23.9999C19.2499 22.7402 19.7504 21.532 20.6412 20.6412C21.532 19.7504 22.7402 19.2499 23.9999 19.2499C25.2597 19.2499 26.4679 19.7504 27.3587 20.6412C28.2495 21.532 28.7499 22.7402 28.7499 23.9999C28.7499 25.2597 28.2495 26.4679 27.3587 27.3587C26.4679 28.2495 25.2597 28.7499 23.9999 28.7499C22.7402 28.7499 21.532 28.2495 20.6412 27.3587C19.7504 26.4679 19.2499 25.2597 19.2499 23.9999Z" fill="#0F0F0F"/>
</svg>
