<svg width="32" height="32" viewBox="0 0 32 32" fill="none" xmlns="http://www.w3.org/2000/svg">
<path d="M32 27.5556C32 28.7343 31.5317 29.8648 30.6983 30.6983C29.8648 31.5317 28.7343 32 27.5556 32H4.44444C3.2657 32 2.13524 31.5317 1.30175 30.6983C0.468253 29.8648 0 28.7343 0 27.5556V4.44444C0 3.2657 0.468253 2.13524 1.30175 1.30175C2.13524 0.468253 3.2657 0 4.44444 0H27.5556C28.7343 0 29.8648 0.468253 30.6983 1.30175C31.5317 2.13524 32 3.2657 32 4.44444V27.5556Z" fill="#0F0F0F"/>
<path d="M15.5313 13.9174C14.3844 13.9174 13.4485 14.8533 13.4485 16.0002C13.4485 17.147 14.3844 18.083 15.5313 18.083C16.6782 18.083 17.6141 17.147 17.6141 16.0002C17.6141 14.8533 16.6782 13.9174 15.5313 13.9174ZM21.7782 16.0002C21.7782 15.1377 21.786 14.283 21.7376 13.422C21.6891 12.422 21.461 11.5345 20.7298 10.8033C19.9969 10.0705 19.111 9.84392 18.111 9.79548C17.2485 9.74705 16.3938 9.75486 15.5329 9.75486C14.6704 9.75486 13.8157 9.74705 12.9548 9.79548C11.9548 9.84392 11.0673 10.072 10.336 10.8033C9.6032 11.5361 9.37664 12.422 9.3282 13.422C9.27976 14.2845 9.28757 15.1392 9.28757 16.0002C9.28757 16.8611 9.27976 17.7174 9.3282 18.5783C9.37664 19.5783 9.60476 20.4658 10.336 21.197C11.0688 21.9299 11.9548 22.1564 12.9548 22.2049C13.8173 22.2533 14.6719 22.2455 15.5329 22.2455C16.3954 22.2455 17.2501 22.2533 18.111 22.2049C19.111 22.1564 19.9985 21.9283 20.7298 21.197C21.4626 20.4642 21.6891 19.5783 21.7376 18.5783C21.7876 17.7174 21.7782 16.8627 21.7782 16.0002ZM15.5313 19.2049C13.7579 19.2049 12.3266 17.7736 12.3266 16.0002C12.3266 14.2267 13.7579 12.7955 15.5313 12.7955C17.3048 12.7955 18.736 14.2267 18.736 16.0002C18.736 17.7736 17.3048 19.2049 15.5313 19.2049ZM18.8673 13.4127C18.4532 13.4127 18.1188 13.0783 18.1188 12.6642C18.1188 12.2502 18.4532 11.9158 18.8673 11.9158C19.2813 11.9158 19.6157 12.2502 19.6157 12.6642C19.6158 12.7626 19.5965 12.8599 19.559 12.9508C19.5214 13.0417 19.4663 13.1242 19.3968 13.1937C19.3272 13.2633 19.2447 13.3184 19.1538 13.356C19.063 13.3935 18.9656 13.4128 18.8673 13.4127Z" fill="white"/>
</svg>
