<svg width="16" height="16" viewBox="0 0 16 16" fill="none" xmlns="http://www.w3.org/2000/svg">
<path d="M5.59338 12.3267V5.5534C5.59338 5.28673 5.67338 5.02673 5.82005 4.80673L7.64005 2.10006C7.92672 1.66673 8.64005 1.36006 9.24672 1.58673C9.90005 1.80673 10.3334 2.54006 10.1934 3.1934L9.84672 5.3734C9.82005 5.5734 9.87338 5.7534 9.98672 5.8934C10.1 6.02007 10.2667 6.10006 10.4467 6.10006H13.1867C13.7134 6.10006 14.1667 6.3134 14.4334 6.68673C14.6867 7.04673 14.7334 7.5134 14.5667 7.98673L12.9267 12.9801C12.72 13.8067 11.82 14.4801 10.9267 14.4801H8.32672C7.88005 14.4801 7.25338 14.3267 6.96672 14.0401L6.11338 13.3801C5.78672 13.1334 5.59338 12.7401 5.59338 12.3267Z" fill="#0F0F0F"/>
<path d="M3.47337 4.25342H2.78671C1.75337 4.25342 1.33337 4.65342 1.33337 5.64008V12.3468C1.33337 13.3334 1.75337 13.7334 2.78671 13.7334H3.47337C4.50671 13.7334 4.92671 13.3334 4.92671 12.3468V5.64008C4.92671 4.65342 4.50671 4.25342 3.47337 4.25342Z" fill="#0F0F0F"/>
</svg>
