<svg width="16" height="16" viewBox="0 0 16 16" fill="none" xmlns="http://www.w3.org/2000/svg">
<path d="M10.8534 14.7334H8.32003C7.9467 14.7334 7.13336 14.6201 6.70003 14.1867L4.68003 12.6267L5.29336 11.8334L7.36003 13.4334C7.5267 13.5934 7.9467 13.7267 8.32003 13.7267H10.8534C11.4534 13.7267 12.1 13.2467 12.2334 12.7067L13.8467 7.80674C13.9534 7.51341 13.9334 7.24674 13.7934 7.05341C13.6467 6.84674 13.38 6.72674 13.0534 6.72674H10.3867C10.04 6.72674 9.72003 6.58007 9.50003 6.32674C9.27336 6.06674 9.17336 5.72007 9.2267 5.36007L9.56003 3.22007C9.64003 2.84674 9.3867 2.42674 9.0267 2.30674C8.70003 2.18674 8.28003 2.36007 8.13336 2.57341L5.40003 6.64008L4.57336 6.08674L7.3067 2.02007C7.7267 1.39341 8.6467 1.09341 9.3667 1.36674C10.2 1.64007 10.7334 2.56007 10.5467 3.41341L10.22 5.51341C10.2134 5.56008 10.2134 5.62674 10.26 5.68008C10.2934 5.71341 10.34 5.73341 10.3934 5.73341H13.06C13.7134 5.73341 14.28 6.00674 14.6134 6.48007C14.94 6.94007 15.0067 7.54674 14.7934 8.13341L13.2 12.9867C12.9534 13.9534 11.9267 14.7334 10.8534 14.7334Z" fill="#292D32"/>
<path d="M3.58655 14H2.91988C1.68655 14 1.08655 13.42 1.08655 12.2333V5.70002C1.08655 4.51335 1.68655 3.93335 2.91988 3.93335H3.58655C4.81988 3.93335 5.41988 4.51335 5.41988 5.70002V12.2333C5.41988 13.42 4.81988 14 3.58655 14ZM2.91988 4.93335C2.19321 4.93335 2.08655 5.10668 2.08655 5.70002V12.2333C2.08655 12.8267 2.19321 13 2.91988 13H3.58655C4.31321 13 4.41988 12.8267 4.41988 12.2333V5.70002C4.41988 5.10668 4.31321 4.93335 3.58655 4.93335H2.91988Z" fill="#292D32"/>
</svg>
