<svg width="20" height="20" viewBox="0 0 20 20" fill="none" xmlns="http://www.w3.org/2000/svg">
<g clip-path="url(#clip0_609_8730)">
<path d="M9.96706 7.45166C8.489 7.45166 7.28613 8.65413 7.28613 10.1322C7.28613 11.6103 8.489 12.8127 9.96706 12.8127C11.4451 12.8127 12.6476 11.6103 12.6476 10.1322C12.6476 8.65413 11.4451 7.45166 9.96706 7.45166ZM9.96706 11.6214C9.14582 11.6214 8.47748 10.9534 8.47748 10.1322C8.47748 9.31095 9.14582 8.64301 9.96706 8.64301C10.7879 8.64301 11.4562 9.31095 11.4562 10.1322C11.4562 10.9534 10.7879 11.6214 9.96706 11.6214Z" fill="#0F0F0F"/>
<path d="M15.5025 7.06001C14.5006 7.06001 13.6853 7.87529 13.6853 8.87765V10.0769C13.6853 12.1094 12.0322 13.7626 10.0001 13.7626C7.96768 13.7626 6.31409 12.1094 6.31409 10.0769V8.87765C6.31409 7.87533 5.49881 7.06001 4.49649 7.06001C3.49457 7.06001 2.67969 7.87529 2.67969 8.87765V10.0547C2.67969 12.3111 3.72887 14.4472 5.50199 15.8303V19.4044C5.50199 19.7332 5.76845 20.0001 6.09766 20.0001H13.8331C14.1619 20.0001 14.4287 19.7332 14.4287 19.4044V15.8649C16.2448 14.4663 17.3197 12.2905 17.3197 9.98203V8.87765C17.3197 7.87533 16.5049 7.06001 15.5025 7.06001ZM13.2374 15.5639V18.8087H6.69333V15.5317C6.69333 15.3395 6.60001 15.1588 6.44355 15.0468C4.83245 13.8972 3.87103 12.0311 3.87103 10.0547V8.87765C3.87103 8.53216 4.1514 8.25136 4.49649 8.25136C4.84198 8.25136 5.12274 8.53212 5.12274 8.87765V10.0769C5.12274 12.7662 7.31045 14.9539 10.0001 14.9539C12.689 14.9539 14.8767 12.7662 14.8767 10.0769V8.87765C14.8767 8.53216 15.1574 8.25136 15.5029 8.25136C15.848 8.25136 16.1284 8.53212 16.1284 8.87765V9.98203C16.1284 12.0085 15.142 13.9131 13.49 15.077C13.4119 15.132 13.3482 15.2049 13.3043 15.2896C13.2603 15.3744 13.2374 15.4684 13.2374 15.5639ZM7.65276 4.4728L7.56103 6.23917C7.53887 6.67402 7.97514 6.98317 8.37591 6.82333L9.99971 6.17802L11.6235 6.82333C12.025 6.98257 12.4606 6.67437 12.4384 6.23917L12.3467 4.4728L13.4427 3.14128C13.7156 2.81096 13.5591 2.3059 13.1441 2.18939L11.4504 1.71325L10.4969 0.267353C10.2622 -0.0892566 9.73698 -0.0889786 9.50253 0.267353L8.54905 1.71325L6.85536 2.18939C6.43969 2.3061 6.28434 2.81155 6.55672 3.14128L7.65276 4.4728ZM9.42151 2.55478L9.99971 1.67755L10.5779 2.55478C10.6568 2.67443 10.7762 2.76158 10.9143 2.80019L11.9428 3.08929L11.28 3.89425C11.1855 4.00909 11.1373 4.15513 11.145 4.30367L11.2006 5.3735L10.2197 4.98353C10.0784 4.9274 9.92101 4.9274 9.77971 4.98353L8.79884 5.3735L8.85443 4.30367C8.86198 4.15475 8.81393 4.00901 8.71941 3.89425L8.05663 3.08929L9.08516 2.80019C9.22335 2.76167 9.34249 2.67427 9.42151 2.55478ZM5.41998 5.77554C5.65261 6.00817 6.02975 6.00817 6.26238 5.77554C6.49501 5.54295 6.49501 5.16577 6.26238 4.93314L4.02229 2.69305C3.7897 2.46046 3.41252 2.46046 3.17989 2.69305C2.94726 2.92564 2.94726 3.30282 3.17989 3.53545L5.41998 5.77554ZM14.7195 5.77554L16.9596 3.53545C17.1922 3.30286 17.1922 2.92568 16.9596 2.69305C16.727 2.46046 16.3498 2.46046 16.1172 2.69305L13.8771 4.93314C13.6444 5.16573 13.6444 5.54291 13.8771 5.77554C14.1097 6.00817 14.4868 6.00813 14.7195 5.77554Z" fill="#0F0F0F"/>
</g>
<defs>
<clipPath id="clip0_609_8730">
<rect width="20" height="20" fill="white"/>
</clipPath>
</defs>
</svg>
