<svg width="44" height="44" viewBox="0 0 44 44" fill="none" xmlns="http://www.w3.org/2000/svg">
<rect width="44" height="44" rx="8" fill="#F2F8F2"/>
<path fill-rule="evenodd" clip-rule="evenodd" d="M13.6001 15.9998C13.6001 15.6815 13.7265 15.3763 13.9516 15.1513C14.1766 14.9262 14.4818 14.7998 14.8001 14.7998H29.2001C29.5184 14.7998 29.8236 14.9262 30.0486 15.1513C30.2737 15.3763 30.4001 15.6815 30.4001 15.9998C30.4001 16.3181 30.2737 16.6233 30.0486 16.8483C29.8236 17.0734 29.5184 17.1998 29.2001 17.1998H14.8001C14.4818 17.1998 14.1766 17.0734 13.9516 16.8483C13.7265 16.6233 13.6001 16.3181 13.6001 15.9998ZM13.6001 21.9998C13.6001 21.6815 13.7265 21.3763 13.9516 21.1513C14.1766 20.9262 14.4818 20.7998 14.8001 20.7998H29.2001C29.5184 20.7998 29.8236 20.9262 30.0486 21.1513C30.2737 21.3763 30.4001 21.6815 30.4001 21.9998C30.4001 22.3181 30.2737 22.6233 30.0486 22.8483C29.8236 23.0734 29.5184 23.1998 29.2001 23.1998H14.8001C14.4818 23.1998 14.1766 23.0734 13.9516 22.8483C13.7265 22.6233 13.6001 22.3181 13.6001 21.9998ZM20.8001 27.9998C20.8001 27.6815 20.9265 27.3763 21.1516 27.1513C21.3766 26.9262 21.6818 26.7998 22.0001 26.7998H29.2001C29.5184 26.7998 29.8236 26.9262 30.0486 27.1513C30.2737 27.3763 30.4001 27.6815 30.4001 27.9998C30.4001 28.3181 30.2737 28.6233 30.0486 28.8483C29.8236 29.0734 29.5184 29.1998 29.2001 29.1998H22.0001C21.6818 29.1998 21.3766 29.0734 21.1516 28.8483C20.9265 28.6233 20.8001 28.3181 20.8001 27.9998Z" fill="#288B22"/>
</svg>
