<svg width="20" height="20" viewBox="0 0 20 20" fill="none" xmlns="http://www.w3.org/2000/svg">
<path d="M18.3333 10.7166C18.3333 12.6249 17.35 14.3166 15.8333 15.3833L14.7167 17.8416C14.4583 18.3999 13.7083 18.5083 13.3167 18.0333L12.0833 16.5499C10.5333 16.5499 9.10833 16.0249 8.02499 15.1499L8.52499 14.5583C12.375 14.2666 15.4167 11.2166 15.4167 7.49993C15.4167 6.8666 15.325 6.2416 15.1583 5.6416C17.05 6.6416 18.3333 8.5416 18.3333 10.7166Z" fill="#0F0F0F"/>
<path d="M13.5833 5.05866C12.6083 3.05866 10.4333 1.66699 7.91666 1.66699C4.46666 1.66699 1.66666 4.27533 1.66666 7.50033C1.66666 9.40866 2.64999 11.1003 4.16666 12.167L5.28332 14.6253C5.54166 15.1837 6.29166 15.2837 6.68332 14.817L7.14166 14.267L7.91666 13.3337C11.3667 13.3337 14.1667 10.7253 14.1667 7.50033C14.1667 6.62533 13.9583 5.80033 13.5833 5.05866ZM9.99999 8.12533H5.83332C5.49166 8.12533 5.20832 7.84199 5.20832 7.50033C5.20832 7.15866 5.49166 6.87533 5.83332 6.87533H9.99999C10.3417 6.87533 10.625 7.15866 10.625 7.50033C10.625 7.84199 10.3417 8.12533 9.99999 8.12533Z" fill="#0F0F0F"/>
</svg>
