<svg width="20" height="20" viewBox="0 0 20 20" fill="none" xmlns="http://www.w3.org/2000/svg">
<path d="M12.2199 19.6298C11.0399 19.6298 9.36988 18.7998 8.04988 14.8298L7.32988 12.6698L5.16988 11.9498C1.20988 10.6298 0.379883 8.95983 0.379883 7.77983C0.379883 6.60983 1.20988 4.92983 5.16988 3.59983L13.6599 0.769827C15.7799 0.059827 17.5499 0.269827 18.6399 1.34983C19.7299 2.42983 19.9399 4.20983 19.2299 6.32983L16.3999 14.8198C15.0699 18.7998 13.3999 19.6298 12.2199 19.6298ZM5.63988 5.02983C2.85988 5.95983 1.86988 7.05983 1.86988 7.77983C1.86988 8.49983 2.85988 9.59983 5.63988 10.5198L8.15988 11.3598C8.37988 11.4298 8.55988 11.6098 8.62988 11.8298L9.46988 14.3498C10.3899 17.1298 11.4999 18.1198 12.2199 18.1198C12.9399 18.1198 14.0399 17.1298 14.9699 14.3498L17.7999 5.85983C18.3099 4.31983 18.2199 3.05983 17.5699 2.40983C16.9199 1.75983 15.6599 1.67983 14.1299 2.18983L5.63988 5.02983Z" fill="#828282"/>
</svg>
