<svg width="28" height="28" viewBox="0 0 28 28" fill="none" xmlns="http://www.w3.org/2000/svg">
<path d="M19.833 24.7913H8.16634C3.90801 24.7913 1.45801 22.3413 1.45801 18.083V9.91634C1.45801 5.65801 3.90801 3.20801 8.16634 3.20801H19.833C24.0913 3.20801 26.5413 5.65801 26.5413 9.91634V18.083C26.5413 22.3413 24.0913 24.7913 19.833 24.7913ZM8.16634 4.95801C4.82967 4.95801 3.20801 6.57967 3.20801 9.91634V18.083C3.20801 21.4197 4.82967 23.0413 8.16634 23.0413H19.833C23.1697 23.0413 24.7913 21.4197 24.7913 18.083V9.91634C24.7913 6.57967 23.1697 4.95801 19.833 4.95801H8.16634Z" fill="#0F0F0F"/>
<path d="M13.9996 15.015C13.0196 15.015 12.0279 14.7116 11.2696 14.0933L7.61791 11.1766C7.24458 10.8733 7.17458 10.325 7.47792 9.95163C7.78125 9.5783 8.32959 9.5083 8.70292 9.81164L12.3546 12.7283C13.2412 13.44 14.7462 13.44 15.6329 12.7283L19.2846 9.81164C19.6579 9.5083 20.2179 9.56663 20.5096 9.95163C20.8129 10.325 20.7546 10.885 20.3696 11.1766L16.7179 14.0933C15.9712 14.7116 14.9796 15.015 13.9996 15.015Z" fill="#0F0F0F"/>
</svg>
