<svg width="32" height="32" viewBox="0 0 32 32" fill="none" xmlns="http://www.w3.org/2000/svg">
<path d="M24.8175 0H7.18254C3.21573 0 0 3.21573 0 7.18254V24.8175C0 28.7843 3.21573 32 7.18254 32H24.8175C28.7843 32 32 28.7843 32 24.8175V7.18254C32 3.21573 28.7843 0 24.8175 0Z" fill="#0F0F0F"/>
<path d="M19.5355 11.88C19.0798 11.3597 18.8287 10.6916 18.8289 10H16.7689V18.2667C16.753 18.714 16.5641 19.1377 16.242 19.4486C15.92 19.7595 15.4898 19.9333 15.0422 19.9333C14.0955 19.9333 13.3089 19.16 13.3089 18.2C13.3089 17.0533 14.4155 16.1933 15.5555 16.5467V14.44C13.2555 14.1333 11.2422 15.92 11.2422 18.2C11.2422 20.42 13.0822 22 15.0355 22C17.1289 22 18.8289 20.3 18.8289 18.2V14.0067C19.6642 14.6066 20.6671 14.9284 21.6955 14.9267V12.8667C21.6955 12.8667 20.4422 12.9267 19.5355 11.88Z" fill="white"/>
</svg>
