<svg width="48" height="48" viewBox="0 0 48 48" fill="none" xmlns="http://www.w3.org/2000/svg">
<rect width="48" height="48" rx="6" fill="#F8F8F8"/>
<path d="M28.8201 32.768L15.7531 15.968C15.6842 15.8793 15.6416 15.7731 15.6301 15.6614C15.6186 15.5497 15.6387 15.437 15.6881 15.3361C15.7375 15.2353 15.8142 15.1503 15.9094 15.0909C16.0047 15.0315 16.1148 15 16.2271 15H18.7071C18.7984 15.0001 18.8884 15.0211 18.9704 15.0613C19.0524 15.1015 19.1241 15.1599 19.1801 15.232L32.2471 32.032C32.3159 32.1207 32.3585 32.2269 32.37 32.3386C32.3815 32.4503 32.3614 32.563 32.312 32.6639C32.2626 32.7647 32.186 32.8497 32.0907 32.9091C31.9954 32.9685 31.8854 33 31.7731 33H29.2931C29.2018 32.9999 29.1117 32.9789 29.0297 32.9387C28.9478 32.8985 28.8761 32.8401 28.8201 32.768Z" stroke="#0F0F0F" stroke-width="1.5"/>
<path d="M32 15L16 33" stroke="#0F0F0F" stroke-width="1.5" stroke-linecap="round"/>
</svg>
