<svg width="20" height="20" viewBox="0 0 20 20" fill="none" xmlns="http://www.w3.org/2000/svg">
<g clip-path="url(#clip0_844_20567)">
<path d="M3.24039 4.07713L5.18419 6.02133C5.29179 6.12868 5.43759 6.18897 5.58959 6.18897C5.74159 6.18897 5.88738 6.12868 5.99499 6.02133C6.1024 5.91372 6.16273 5.76788 6.16273 5.61583C6.16273 5.46378 6.1024 5.31795 5.99499 5.21033L4.05919 3.27493L4.05799 3.27333C4.05759 3.27273 4.05699 3.27253 4.05639 3.27213L4.05119 3.26693L4.05059 3.26753C3.94264 3.16298 3.79794 3.10502 3.64766 3.10614C3.49738 3.10726 3.35356 3.16738 3.24719 3.27353C3.14101 3.37981 3.08087 3.52358 3.07975 3.6738C3.07863 3.82403 3.13661 3.96867 3.24119 4.07653L3.24039 4.07713ZM6.57979 3.30913L7.29139 5.96453C7.31086 6.03724 7.34446 6.1054 7.39029 6.16512C7.43611 6.22484 7.49325 6.27494 7.55844 6.31257C7.62363 6.3502 7.6956 6.37462 7.77023 6.38442C7.84486 6.39423 7.92069 6.38924 7.99339 6.36973C8.14015 6.33026 8.26526 6.23418 8.34127 6.10257C8.41727 5.97096 8.43796 5.81457 8.39879 5.66773L7.68979 3.02293L7.68959 3.02153L7.68899 3.02013L7.68679 3.01213L7.68599 3.01233C7.6448 2.86784 7.54849 2.74531 7.41781 2.67116C7.28713 2.59701 7.13255 2.57718 6.98739 2.61593C6.84226 2.65491 6.71826 2.74936 6.64212 2.87892C6.56599 3.00848 6.54381 3.16277 6.58039 3.30853L6.57979 3.30913ZM3.21099 7.88453L3.21079 7.88553L3.21999 7.88793H3.22039L5.86619 8.59673C5.93943 8.61803 6.0162 8.6245 6.09198 8.61576C6.16776 8.60701 6.24103 8.58323 6.3075 8.5458C6.37397 8.50838 6.4323 8.45806 6.47907 8.3978C6.52585 8.33754 6.56012 8.26855 6.57989 8.19487C6.59965 8.12119 6.60452 8.04431 6.59419 7.96873C6.58386 7.89315 6.55855 7.82039 6.51974 7.75472C6.48093 7.68905 6.42941 7.63178 6.36818 7.58628C6.30695 7.54078 6.23726 7.50795 6.16319 7.48973L3.52019 6.78153C3.51919 6.78113 3.51819 6.78053 3.51699 6.78033L3.51359 6.77973L3.50759 6.77813L3.50739 6.77873C3.36163 6.74221 3.20737 6.76441 3.07782 6.84053C2.94827 6.91666 2.85381 7.04063 2.81479 7.18573C2.77607 7.33089 2.7959 7.48545 2.87 7.61614C2.9441 7.74684 3.06654 7.84321 3.21099 7.88453ZM16.7598 15.9225L14.8158 13.9785C14.7625 13.9253 14.6993 13.8831 14.6298 13.8543C14.5602 13.8255 14.4856 13.8107 14.4103 13.8107C14.3351 13.8107 14.2605 13.8256 14.191 13.8544C14.1214 13.8832 14.0582 13.9255 14.005 13.9787C13.9518 14.032 13.9095 14.0952 13.8808 14.1648C13.852 14.2343 13.8371 14.3089 13.8372 14.3842C13.8372 14.4595 13.852 14.534 13.8809 14.6036C13.9097 14.6731 13.9519 14.7363 14.0052 14.7895L15.941 16.7249L15.9422 16.7265L15.9438 16.7277L15.949 16.7329L15.9496 16.7323C16.0575 16.8369 16.2022 16.8948 16.3525 16.8937C16.5028 16.8926 16.6466 16.8325 16.753 16.7263C16.8591 16.62 16.9192 16.4762 16.9204 16.326C16.9215 16.1757 16.8635 16.031 16.759 15.9231L16.7598 15.9225ZM13.4204 16.6907L12.7086 14.0353C12.6891 13.9626 12.6555 13.8945 12.6097 13.8347C12.5639 13.775 12.5067 13.7249 12.4415 13.6873C12.3763 13.6497 12.3044 13.6252 12.2297 13.6154C12.1551 13.6056 12.0793 13.6106 12.0066 13.6301C11.9339 13.6496 11.8657 13.6832 11.806 13.729C11.7463 13.7748 11.6962 13.8319 11.6585 13.897C11.6209 13.9622 11.5964 14.0342 11.5866 14.1088C11.5768 14.1834 11.5817 14.2592 11.6012 14.3319L12.3104 16.9781V16.9785L12.3128 16.9875L12.3138 16.9873C12.3549 17.1319 12.4512 17.2544 12.5819 17.3286C12.7126 17.4028 12.8672 17.4227 13.0124 17.3839C13.1575 17.3449 13.2814 17.2504 13.3575 17.1208C13.4335 16.9913 13.4557 16.8371 13.4192 16.6913L13.4204 16.6907ZM16.7888 12.1153L16.789 12.1145L16.7808 12.1123L16.7798 12.1119L16.7788 12.1117L14.1336 11.4029C13.8276 11.3209 13.5136 11.5027 13.4314 11.8081C13.3921 11.955 13.4127 12.1115 13.4888 12.2431C13.5648 12.3748 13.6899 12.4709 13.8368 12.5103L16.4816 13.2187C16.4819 13.219 16.4824 13.2191 16.4828 13.2191L16.4842 13.2193L16.4922 13.2215L16.4924 13.2207C16.6369 13.2539 16.7886 13.2298 16.9157 13.1533C17.0428 13.0769 17.1352 12.9542 17.1736 12.811C17.212 12.6677 17.1934 12.5152 17.1216 12.3855C17.0498 12.2557 16.9305 12.1589 16.7888 12.1153ZM9.64259 10.3511C8.13219 8.84073 5.71299 8.79313 4.14539 10.2085L4.14159 10.2047L2.12219 12.2241C0.562787 13.7835 0.562787 16.3121 2.12219 17.8715C3.68159 19.4311 6.20999 19.4311 7.76959 17.8715L9.78919 15.8519L9.78539 15.8481C11.2004 14.2807 11.153 11.8615 9.64259 10.3511ZM8.33199 14.5115L8.20819 14.6353L8.20799 14.6355H8.20779L6.40679 16.4365L6.40659 16.4367C5.61959 17.2237 4.34379 17.2237 3.55699 16.4367C2.77019 15.6497 2.76999 14.3739 3.55699 13.5871L3.55719 13.5869L5.35819 11.7857L5.35839 11.7855L5.35859 11.7853L5.48239 11.6615L5.48819 11.6671C6.27999 11.0013 7.46299 11.0403 8.20819 11.7853C8.95339 12.5305 8.99239 13.7137 8.32639 14.5053L8.33199 14.5115ZM17.878 2.12813C16.3676 0.61773 13.9484 0.57013 12.3808 1.98553L12.377 1.98173L10.3576 4.00113C8.79819 5.56053 8.79819 8.08913 10.3576 9.64853C11.917 11.2081 14.4454 11.2081 16.005 9.64853L18.0246 7.62893L18.0208 7.62513C19.4358 6.05773 19.3884 3.63853 17.878 2.12813ZM16.5674 6.28853L16.4436 6.41233L16.4434 6.41253H16.4432L14.6422 8.21353L14.642 8.21373C13.855 9.00073 12.5792 9.00073 11.7924 8.21373C11.0054 7.42673 11.0054 6.15093 11.7924 5.36413L11.7926 5.36393L13.5936 3.56273L13.5938 3.56253L13.594 3.56233L13.7178 3.43853L13.7236 3.44413C14.5154 2.77833 15.6984 2.81733 16.4436 3.56233C17.1888 4.30733 17.2278 5.49073 16.5618 6.28233L16.5674 6.28853Z" fill="white"/>
</g>
<defs>
<clipPath id="clip0_844_20567">
<rect width="20" height="20" fill="white"/>
</clipPath>
</defs>
</svg>
