<svg width="21" height="20" viewBox="0 0 21 20" fill="none" xmlns="http://www.w3.org/2000/svg">
<path d="M14.69 0H6.31C2.67 0 0.5 2.17 0.5 5.81V14.18C0.5 17.83 2.67 20 6.31 20H14.68C18.32 20 20.49 17.83 20.49 14.19V5.81C20.5 2.17 18.33 0 14.69 0ZM15.38 9.53C15.38 9.92 15.07 10.23 14.68 10.23C14.29 10.23 13.98 9.92 13.98 9.53V9.35L11.26 12.07C11.11 12.22 10.91 12.29 10.7 12.27C10.49 12.25 10.3 12.14 10.19 11.96L9.17 10.44L6.79 12.82C6.65 12.96 6.48 13.02 6.3 13.02C6.12 13.02 5.94 12.95 5.81 12.82C5.54 12.55 5.54 12.11 5.81 11.83L8.79 8.85C8.94 8.7 9.14 8.63 9.35 8.65C9.56 8.67 9.75 8.78 9.86 8.96L10.88 10.48L12.99 8.37H12.81C12.42 8.37 12.11 8.06 12.11 7.67C12.11 7.28 12.42 6.97 12.81 6.97H14.67C14.76 6.97 14.85 6.99 14.94 7.02C15.11 7.09 15.25 7.23 15.32 7.4C15.36 7.49 15.37 7.58 15.37 7.67V9.53H15.38Z" fill="#98989A"/>
</svg>
