<svg width="24" height="24" viewBox="0 0 24 24" fill="none" xmlns="http://www.w3.org/2000/svg">
<path d="M11.867 14.689C13.3587 14.689 14.5679 13.4798 14.5679 11.9881C14.5679 10.4964 13.3587 9.28711 11.867 9.28711C10.3753 9.28711 9.16602 10.4964 9.16602 11.9881C9.16602 13.4798 10.3753 14.689 11.867 14.689Z" fill="#288B22"/>
<path d="M19.0386 8.77996H19.0379C18.1645 8.77996 17.4557 9.48877 17.4557 10.3628V11.9168C17.4557 14.9789 14.9725 17.4628 11.9097 17.4628C8.84669 17.4628 6.36307 14.9788 6.36307 11.9168V10.3628C6.36307 9.48809 5.65352 8.77996 4.78024 8.77996C3.90686 8.77996 3.19805 9.48877 3.19805 10.3628V11.8879C3.19805 14.7282 4.55738 17.2508 6.66064 18.8409C6.72078 18.8864 6.76956 18.9452 6.80314 19.0127C6.83672 19.0802 6.8542 19.1545 6.85419 19.2299V23.5113C6.85419 23.7812 7.07295 24 7.34282 24H16.3866C16.6565 24 16.8753 23.7812 16.8753 23.5113V19.2734C16.8752 19.1976 16.8929 19.1228 16.9269 19.055C16.9609 18.9872 17.0102 18.9282 17.071 18.8828C19.2268 17.2731 20.6208 14.6848 20.6208 11.7938V10.3628C20.6207 9.48877 19.912 8.77996 19.0386 8.77996ZM9.34108 4.5615C9.42493 4.66338 9.46765 4.79293 9.46085 4.9247L9.36913 6.69512C9.3492 7.07972 9.73414 7.35575 10.092 7.2135L11.7142 6.56871C11.8396 6.51886 11.9792 6.51886 12.1046 6.56871L13.7269 7.2135C14.0847 7.35575 14.4696 7.07972 14.4497 6.69512L14.358 4.9247C14.3511 4.79293 14.3938 4.66336 14.4777 4.5615L15.5738 3.23018C15.8163 2.93558 15.6762 2.48887 15.3088 2.38562L13.6059 1.90716C13.4835 1.87277 13.3776 1.79541 13.3077 1.68927L12.3505 0.237549C12.1417 -0.0791828 11.677 -0.0791828 11.4682 0.237549L10.5111 1.68932C10.4411 1.79546 10.3352 1.87281 10.2129 1.9072L8.50997 2.38567C8.14257 2.48887 8.00243 2.93558 8.24499 3.23022L9.34108 4.5615ZM7.04041 6.31682C7.32665 6.03062 7.32665 5.56652 7.04041 5.28028L4.13842 2.37829C3.85223 2.0921 3.38813 2.0921 3.10189 2.37829C2.81565 2.66449 2.81565 3.12859 3.10189 3.41483L6.00387 6.31682C6.29011 6.60306 6.75417 6.60301 7.04041 6.31682ZM20.8982 2.37829C20.612 2.0921 20.1479 2.0921 19.8617 2.37829L16.9597 5.28028C16.6735 5.56647 16.6735 6.03058 16.9597 6.31682C17.2459 6.60306 17.71 6.60306 17.9962 6.31682L20.8982 3.41483C21.1845 3.12864 21.1845 2.66454 20.8982 2.37829Z" fill="#288B22"/>
</svg>
