<svg width="32" height="32" viewBox="0 0 32 32" fill="none" xmlns="http://www.w3.org/2000/svg">
<path d="M32 27.5556C32 28.7343 31.5317 29.8648 30.6983 30.6983C29.8648 31.5317 28.7343 32 27.5556 32H4.44444C3.2657 32 2.13524 31.5317 1.30175 30.6983C0.468253 29.8648 0 28.7343 0 27.5556V4.44444C0 3.2657 0.468253 2.13524 1.30175 1.30175C2.13524 0.468253 3.2657 0 4.44444 0H27.5556C28.7343 0 29.8648 0.468253 30.6983 1.30175C31.5317 2.13524 32 3.2657 32 4.44444V27.5556Z" fill="#0F0F0F"/>
<path d="M16.1623 10.667C16.5183 10.669 17.409 10.6777 18.3557 10.7157L18.6917 10.7303C19.6443 10.775 20.5963 10.8523 21.069 10.9837C21.699 11.161 22.1937 11.677 22.361 12.3317C22.6277 13.3717 22.661 15.3997 22.665 15.891L22.6657 15.9923V16.1083C22.661 16.5997 22.6277 18.6283 22.361 19.6677C22.1917 20.3243 21.6963 20.841 21.069 21.0157C20.5963 21.147 19.6443 21.2243 18.6917 21.269L18.3557 21.2843C17.409 21.3217 16.5183 21.331 16.1623 21.3323L16.0057 21.333H15.8357C15.0823 21.3283 11.9317 21.2943 10.929 21.0157C10.2997 20.8383 9.80434 20.3223 9.63701 19.6677C9.37034 18.6277 9.33701 16.5997 9.33301 16.1083V15.891C9.33701 15.3997 9.37034 13.371 9.63701 12.3317C9.80634 11.675 10.3017 11.1583 10.9297 10.9843C11.9317 10.705 15.083 10.671 15.8363 10.667H16.1623ZM14.6657 13.667V18.3337L18.6657 16.0003L14.6657 13.667Z" fill="white"/>
</svg>
