<svg width="25" height="24" viewBox="0 0 25 24" fill="none" xmlns="http://www.w3.org/2000/svg">
<path d="M16.69 2H8.31C4.67 2 2.5 4.17 2.5 7.81V16.18C2.5 19.83 4.67 22 8.31 22H16.68C20.32 22 22.49 19.83 22.49 16.19V7.81C22.5 4.17 20.33 2 16.69 2ZM17.38 11.53C17.38 11.92 17.07 12.23 16.68 12.23C16.29 12.23 15.98 11.92 15.98 11.53V11.35L13.26 14.07C13.11 14.22 12.91 14.29 12.7 14.27C12.49 14.25 12.3 14.14 12.19 13.96L11.17 12.44L8.79 14.82C8.65 14.96 8.48 15.02 8.3 15.02C8.12 15.02 7.94 14.95 7.81 14.82C7.54 14.55 7.54 14.11 7.81 13.83L10.79 10.85C10.94 10.7 11.14 10.63 11.35 10.65C11.56 10.67 11.75 10.78 11.86 10.96L12.88 12.48L14.99 10.37H14.81C14.42 10.37 14.11 10.06 14.11 9.67C14.11 9.28 14.42 8.97 14.81 8.97H16.67C16.76 8.97 16.85 8.99 16.94 9.02C17.11 9.09 17.25 9.23 17.32 9.4C17.36 9.49 17.37 9.58 17.37 9.67V11.53H17.38Z" fill="#98989A"/>
</svg>
