<svg width="22" height="22" viewBox="0 0 22 22" fill="none" xmlns="http://www.w3.org/2000/svg">
<g clip-path="url(#clip0_408_1786)">
<path d="M2.75 17.875V5.5C2.75 5.31766 2.82243 5.1428 2.95136 5.01386C3.0803 4.88493 3.25516 4.8125 3.4375 4.8125H8.02055C8.1693 4.8125 8.31404 4.86075 8.43305 4.95L10.817 6.7375C10.936 6.82675 11.0807 6.875 11.2295 6.875H17.1875C17.3698 6.875 17.5447 6.94743 17.6736 7.07636C17.8026 7.2053 17.875 7.38016 17.875 7.5625V9.625" stroke="#2C2C2C" stroke-width="1.03125" stroke-linecap="round" stroke-linejoin="round"/>
<path d="M2.75 17.875L5.34359 10.0951C5.38923 9.95818 5.47678 9.83912 5.59385 9.75475C5.71091 9.67038 5.85156 9.62499 5.99586 9.625H19.9375C20.0464 9.62499 20.1538 9.65087 20.2508 9.70051C20.3478 9.75015 20.4316 9.82212 20.4953 9.9105C20.559 9.99887 20.6008 10.1011 20.6172 10.2088C20.6336 10.3165 20.6242 10.4266 20.5898 10.5299L18.1405 17.875H2.75Z" stroke="#2C2C2C" stroke-width="1.03125" stroke-linecap="round" stroke-linejoin="round"/>
</g>
<defs>
<clipPath id="clip0_408_1786">
<rect width="22" height="22" fill="white"/>
</clipPath>
</defs>
</svg>
