<svg width="22" height="22" viewBox="0 0 22 22" fill="none" xmlns="http://www.w3.org/2000/svg">
<g clip-path="url(#clip0_408_1821)">
<path d="M11 14.4375C12.8985 14.4375 14.4375 12.8985 14.4375 11C14.4375 9.10152 12.8985 7.5625 11 7.5625C9.10152 7.5625 7.5625 9.10152 7.5625 11C7.5625 12.8985 9.10152 14.4375 11 14.4375Z" stroke="#2C2C2C" stroke-width="1.03125" stroke-linecap="round" stroke-linejoin="round"/>
<path d="M3.56021 15.3046C3.18035 14.6503 2.88933 13.9483 2.69482 13.2171L4.13686 11.4124C4.12053 11.1365 4.12053 10.8599 4.13686 10.584L2.69568 8.77932C2.88985 8.04806 3.18028 7.34583 3.55936 6.69104L5.85475 6.43323C6.03804 6.22671 6.23347 6.03129 6.43998 5.84799L6.69779 3.55346C7.35164 3.17619 8.05272 2.88749 8.78264 2.69495L10.5873 4.13698C10.8632 4.12065 11.1399 4.12065 11.4158 4.13698L13.2204 2.69581C13.9517 2.88997 14.6539 3.1804 15.3087 3.55948L15.5665 5.85487C15.7731 6.03817 15.9685 6.23359 16.1518 6.4401L18.4463 6.69792C18.8262 7.35221 19.1172 8.05419 19.3117 8.78534L17.8697 10.59C17.886 10.8659 17.886 11.1426 17.8697 11.4185L19.3108 13.2231C19.118 13.9542 18.829 14.6564 18.4515 15.3114L16.1561 15.5692C15.9728 15.7758 15.7774 15.9712 15.5708 16.1545L15.313 18.449C14.6587 18.8289 13.9567 19.1199 13.2256 19.3144L11.4209 17.8724C11.145 17.8887 10.8684 17.8887 10.5925 17.8724L8.78779 19.3135C8.05675 19.1207 7.35452 18.8317 6.69951 18.4542L6.4417 16.1588C6.23519 15.9755 6.03976 15.7801 5.85646 15.5735L3.56021 15.3046Z" stroke="#2C2C2C" stroke-width="1.03125" stroke-linecap="round" stroke-linejoin="round"/>
</g>
<defs>
<clipPath id="clip0_408_1821">
<rect width="22" height="22" fill="white"/>
</clipPath>
</defs>
</svg>
