<svg width="49" height="49" viewBox="0 0 49 49" fill="none" xmlns="http://www.w3.org/2000/svg">
<g clip-path="url(#clip0_286_6000)">
<path d="M41.3438 41.3438V22.1151C41.3437 21.9017 41.2991 21.6907 41.2127 21.4956C41.1264 21.3004 41.0002 21.1255 40.8423 20.982L25.5298 6.52318C25.2478 6.26655 24.8803 6.12433 24.499 6.12433C24.1178 6.12433 23.7503 6.26655 23.4683 6.52318L8.15582 20.982C7.99824 21.1257 7.8724 21.3007 7.78638 21.4958C7.70035 21.6909 7.65603 21.9019 7.65625 22.1151V41.3438" stroke="#ADADAD" stroke-width="1.53125" stroke-linecap="round" stroke-linejoin="round"/>
<path d="M3.0625 41.3438H45.9375" stroke="#ADADAD" stroke-width="1.53125" stroke-linecap="round" stroke-linejoin="round"/>
<path d="M29.0938 41.3438V30.625C29.0938 30.2189 28.9324 29.8294 28.6453 29.5422C28.3581 29.2551 27.9686 29.0938 27.5625 29.0938H21.4375C21.0314 29.0938 20.6419 29.2551 20.3547 29.5422C20.0676 29.8294 19.9062 30.2189 19.9062 30.625V41.3438" stroke="#ADADAD" stroke-width="1.53125" stroke-linecap="round" stroke-linejoin="round"/>
</g>
<defs>
<clipPath id="clip0_286_6000">
<rect width="49" height="49" fill="white"/>
</clipPath>
</defs>
</svg>
