<svg width="206" height="200" viewBox="0 0 206 200" fill="none" xmlns="http://www.w3.org/2000/svg">
<path d="M195.934 112.085L189.212 112.387C189.212 112.156 189.248 111.931 189.255 111.686C189.385 111.543 189.472 111.366 189.506 111.175C189.541 110.985 189.522 110.788 189.451 110.608C188.124 105.955 189.164 100.905 187.118 96.3586C187.05 96.324 186.98 96.2938 186.909 96.2681C187.086 95.9808 187.263 95.6792 187.418 95.3706C187.482 95.3138 187.558 95.2659 187.622 95.2021C187.594 95.5671 187.674 95.9323 187.852 96.2522H191.346C198.821 96.2522 203.971 91.7892 204.166 85.1551C204.342 79.2003 198.682 74.4571 191.379 74.4429C182.297 74.4429 173.256 74.5618 164.193 74.4429C155.711 74.2886 151.379 66.7356 155.111 59.1277C157.137 54.9237 160.701 53.7884 164.892 53.4035C167.967 53.1161 170.482 51.7574 170.769 48.3445C171.013 45.6838 167.974 43.3778 164.593 43.3069C163.561 43.2227 162.523 43.2227 161.49 43.3069C155.782 44.1406 151.08 41.9694 146.399 38.9344C134.011 30.8954 120.085 27.6173 105.631 27C90.1727 26.0612 74.7952 29.8552 61.5365 37.8789C55.4912 41.5848 48.4013 43.2017 41.3522 42.482C38.637 42.2248 35.9007 42.6516 33.3918 43.7237C31.9295 44.4738 30.6608 45.5541 29.6855 46.8793C28.7103 48.2046 28.055 49.7387 27.7714 51.361C27.4878 52.9832 27.5835 54.6494 28.0511 56.2282C28.5186 57.8071 29.3452 59.2556 30.4658 60.4598C31.3733 61.4478 33.7349 61.9108 32.0579 64.3906C27.0715 71.476 23.2768 79.333 20.8248 87.6491L17.9678 87.8584C12.5246 88.3072 7.85802 92.1954 7.85802 97.9958C7.8941 100.495 8.8354 102.896 10.5064 104.751C12.1774 106.605 14.4641 107.787 16.9401 108.077V108.609C16.7371 113.873 16.9589 119.145 17.6034 124.373C17.2619 129.524 17.8101 134.696 19.2238 139.66C19.0594 139.765 18.8866 139.856 18.7073 139.933C16.749 138.849 14.5404 138.303 12.3042 138.348C10.068 138.394 7.88336 139.029 5.9705 140.192C-1.17625 144.626 -2.30841 155.198 4.76935 160.291C9.81454 163.927 17.6176 163.989 23.5844 164.6C26.212 164.866 28.8413 165.05 31.4724 165.153C31.9843 165.223 32.5001 165.261 33.0167 165.265C33.2922 165.272 33.5678 165.258 33.8411 165.222H37.2712C39.0596 172.13 42.932 178.989 48.5415 182.737H47.4305C43.7758 182.787 40.9471 185.119 41.0303 187.991C41.1134 190.863 43.6006 192.825 47.3191 192.846C52.7552 192.882 58.1966 192.951 63.6328 192.846C66.7214 192.784 69.7925 193.326 72.6741 194.443C86.4692 199.729 101.409 201.28 115.992 198.941C130.144 196.601 143.4 191.732 154.635 182.338C156.914 180.385 159.861 179.398 162.852 179.585C168.805 179.809 174.765 179.585 180.719 179.668C182.801 179.768 184.837 179.035 186.38 177.63C192.899 171.777 191.089 162.918 182.552 158.861C182.355 158.32 182.122 157.794 181.853 157.284L180.456 154.482C180.758 154.149 181.041 153.799 181.301 153.432C185.833 147.296 188.956 140.231 190.447 132.743C192.263 132.674 194.078 132.541 195.89 132.344C201.319 131.762 206 128.14 206 122.214C205.99 119.537 204.928 116.972 203.043 115.075C201.159 113.179 198.604 112.105 195.934 112.085ZM151.03 145.013C150.919 145.013 150.869 144.949 150.905 144.852C150.576 145.616 151.135 142.645 151.03 145.041V145.013Z" fill="#E2E2E2" fill-opacity="0.48"/>
<path d="M33.6799 108.491C33.7629 108.732 33.7823 108.99 33.7362 109.241C33.6901 109.491 33.5801 109.725 33.4169 109.92C33.2536 110.115 33.0428 110.265 32.8048 110.354C32.5668 110.443 32.3099 110.469 32.0591 110.429L28.7318 109.841L25.4014 109.245C25.1479 109.202 24.9102 109.093 24.7119 108.929C24.5136 108.765 24.3616 108.551 24.2712 108.31C24.1807 108.069 24.155 107.808 24.1964 107.554C24.2379 107.299 24.3451 107.06 24.5075 106.861L26.6829 104.265L28.8583 101.669C29.0245 101.472 29.2396 101.321 29.482 101.233C29.7244 101.146 29.9856 101.123 30.2393 101.168C30.4931 101.214 30.7306 101.325 30.9279 101.491C31.1252 101.658 31.2754 101.873 31.3635 102.116L32.5518 105.286L33.6799 108.491Z" fill="#808080"/>
<path d="M143.26 12.5189C142.97 12.2868 142.75 11.9755 142.622 11.6153C142.494 11.2551 142.462 10.8583 142.53 10.4636C142.597 10.069 142.762 9.68984 143.007 9.36323C143.253 9.03663 143.571 8.7737 143.931 8.60007L148.744 6.36766L153.568 4.14301C153.934 3.97085 154.328 3.89664 154.712 3.92778C155.096 3.95892 155.456 4.09436 155.757 4.32051C156.057 4.54666 156.287 4.85561 156.424 5.21663C156.561 5.57765 156.6 5.97807 156.537 6.37794L155.633 11.6316L154.729 16.8853C154.66 17.2857 154.49 17.6697 154.238 17.9988C153.986 18.3278 153.66 18.5904 153.292 18.7602C152.925 18.9299 152.529 19.0008 152.145 18.9659C151.76 18.9309 151.401 18.7912 151.102 18.5609L147.155 15.5898L143.26 12.5189Z" fill="#808080"/>
<path d="M9.73011 65.6319C12.1726 65.6319 14.1526 63.6464 14.1526 61.1973C14.1526 58.7481 12.1726 56.7627 9.73011 56.7627C7.28764 56.7627 5.30762 58.7481 5.30762 61.1973C5.30762 63.6464 7.28764 65.6319 9.73011 65.6319Z" stroke="#D0D0D0" stroke-width="2" stroke-miterlimit="10"/>
<path d="M170.71 104.656C173.152 104.656 175.132 102.671 175.132 100.222C175.132 97.7725 173.152 95.7871 170.71 95.7871C168.267 95.7871 166.287 97.7725 166.287 100.222C166.287 102.671 168.267 104.656 170.71 104.656Z" stroke="#B1B1B1" stroke-width="0.5" stroke-miterlimit="10"/>
<path d="M49.0366 24.0033L44.0481 23.4856L44.5495 18.6282C44.6064 18.4261 44.6186 18.2139 44.5851 18.0065C44.5516 17.7992 44.4733 17.6017 44.3557 17.4279C44.2381 17.2541 44.084 17.1082 43.9042 17.0004C43.7245 16.8927 43.5233 16.8256 43.315 16.804C43.1066 16.7824 42.8961 16.8067 42.6981 16.8753C42.5001 16.9438 42.3195 17.055 42.1689 17.201C42.0183 17.3469 41.9013 17.5242 41.8262 17.7202C41.7511 17.9163 41.7197 18.1265 41.7341 18.336L41.2327 23.1934L36.2284 22.674C36.0269 22.617 35.8153 22.6048 35.6085 22.6383C35.4017 22.6719 35.2048 22.7504 35.0315 22.8683C34.8581 22.9862 34.7126 23.1408 34.6051 23.321C34.4976 23.5013 34.4308 23.703 34.4092 23.9119C34.3877 24.1208 34.4119 24.3319 34.4803 24.5304C34.5487 24.729 34.6596 24.9101 34.8051 25.0611C34.9507 25.2121 35.1274 25.3294 35.323 25.4047C35.5185 25.4801 35.7281 25.5116 35.937 25.4971L40.9167 26.0139L40.3867 31.1483C40.4101 31.4867 40.5518 31.806 40.7869 32.05C41.022 32.2939 41.3354 32.4468 41.6719 32.4817C42.0084 32.5166 42.3464 32.4313 42.6263 32.2409C42.9062 32.0504 43.1102 31.767 43.2021 31.4405L43.7284 26.3414L48.7134 26.8587C49.0509 26.8353 49.3693 26.6932 49.6126 26.4575C49.8558 26.2218 50.0083 25.9075 50.0431 25.5701C50.078 25.2327 49.9929 24.8937 49.8029 24.613C49.613 24.3323 49.3303 24.1279 49.0048 24.0357L49.0366 24.0033Z" fill="#B3B3B3"/>
<path d="M176.16 131.626L173.781 131.899L173.517 129.589C173.479 129.425 173.382 129.281 173.245 129.184C173.108 129.087 172.941 129.044 172.774 129.063C172.607 129.082 172.454 129.162 172.342 129.288C172.23 129.413 172.169 129.575 172.169 129.743L172.433 132.054L170.069 132.325C169.906 132.363 169.762 132.46 169.665 132.598C169.569 132.735 169.526 132.903 169.545 133.07C169.564 133.237 169.644 133.391 169.769 133.503C169.894 133.615 170.056 133.677 170.223 133.677L172.587 133.405L172.864 135.829C172.864 135.925 172.884 136.02 172.924 136.109C172.963 136.197 173.02 136.275 173.092 136.34C173.164 136.404 173.249 136.452 173.34 136.481C173.432 136.51 173.529 136.52 173.624 136.509C173.72 136.498 173.812 136.467 173.895 136.417C173.978 136.368 174.049 136.302 174.105 136.223C174.16 136.144 174.198 136.055 174.217 135.96C174.235 135.865 174.234 135.768 174.212 135.674L173.935 133.251L176.299 132.979C176.462 132.941 176.606 132.844 176.703 132.707C176.799 132.569 176.842 132.401 176.823 132.234C176.804 132.067 176.724 131.913 176.599 131.801C176.474 131.689 176.312 131.627 176.145 131.627L176.16 131.626Z" fill="#B2B2B2"/>
<path d="M64.0739 115.665C60.8772 116.592 58.2709 118.454 55.9675 120.796C55.3654 121.404 54.8022 121.996 53.8428 121.984C53.4536 121.994 53.0701 121.888 52.7405 121.68C52.4108 121.472 52.1498 121.171 51.99 120.815C51.4967 119.841 51.9085 119.046 52.561 118.349C55.2972 115.383 58.7072 113.125 62.5008 111.765C65.3543 110.695 68.3903 110.201 71.4346 110.312C72.6348 110.366 72.9456 109.953 72.9883 108.777C73.2408 101.694 77.261 97.8093 84.3148 97.8015C100.493 97.8015 116.675 97.7704 132.868 97.8366C134.631 97.8366 135.199 97.3925 135.164 95.5691C135.035 90.8316 135.249 86.0863 135.086 81.3526C134.818 73.7126 131.295 67.9192 124.47 64.4791C118.112 61.2688 111.761 61.7519 105.9 65.8154C100.924 69.2517 98.2088 74.1217 97.8903 80.2306C97.8048 81.8513 97.8903 83.4799 97.8281 85.1006C97.6999 87.8278 96.1113 89.4135 93.4001 89.5187C91.4579 89.5927 89.5158 89.6005 87.5737 89.5187C85.0761 89.4057 83.4253 87.82 83.2699 85.3655C82.2756 69.5828 89.745 56.9637 102.928 50.8509C121.363 42.2797 143.643 53.1456 148.591 73.0581C149.559 76.9541 149.621 80.8851 149.597 84.8473C149.57 88.6109 149.597 92.3783 149.574 96.1457C149.574 97.1665 149.695 97.7041 150.938 97.9301C156.807 99.06 159.968 102.972 159.98 109.026C160.006 126.488 160.006 143.95 159.98 161.412C159.98 168.304 155.618 172.613 148.805 172.613H83.9536C77.393 172.613 73.1126 168.467 73.0116 161.867C72.9883 160.309 72.4329 160.102 71.0695 160.095C58.7214 160.04 48.8438 151.855 46.4161 139.715C46.1905 138.496 46.0529 137.263 46.0044 136.025C45.9345 134.627 46.2297 133.298 47.9465 133.236C49.6634 133.173 50.0595 134.307 50.1372 135.795C50.6228 144.713 55.2761 150.764 63.1223 154.574C63.4297 154.666 63.7491 154.712 64.0701 154.71C66.1947 154.71 68.2689 155.264 70.3936 155.271C79.1798 155.306 86.2647 150.577 89.5896 142.415C90.9297 139.134 91.2637 138.908 94.744 138.908C100.959 138.908 107.163 138.908 113.357 138.908C115.043 138.908 116.465 139.298 116.791 141.285C116.224 143.443 115.738 143.821 113.408 143.93C110.918 144.043 110.91 144.043 110.899 146.463C110.899 147.76 110.829 149.061 110.945 150.359C111.19 153 112.748 154.718 115.249 155.166C118.022 155.661 120.434 154.469 121.514 152.049C121.999 150.912 122.235 149.683 122.206 148.446C122.206 145.718 122.276 142.991 122.182 140.264C122.116 138.433 122.726 137.147 124.125 135.869C131.116 129.492 128.918 118.774 120.054 115.61C113.8 113.378 106.362 117.558 104.979 124.061C104.56 126.04 104.816 126.398 106.801 126.429C111.136 126.464 115.47 126.383 119.801 126.464C122.279 126.511 122.975 127.392 122.742 129.889C122.248 131.085 121.246 131.447 120.081 131.447C111.171 131.498 102.256 131.486 93.3418 131.447C91.5007 131.447 90.5179 130.38 89.947 128.786C88.9479 125.914 87.3314 123.296 85.2121 121.119C80.3529 116.152 74.4255 114.496 67.6979 115.31C66.4899 115.447 65.2781 115.521 64.0739 115.665Z" fill="#0F0F0F"/>
<path d="M64.0738 115.664C69.7409 113.58 75.2643 114.106 80.5392 116.856C82.916 118.063 85.0253 119.739 86.7401 121.783C88.4549 123.828 89.7399 126.199 90.5178 128.755C91.0344 130.352 91.9278 131.007 93.6252 130.995C102.361 130.936 111.104 130.96 119.836 130.995C120.935 130.995 121.91 130.862 122.462 129.756C122.625 128.949 123.017 128.424 123.922 128.716C124.827 129.008 124.839 129.76 124.726 130.473C124.28 133.34 122.679 135.608 120.761 137.645C119.906 138.553 119.176 139.402 118.892 140.696C118.609 141.989 117.649 142.204 116.562 141.444C116.08 139.788 114.93 139.391 113.303 139.41C106.894 139.484 100.485 139.508 94.0758 139.41C92.0715 139.375 91.0966 140.053 90.4013 141.978C86.6569 152.353 76.3752 157.881 65.6896 155.388C65.143 155.215 64.6116 154.998 64.101 154.737C65.2896 154.348 64.3729 154.094 64.0311 153.872C61.1528 151.994 59.0048 149.435 57.3463 146.505C55.9907 144.113 54.7166 141.631 54.7904 138.74C55.9557 138.631 56.1616 139.745 56.7326 140.361C57.795 141.512 59.1707 142.326 60.6896 142.702C62.2085 143.077 63.8037 142.997 65.2779 142.472C68.1173 141.421 69.873 139.375 70.1954 136.309C70.5838 132.616 69.1855 129.865 66.2684 128.326C64.5276 127.424 62.5145 127.203 60.6206 127.707C58.7267 128.211 57.0875 129.404 56.0217 131.053C55.5906 131.72 55.5129 132.713 54.5146 132.935C55.0118 126.503 58.0649 121.454 62.8774 117.351C63.4174 116.891 64.0699 116.549 64.5321 116.03C64.7574 115.738 64.2369 115.777 64.0738 115.664Z" fill="#D8D8D8"/>
<path d="M54.4885 132.923C57.1803 127.024 62.8202 125.092 67.493 128.505C70.3518 130.593 71.2957 133.57 70.6586 136.901C70.0216 140.232 67.8969 142.499 64.5837 143.228C61.2005 143.972 58.1941 143.103 55.9684 140.22C55.58 139.722 55.4207 139.051 54.8031 138.74C54.2049 136.827 54.3137 134.875 54.4885 132.923Z" fill="#0F0F0F"/>
<path d="M68.8597 77.0937C69.1249 77.0803 69.3899 77.1238 69.637 77.2212C69.8842 77.3186 70.1078 77.4677 70.293 77.6586C72.305 79.6884 74.3287 81.6871 76.3019 83.7169C77.1953 84.6325 77.3118 85.7389 76.434 86.6701C75.4707 87.6947 74.3326 87.5467 73.3615 86.5922C71.3767 84.6442 69.4268 82.6611 67.4691 80.6897C67.1309 80.3802 66.9028 79.9684 66.8194 79.5169C66.7359 79.0655 66.8018 78.599 67.0069 78.1885C67.151 77.8258 67.4112 77.5215 67.7466 77.3233C68.082 77.1251 68.4735 77.0444 68.8597 77.0937Z" fill="#0F0F0F"/>
<path d="M66.7108 93.5972C65.3551 93.5972 63.9918 93.6362 62.6362 93.5972C61.3505 93.5466 60.5853 92.8804 60.6008 91.5168C60.6008 90.235 61.3777 89.5921 62.5429 89.5688C65.3202 89.5142 68.1052 89.5181 70.8824 89.5688C72.0866 89.5921 72.8595 90.3246 72.8634 91.5168C72.8634 92.8063 72.0866 93.5427 70.7698 93.5777C69.453 93.6128 68.0702 93.5933 66.7108 93.5972Z" fill="#0F0F0F"/>
<path d="M49.5407 129.035C48.3365 128.91 47.5247 128.279 47.5597 126.962C47.5869 125.754 48.3637 125.042 49.5601 125.042C50.8574 125.042 51.6304 125.797 51.611 127.106C51.5877 128.318 50.8574 128.976 49.5407 129.035Z" fill="#0F0F0F"/>
<path d="M83.5494 102.087C86.0043 102.059 88.4552 102.017 90.9062 102.017C109.434 102.017 127.962 102.017 146.49 102.017C147.391 102.017 148.296 102.063 149.209 102.087C151.042 102.975 151.66 104.658 152.037 106.481C152.177 107.383 152.224 108.297 152.176 109.209C152.176 126.525 152.176 143.841 152.176 161.158C152.176 162.521 152.196 163.885 151.714 165.194C151.135 166.784 150.32 168.12 148.432 168.334L100.477 168.389C94.8448 168.389 89.2127 168.408 83.5844 168.389C82.757 168.389 81.8908 168.521 81.1528 167.964C81.5879 167.481 82.2443 167.091 81.7393 166.199C80.3061 163.655 80.6518 160.858 80.7605 158.131C86.7966 155.178 91.3839 150.822 93.9009 144.471C94.2117 143.692 94.7399 143.439 95.5556 143.447C98.531 143.478 101.506 143.513 104.489 143.447C105.849 143.412 106.086 144.035 106.101 145.212C106.136 147.549 105.853 149.887 106.416 152.185C106.993 154.637 108.444 156.793 110.495 158.246C112.547 159.699 115.057 160.349 117.554 160.074C120.05 159.799 122.36 158.618 124.048 156.753C125.737 154.888 126.687 152.468 126.719 149.949C126.754 147.222 126.793 144.495 126.719 141.767C126.691 141.195 126.792 140.623 127.014 140.095C127.237 139.567 127.575 139.096 128.005 138.717C136.826 129.873 133.544 115.341 121.79 111.164C111.939 107.658 101.102 114.507 99.9953 125.081C99.8322 126.663 99.3156 127.091 97.8901 126.939C97.1146 126.873 96.335 126.873 95.5595 126.939C95.2081 127.002 94.846 126.934 94.5404 126.749C94.2347 126.565 94.0062 126.275 93.8971 125.934C91.3684 119.595 86.7733 115.244 80.7683 112.263C80.609 110.062 80.3799 107.845 81.0751 105.702C81.5451 104.268 82.1278 102.87 83.5494 102.087Z" fill="white"/>
<path d="M116.55 141.425C117.801 141.561 118.764 141.378 118.523 139.73C118.418 139.013 118.838 138.522 119.378 138.097C121.709 136.242 123.39 133.688 124.175 130.808C124.349 130.204 124.633 129.495 123.895 129.078C123.157 128.661 122.873 129.355 122.469 129.737C122.353 127.22 122.116 126.974 119.595 126.97C115.004 126.97 110.409 126.908 105.818 127.002C104.21 127.033 103.973 126.32 104.147 124.999C104.971 118.863 110.968 114.273 116.453 114.48C122.524 114.694 127.818 119.093 128.653 124.902C129.356 129.768 127.721 133.683 124.031 136.749C123.595 137.067 123.247 137.49 123.02 137.979C122.792 138.469 122.692 139.008 122.73 139.547C122.784 142.853 122.784 146.162 122.73 149.474C122.745 150.812 122.347 152.122 121.588 153.223C120.83 154.325 119.749 155.163 118.496 155.622C117.323 156.002 116.066 156.041 114.872 155.734C113.678 155.428 112.595 154.787 111.749 153.888C110.885 152.909 110.387 151.66 110.339 150.354C110.296 149.641 110.312 148.924 110.339 148.211C110.362 146.789 109.951 145.118 110.545 144.004C111.287 142.628 113.128 143.571 114.476 143.447C115.824 143.322 116.033 142.274 116.55 141.425Z" fill="#D8D8D8"/>
<path d="M139.088 78.7028C137.41 68.4486 130.881 61.2332 121.127 58.8527C109.21 55.9463 96.4429 64.385 94.0735 76.6886C93.6696 78.7874 93.5391 80.9299 93.6851 83.0625C93.8094 84.9598 93.1879 85.7156 91.3002 85.2715C90.2009 73.1978 94.1706 63.2669 103.765 55.732C104.837 54.8905 106.231 54.61 107.261 53.6749C113.359 51.5477 119.445 51.462 125.517 53.7568C135.076 58.4982 139.861 66.6136 141.555 76.8211C142.596 83.117 141.885 89.4948 141.978 95.8336C141.978 96.5777 141.951 97.4348 140.867 97.5868C139.783 97.7387 139.267 97.392 139.282 96.1297C139.345 90.9519 139.317 85.7702 139.282 80.5885C139.286 79.9574 139.496 79.2911 139.088 78.7028Z" fill="#D8D8D8"/>
<path d="M148.421 168.323C150.526 167.154 151.505 165.249 151.509 162.934C151.544 144.456 151.509 125.977 151.54 107.498C151.54 105.324 150.313 103.742 149.209 102.087C153.094 101.974 155.793 104.463 155.813 108.32C155.848 126.242 155.813 144.125 155.851 162.023C155.832 165.221 153.047 169.016 148.421 168.323Z" fill="#D8D8D8"/>
<path d="M139.087 78.7029C139.724 79.2718 139.476 80.0354 139.476 80.7172C139.499 85.7196 139.476 90.7182 139.499 95.7168C139.499 96.4375 139.231 97.4076 140.505 97.3765C141.627 97.3453 141.414 96.4804 141.414 95.8181C141.414 90.4299 141.771 85.0106 141.336 79.6575C140.474 69.0837 135.778 60.5671 126.7 54.7231C126.282 54.427 125.881 54.107 125.5 53.7646C128.996 54.3568 131.89 56.2659 134.504 58.4398C141.472 64.2566 145.356 71.6629 145.341 80.9159C145.341 85.9807 145.31 91.0455 145.364 96.1103C145.364 97.357 145.015 97.7933 143.721 97.8167C139.103 97.8985 139.11 97.9453 139.103 93.3052C139.105 88.4378 139.1 83.5703 139.087 78.7029Z" fill="#D8D8D8"/>
<path d="M107.244 53.6748C105.974 55.5332 103.811 56.2773 102.195 57.7189C97.654 61.72 94.7137 66.6212 92.8725 72.3289C91.7927 75.7028 91.6063 79.143 91.7073 82.6338C91.7306 83.526 91.8743 84.4532 91.3188 85.2714C87.4346 85.4584 87.4346 85.4584 87.4346 81.5312C87.5006 69.138 94.636 58.4669 105.768 54.1306C106.25 53.9436 106.755 53.8229 107.244 53.6748Z" fill="white"/>
<path d="M83.5494 102.086C81.6614 104.587 80.8248 107.729 81.2189 110.841C81.2772 111.347 81.2772 111.889 80.7839 112.251C76.3403 110.724 77.0123 111.643 77.0938 108.207C77.1754 104.954 79.4244 102.441 82.2094 102.063C82.656 102.036 83.104 102.044 83.5494 102.086Z" fill="white"/>
<path d="M80.7615 158.13C81.6743 159.276 81.1732 160.616 81.1888 161.851C81.1888 163.386 81.4296 164.863 82.2919 166.082C83.5271 167.828 82.6803 168.03 81.1266 167.972C78.0192 166.744 76.112 162.887 77.0559 159.887C77.2773 159.19 77.8328 159.108 78.3766 158.933C79.1884 158.672 79.973 158.391 80.7615 158.13Z" fill="white"/>
<path d="M62.5869 139.371C62.0302 139.388 61.4757 139.293 60.9564 139.091C60.437 138.889 59.9634 138.585 59.5635 138.196C59.1637 137.807 58.8458 137.341 58.6287 136.827C58.4117 136.312 58.2998 135.759 58.2998 135.2C58.2998 134.642 58.4117 134.089 58.6287 133.574C58.8458 133.06 59.1637 132.594 59.5635 132.205C59.9634 131.816 60.437 131.512 60.9564 131.31C61.4757 131.108 62.0302 131.013 62.5869 131.03C63.6977 131.049 64.7563 131.506 65.5345 132.301C66.3127 133.096 66.7482 134.166 66.747 135.28C66.6884 136.36 66.229 137.379 65.459 138.136C64.6891 138.893 63.6645 139.334 62.5869 139.371Z" fill="white"/>
</svg>
