<svg width="285" height="244" viewBox="0 0 285 244" fill="none" xmlns="http://www.w3.org/2000/svg">
<g clip-path="url(#clip0_268_5592)">
<path d="M83.5025 240.692C88.0638 236.838 90.8344 230.749 90.1078 224.822C89.3812 218.894 84.881 213.445 79.0435 212.187C73.2061 210.928 66.5517 214.412 64.7787 220.115C63.8029 209.121 62.6785 197.666 56.8334 188.304C51.5409 179.827 42.374 173.761 32.4393 172.675C22.5045 171.59 12.0445 175.689 5.84857 183.53C-0.347378 191.372 -1.86443 202.771 2.47505 211.774C5.67179 218.406 11.5613 223.341 17.7321 227.357C37.672 240.222 61.5873 245.454 85.0778 242.09" fill="#F2F2F2"/>
<path d="M15.6728 175.916C23.8702 182.593 31.3905 190.061 38.1248 198.211C48.664 210.923 57.1924 225.174 63.413 240.47C63.8684 241.586 62.0564 242.072 61.6061 240.968C57.6503 231.298 52.7562 222.038 46.994 213.322C38.0085 199.706 27 187.539 14.3478 177.241C13.4124 176.48 14.7451 175.161 15.6728 175.916Z" fill="white"/>
<path d="M86.6531 240.692C82.0918 236.838 79.3212 230.749 80.0478 224.822C80.7744 218.894 85.2747 213.445 91.1121 212.187C96.9496 210.928 103.604 214.412 105.377 220.115C106.353 209.121 107.477 197.666 113.322 188.304C118.615 179.827 127.782 173.761 137.716 172.675C147.651 171.59 158.111 175.689 164.307 183.53C170.503 191.372 172.02 202.771 167.681 211.774C164.484 218.406 158.594 223.341 152.424 227.357C132.484 240.222 108.568 245.454 85.0778 242.09" fill="#F2F2F2"/>
<path d="M154.483 175.916C146.285 182.593 138.765 190.061 132.031 198.211C121.492 210.923 112.963 225.174 106.743 240.47C106.287 241.586 108.099 242.072 108.55 240.968C118.728 216.11 134.976 194.199 155.808 177.241C156.743 176.48 155.411 175.161 154.483 175.916Z" fill="white"/>
<path d="M100.189 109.416C108.627 109.416 115.467 102.576 115.467 94.1375C115.467 85.6992 108.627 78.8586 100.189 78.8586C91.7503 78.8586 84.9097 85.6992 84.9097 94.1375C84.9097 102.576 91.7503 109.416 100.189 109.416Z" fill="#F2F2F2"/>
<path d="M53.0796 41.4688H158.347V47.2281H66.5179C61.1187 47.228 55.7724 48.2915 50.7842 50.3577C45.796 52.4238 41.2635 55.4523 37.4457 59.2701C33.6279 63.0879 30.5995 67.6203 28.5333 72.6085C26.4671 77.5967 25.4036 82.9431 25.4037 88.3423V153.775H13.8851C13.3759 153.775 12.8877 153.572 12.5276 153.212C12.1676 152.852 11.9653 152.364 11.9653 151.855V82.5829C11.9653 77.1837 13.0288 71.8374 15.095 66.8492C17.1612 61.861 20.1896 57.3286 24.0074 53.5108C27.8252 49.693 32.3576 46.6645 37.3459 44.5984C42.3341 42.5322 47.6804 41.4687 53.0796 41.4688Z" fill="#F2F2F2"/>
<path d="M73.3271 241.012V153.528H98.9563V241.012C98.9556 241.6 98.7217 242.164 98.3059 242.58C97.8901 242.996 97.3264 243.229 96.7383 243.23H75.5451C74.957 243.229 74.3933 242.996 73.9775 242.58C73.5617 242.164 73.3278 241.6 73.3271 241.012Z" fill="#3F3D56"/>
<path d="M6.54346 151.803V80.6653C6.55624 69.3406 11.0606 58.4834 19.0684 50.4757C27.0761 42.4679 37.9333 37.9635 49.2579 37.9507H157.854V154.267H9.00779C8.35444 154.267 7.72807 154.007 7.26608 153.545C6.80409 153.083 6.5442 152.456 6.54346 151.803ZM156.868 38.9364H49.2579C38.1946 38.949 27.588 43.3494 19.7651 51.1724C11.9421 58.9953 7.5417 69.602 7.52919 80.6653V151.803C7.52962 152.195 7.68554 152.571 7.96274 152.848C8.23994 153.125 8.61577 153.281 9.00779 153.282H156.868V38.9364Z" fill="#3F3D56"/>
<path d="M100.188 102.024C97.8362 102.021 95.5812 101.085 93.9181 99.4222C92.2549 97.759 91.3193 95.504 91.3167 93.1519V29.572C91.3163 29.18 91.1603 28.8042 90.8831 28.527C90.6059 28.2498 90.2301 28.0939 89.8381 28.0934H55.3374C54.684 28.0927 54.0577 27.8328 53.5957 27.3708C53.1337 26.9088 52.8738 26.2824 52.873 25.6291V2.46434C52.8738 1.81099 53.1337 1.18461 53.5957 0.72262C54.0577 0.260632 54.684 0.000756571 55.3374 0H106.596C107.249 0.000747459 107.875 0.260622 108.337 0.722613C108.799 1.1846 109.059 1.81098 109.06 2.46434V93.1519C109.057 95.504 108.122 97.759 106.459 99.4222C104.795 101.085 102.54 102.021 100.188 102.024Z" fill="#2A85FF"/>
<path d="M161.797 36.9651C169.232 36.9496 176.369 39.8883 181.638 45.1347C186.906 50.3812 189.875 57.5058 189.89 64.941V145.924H245.092C247.309 145.919 249.438 146.796 251.009 148.36C252.58 149.925 253.466 152.05 253.47 154.268H133.704V64.941C133.719 57.5058 136.688 50.3812 141.956 45.1347C147.225 39.8883 154.362 36.9496 161.797 36.9651Z" fill="#3F3D56"/>
<path d="M155.056 83.0813L160.873 107.112L274.667 79.5645L268.849 55.5342C268.779 55.2404 268.636 54.9691 268.433 54.7455C268.229 54.5219 267.973 54.3532 267.687 54.2552C267.476 54.181 267.253 54.1474 267.03 54.1562L201.252 20.0982C200.867 19.9013 200.424 19.8488 200.003 19.9499C199.582 20.0511 199.211 20.2993 198.957 20.6498L167.256 64.8569L155.305 81.5271C155.283 81.5563 155.268 81.5898 155.261 81.6254C155.253 81.6609 155.253 81.6977 155.261 81.7332C155.018 82.138 154.944 82.6224 155.056 83.0813Z" fill="white"/>
<path d="M155.261 81.7332C155.267 81.7645 155.278 81.7943 155.296 81.821C155.313 81.8477 155.335 81.8708 155.361 81.8889C155.392 81.91 155.427 81.9247 155.464 81.9319C155.5 81.9392 155.538 81.9389 155.575 81.931C155.634 81.9152 155.686 81.8791 155.722 81.8289L155.763 81.772L156.385 80.9018L167.686 65.1477L199.378 20.9507C199.559 20.7003 199.823 20.5229 200.124 20.4509C200.424 20.3789 200.74 20.417 201.015 20.5583L266.283 54.3525L266.869 54.6565C266.893 54.6665 266.917 54.675 266.942 54.682C266.986 54.674 267.031 54.6697 267.075 54.6692C267.137 54.6487 267.188 54.6055 267.218 54.5485C267.234 54.5185 267.244 54.4857 267.247 54.4519C267.25 54.4181 267.247 54.384 267.237 54.3515C267.227 54.3191 267.21 54.2889 267.189 54.2628C267.167 54.2367 267.14 54.2151 267.11 54.1992L267.03 54.1562L201.252 20.0982C200.866 19.9013 200.423 19.8488 200.003 19.9499C199.582 20.0511 199.211 20.2993 198.957 20.6498L167.256 64.8569L155.305 81.5271C155.283 81.5563 155.268 81.5898 155.26 81.6254C155.253 81.6609 155.253 81.6977 155.261 81.7332Z" fill="#3F3D56"/>
<path d="M189.437 84.1836L191.97 84.4646L210.769 86.5472L223.232 87.9269L223.968 88.0087L239.519 75.8621L240.115 75.3968L243.788 72.5282L256.855 62.3228L256.934 61.6059L261.582 19.656C261.645 19.0783 261.477 18.4991 261.114 18.0454C260.751 17.5916 260.223 17.3003 259.645 17.2352L197.615 10.3638C197.037 10.3007 196.458 10.4691 196.004 10.8321C195.551 11.1951 195.259 11.723 195.194 12.3004L191.916 41.8909L190.098 58.2964L188.472 72.9733L187.718 79.7892L187.498 81.7635C187.435 82.3414 187.604 82.9206 187.967 83.3742C188.331 83.8278 188.859 84.1189 189.437 84.1836Z" fill="#E6E6E6"/>
<path d="M206.483 47.4128L233.352 50.3887L242.881 51.4438C243.302 51.4904 243.727 51.4537 244.134 51.3357C244.54 51.2178 244.92 51.0209 245.25 50.7564C245.581 50.4918 245.856 50.1648 246.06 49.794C246.264 49.4231 246.393 49.0157 246.439 48.595C246.486 48.1743 246.449 47.7486 246.331 47.342C246.213 46.9355 246.017 46.5562 245.752 46.2258C245.487 45.8954 245.16 45.6203 244.79 45.4162C244.419 45.2122 244.011 45.0832 243.591 45.0366L231.739 43.724L207.194 41.0024C206.344 40.9085 205.492 41.156 204.825 41.6903C204.157 42.2247 203.729 43.0022 203.635 43.852C203.541 44.7018 203.788 45.5542 204.322 46.2219C204.856 46.8897 205.633 47.318 206.483 47.4128Z" fill="white"/>
<path d="M204.953 59.2987C205.022 59.3111 205.091 59.3235 205.162 59.3303L236.353 62.7858L241.561 63.3638C242.411 63.4579 243.263 63.2104 243.931 62.6758C244.599 62.1413 245.026 61.3635 245.12 60.5135C245.214 59.6635 244.967 58.811 244.432 58.1435C243.898 57.476 243.12 57.0481 242.27 56.9541L234.74 56.121L210.032 53.3832L205.874 52.9225C205.043 52.8297 204.208 53.064 203.546 53.5757C202.884 54.0874 202.447 54.8365 202.327 55.6646C202.207 56.4926 202.414 57.3348 202.904 58.013C203.394 58.6912 204.129 59.1523 204.953 59.2987Z" fill="white"/>
<path d="M201.423 69.8381C201.678 70.2625 202.028 70.6222 202.445 70.8893C202.862 71.1565 203.336 71.3239 203.828 71.3785L216.612 72.7944L239.381 75.3169L239.386 75.3157L240.114 75.3968L243.787 72.5282C243.81 72.3103 243.81 72.0907 243.788 71.8727C243.711 71.141 243.386 70.4576 242.867 69.9357C242.348 69.4137 241.667 69.0844 240.936 69.0023L237.773 68.6509L225.226 67.2624L216.198 66.2612L204.537 64.9688C203.939 64.9026 203.335 65.005 202.793 65.2642C202.25 65.5235 201.791 65.9293 201.467 66.4358C201.143 66.9424 200.967 67.5294 200.959 68.1306C200.951 68.7318 201.112 69.3233 201.423 69.8381Z" fill="white"/>
<path d="M219.379 32.8836L226.065 33.6241L229.018 33.952L233.478 34.4457C234.328 34.5397 235.181 34.2922 235.848 33.7577C236.516 33.2231 236.943 32.4453 237.037 31.5953C237.132 30.7453 236.884 29.8928 236.349 29.2253C235.815 28.5578 235.037 28.13 234.187 28.0359L220.091 26.4758C219.242 26.3814 218.389 26.6283 217.722 27.1624C217.054 27.6965 216.626 28.4739 216.531 29.3236C216.437 30.1733 216.684 31.0258 217.218 31.6934C217.752 32.3611 218.53 32.7892 219.379 32.8836Z" fill="white"/>
<path d="M164.713 50.7317L172.864 84.4013L186.468 86.988L199.051 89.3838L212.553 91.9528L216.867 92.7738C217.119 92.8215 217.379 92.8149 217.629 92.7544C217.879 92.694 218.113 92.581 218.316 92.423L221.777 89.7199L223.968 88.0087L239.519 75.8621L229.631 35.0164C229.533 34.61 229.321 34.2405 229.018 33.9522C228.752 33.6972 228.427 33.5131 228.072 33.4168C227.716 33.3206 227.343 33.3154 226.985 33.4016L166.328 48.0854C165.763 48.2226 165.276 48.5783 164.973 49.0744C164.67 49.5706 164.577 50.1667 164.713 50.7317Z" fill="#2A85FF"/>
<path d="M183.402 77.5172C183.604 78.3477 184.127 79.0643 184.857 79.5095C185.587 79.9547 186.463 80.0922 187.294 79.8918L222.886 71.2757C223.716 71.0735 224.433 70.5502 224.878 69.8207C225.323 69.0912 225.461 68.215 225.261 67.3841C225.252 67.3429 225.24 67.3023 225.226 67.2625C224.999 66.4615 224.47 65.7795 223.751 65.3595C223.032 64.9395 222.179 64.814 221.369 65.0095L185.777 73.6256C184.947 73.8274 184.23 74.3506 183.785 75.0802C183.34 75.8098 183.202 76.6863 183.402 77.5172Z" fill="white"/>
<path d="M186.467 86.9881L199.051 89.3839L225.708 82.9309C226.539 82.7298 227.256 82.2068 227.701 81.477C228.146 80.7472 228.283 79.8703 228.082 79.0394C227.881 78.2084 227.358 77.4914 226.628 77.0461C225.899 76.6007 225.022 76.4636 224.191 76.6647L188.599 85.2808C187.855 85.4595 187.2 85.8986 186.752 86.5187C186.644 86.6669 186.549 86.8239 186.467 86.9881Z" fill="white"/>
<path d="M212.553 91.9529L216.867 92.7738C217.119 92.8216 217.379 92.815 217.629 92.7545C217.879 92.694 218.113 92.5811 218.316 92.4231L221.777 89.72L212.553 91.9529Z" fill="white"/>
<path d="M190.574 59.4627C190.776 60.2933 191.299 61.0098 192.029 61.455C192.759 61.9003 193.635 62.0377 194.466 61.8374L208.252 58.5001C209.082 58.2979 209.798 57.7747 210.243 57.0452C210.688 56.3157 210.826 55.4394 210.626 54.6086C210.519 54.1621 210.316 53.7441 210.032 53.3832C209.651 52.8953 209.137 52.5275 208.552 52.3237C207.968 52.1199 207.337 52.0888 206.735 52.2339L192.949 55.5712C192.118 55.7724 191.401 56.2954 190.956 57.0252C190.511 57.755 190.373 58.6318 190.574 59.4627Z" fill="white"/>
<path d="M199.051 89.3835L212.554 91.9531L216.867 92.7744C217.119 92.8216 217.379 92.8147 217.628 92.7543C217.878 92.6939 218.112 92.5813 218.315 92.4239L221.778 89.7201L220.563 90.0143L217.997 92.0158C217.852 92.1283 217.685 92.2087 217.507 92.2519C217.329 92.295 217.143 92.2999 216.963 92.2663L213.769 91.6589L200.266 89.0893L199.051 89.3835ZM239.386 75.3176L239.517 75.8606L240.116 75.3949L239.386 75.3176ZM199.051 89.3835L212.554 91.9531L216.867 92.7744C217.119 92.8216 217.379 92.8147 217.628 92.7543C217.878 92.6939 218.112 92.5813 218.315 92.4239L221.778 89.7201L220.563 90.0143L217.997 92.0158C217.852 92.1283 217.685 92.2087 217.507 92.2519C217.329 92.295 217.143 92.2999 216.963 92.2663L213.769 91.6589L200.266 89.0893L199.051 89.3835ZM199.051 89.3835L212.554 91.9531L216.867 92.7744C217.119 92.8216 217.379 92.8147 217.628 92.7543C217.878 92.6939 218.112 92.5813 218.315 92.4239L221.778 89.7201L220.563 90.0143L217.997 92.0158C217.852 92.1283 217.685 92.2087 217.507 92.2519C217.329 92.295 217.143 92.2999 216.963 92.2663L213.769 91.6589L200.266 89.0893L199.051 89.3835ZM155.056 83.0813L170.293 146.025C170.406 146.491 170.699 146.892 171.108 147.141C171.516 147.391 172.007 147.468 172.473 147.355L282.757 120.658C283.222 120.545 283.623 120.252 283.873 119.843C284.122 119.435 284.199 118.944 284.087 118.478L268.849 55.5341C268.779 55.2403 268.636 54.969 268.433 54.7454C268.229 54.5218 267.973 54.3532 267.687 54.2551C267.476 54.1809 267.253 54.1473 267.03 54.1562C266.769 54.1637 266.514 54.2309 266.284 54.3525C266.177 54.403 266.077 54.4653 265.984 54.5383L256.933 61.6059L243.788 71.8741L239.385 75.3138L239.386 75.3176L239.382 75.3184L223.233 87.925L220.563 90.0143L217.997 92.0158C217.852 92.1283 217.685 92.2087 217.507 92.2519C217.329 92.295 217.143 92.2999 216.963 92.2663L213.769 91.6589L200.266 89.0893L186.75 86.5186L157.148 80.8853C156.896 80.8353 156.636 80.8409 156.386 80.9018C156.049 80.984 155.743 81.1612 155.504 81.4123C155.413 81.511 155.331 81.6184 155.261 81.7332C155.018 82.138 154.944 82.6224 155.056 83.0813ZM199.051 89.3835L212.554 91.9531L216.867 92.7744C217.119 92.8216 217.379 92.8147 217.628 92.7543C217.878 92.6939 218.112 92.5813 218.315 92.4239L221.778 89.7201L220.563 90.0143L217.997 92.0158C217.852 92.1283 217.685 92.2087 217.507 92.2519C217.329 92.295 217.143 92.2999 216.963 92.2663L213.769 91.6589L200.266 89.0893L199.051 89.3835ZM199.051 89.3835L212.554 91.9531L216.867 92.7744C217.119 92.8216 217.379 92.8147 217.628 92.7543C217.878 92.6939 218.112 92.5813 218.315 92.4239L221.778 89.7201L220.563 90.0143L217.997 92.0158C217.852 92.1283 217.685 92.2087 217.507 92.2519C217.329 92.295 217.143 92.2999 216.963 92.2663L213.769 91.6589L200.266 89.0893L199.051 89.3835ZM199.051 89.3835L212.554 91.9531L216.867 92.7744C217.119 92.8216 217.379 92.8147 217.628 92.7543C217.878 92.6939 218.112 92.5813 218.315 92.4239L221.778 89.7201L220.563 90.0143L217.997 92.0158C217.852 92.1283 217.685 92.2087 217.507 92.2519C217.329 92.295 217.143 92.2999 216.963 92.2663L213.769 91.6589L200.266 89.0893L199.051 89.3835Z" fill="white"/>
<path d="M199.051 89.3837L212.554 91.9533L216.867 92.7747C217.119 92.8218 217.379 92.8149 217.628 92.7545C217.878 92.6941 218.112 92.5815 218.315 92.4241L221.778 89.7203L220.563 90.0145L217.997 92.0161C217.852 92.1285 217.685 92.2089 217.507 92.2521C217.329 92.2953 217.143 92.3002 216.963 92.2665L213.769 91.6591L200.266 89.0895L199.051 89.3837ZM239.386 75.3178L239.517 75.8608L240.116 75.3952L239.386 75.3178ZM199.051 89.3837L212.554 91.9533L216.867 92.7747C217.119 92.8218 217.379 92.8149 217.628 92.7545C217.878 92.6941 218.112 92.5815 218.315 92.4241L221.778 89.7203L220.563 90.0145L217.997 92.0161C217.852 92.1285 217.685 92.2089 217.507 92.2521C217.329 92.2953 217.143 92.3002 216.963 92.2665L213.769 91.6591L200.266 89.0895L199.051 89.3837ZM199.051 89.3837L212.554 91.9533L216.867 92.7747C217.119 92.8218 217.379 92.8149 217.628 92.7545C217.878 92.6941 218.112 92.5815 218.315 92.4241L221.778 89.7203L220.563 90.0145L217.997 92.0161C217.852 92.1285 217.685 92.2089 217.507 92.2521C217.329 92.2953 217.143 92.3002 216.963 92.2665L213.769 91.6591L200.266 89.0895L199.051 89.3837ZM155.763 81.7722L155.83 81.8225C155.841 81.8041 155.861 81.7877 155.876 81.7684C156.025 81.613 156.211 81.4971 156.416 81.431C156.621 81.365 156.839 81.3509 157.051 81.39L186.468 86.986L199.051 89.3837L212.554 91.9533L216.867 92.7747C217.119 92.8218 217.379 92.8149 217.628 92.7545C217.878 92.6941 218.112 92.5815 218.315 92.4241L221.778 89.7203L220.563 90.0145L217.997 92.0161C217.852 92.1285 217.685 92.2089 217.507 92.2521C217.329 92.2953 217.143 92.3002 216.963 92.2665L213.769 91.6591L200.266 89.0895L186.75 86.5189L157.148 80.8855C156.896 80.8355 156.636 80.8411 156.386 80.902L155.763 81.7722ZM155.056 83.0815L170.293 146.026C170.406 146.491 170.699 146.892 171.108 147.141C171.516 147.391 172.007 147.468 172.473 147.356L282.757 120.658C283.222 120.545 283.623 120.252 283.873 119.843C284.122 119.435 284.199 118.944 284.087 118.479L268.849 55.5344C268.779 55.2406 268.636 54.9693 268.433 54.7457C268.229 54.5221 267.973 54.3534 267.687 54.2554C267.476 54.1812 267.253 54.1476 267.03 54.1564C266.769 54.1639 266.514 54.2311 266.284 54.3527C266.177 54.4032 266.077 54.4656 265.984 54.5386L256.933 61.6062L243.788 71.8743L239.385 75.3141L239.386 75.3178L239.382 75.3187L223.233 87.9252L220.563 90.0145L217.997 92.0161C217.852 92.1285 217.685 92.2089 217.507 92.2521C217.329 92.2953 217.143 92.3002 216.963 92.2665L213.769 91.6591L200.266 89.0895L186.75 86.5189L157.148 80.8855C156.896 80.8355 156.636 80.8411 156.386 80.902C156.049 80.9843 155.743 81.1615 155.504 81.4126C155.413 81.5112 155.331 81.6187 155.261 81.7334C155.018 82.1382 154.944 82.6226 155.056 83.0815ZM155.558 82.9599C155.513 82.7743 155.51 82.5811 155.55 82.3943C155.589 82.2075 155.67 82.0318 155.786 81.8802C155.796 81.8579 155.811 81.8382 155.83 81.8225C155.841 81.8041 155.861 81.7877 155.876 81.7684C156.025 81.613 156.211 81.4971 156.416 81.431C156.621 81.365 156.839 81.3509 157.051 81.39L186.468 86.986L199.051 89.3837L212.554 91.9533L216.867 92.7747C217.119 92.8218 217.379 92.8149 217.628 92.7545C217.878 92.6941 218.112 92.5815 218.315 92.4241L221.778 89.7203L223.969 88.0091L239.517 75.8608L240.116 75.3952L243.786 72.5279L256.856 62.3209L266.305 54.9419C266.449 54.8299 266.615 54.7498 266.792 54.7068C266.841 54.6947 266.891 54.6865 266.942 54.6822C266.986 54.6741 267.031 54.6698 267.076 54.6693C267.227 54.6679 267.377 54.6924 267.52 54.7417C267.723 54.8127 267.906 54.9334 268.051 55.0929C268.196 55.2524 268.299 55.4457 268.351 55.6551L283.588 118.599C283.628 118.764 283.635 118.935 283.609 119.103C283.583 119.271 283.524 119.432 283.436 119.577C283.347 119.722 283.231 119.848 283.094 119.948C282.957 120.048 282.801 120.12 282.636 120.159L172.352 146.857C172.019 146.937 171.668 146.881 171.376 146.703C171.085 146.524 170.876 146.237 170.796 145.904L155.558 82.9599ZM199.051 89.3837L212.554 91.9533L216.867 92.7747C217.119 92.8218 217.379 92.8149 217.628 92.7545C217.878 92.6941 218.112 92.5815 218.315 92.4241L221.778 89.7203L220.563 90.0145L217.997 92.0161C217.852 92.1285 217.685 92.2089 217.507 92.2521C217.329 92.2953 217.143 92.3002 216.963 92.2665L213.769 91.6591L200.266 89.0895L199.051 89.3837ZM199.051 89.3837L212.554 91.9533L216.867 92.7747C217.119 92.8218 217.379 92.8149 217.628 92.7545C217.878 92.6941 218.112 92.5815 218.315 92.4241L221.778 89.7203L220.563 90.0145L217.997 92.0161C217.852 92.1285 217.685 92.2089 217.507 92.2521C217.329 92.2953 217.143 92.3002 216.963 92.2665L213.769 91.6591L200.266 89.0895L199.051 89.3837ZM199.051 89.3837L212.554 91.9533L216.867 92.7747C217.119 92.8218 217.379 92.8149 217.628 92.7545C217.878 92.6941 218.112 92.5815 218.315 92.4241L221.778 89.7203L220.563 90.0145L217.997 92.0161C217.852 92.1285 217.685 92.2089 217.507 92.2521C217.329 92.2953 217.143 92.3002 216.963 92.2665L213.769 91.6591L200.266 89.0895L199.051 89.3837Z" fill="#3F3D56"/>
<path d="M254.013 108.292C253.765 107.26 253.936 106.172 254.488 105.267C255.041 104.361 255.93 103.712 256.961 103.461L270.88 100.091C271.91 99.8457 272.996 100.018 273.899 100.572C274.801 101.125 275.448 102.013 275.697 103.042C275.947 104.071 275.778 105.157 275.228 106.062C274.678 106.967 273.792 107.617 272.763 107.87L258.844 111.239C257.813 111.488 256.725 111.317 255.819 110.764C254.914 110.212 254.264 109.322 254.013 108.292Z" fill="#2A85FF"/>
<path d="M100.188 96.602C102.094 96.602 103.638 95.0574 103.638 93.152C103.638 91.2466 102.094 89.7019 100.188 89.7019C98.2829 89.7019 96.7383 91.2466 96.7383 93.152C96.7383 95.0574 98.2829 96.602 100.188 96.602Z" fill="white"/>
</g>
<defs>
<clipPath id="clip0_268_5592">
<rect width="284.138" height="243.23" fill="white"/>
</clipPath>
</defs>
</svg>
