<svg width="268" height="243" viewBox="0 0 268 243" fill="none" xmlns="http://www.w3.org/2000/svg">
<g clip-path="url(#clip0_94_2679)">
<path d="M117.133 200.973H5.31002C3.9022 200.972 2.5525 200.411 1.55702 199.413C0.561542 198.415 0.0015844 197.063 0 195.652V43.5131C0.0015844 42.1022 0.561541 40.7495 1.55702 39.7519C2.5525 38.7542 3.9022 38.193 5.31002 38.1914H117.133C118.541 38.193 119.89 38.7542 120.886 39.7519C121.881 40.7495 122.441 42.1022 122.443 43.5131V195.652C122.441 197.063 121.881 198.415 120.886 199.413C119.89 200.411 118.541 200.972 117.133 200.973Z" fill="white"/>
<path d="M56.1803 77.7855C56.1803 82.1794 54.7934 86.4607 52.2179 90.0166C49.6425 93.5726 46.0106 96.2208 41.8421 97.5823C41.7175 97.622 41.5929 97.6617 41.4664 97.6996C40.9264 97.8661 40.3789 98.008 39.8218 98.1291C38.8138 98.3483 37.7907 98.4906 36.7612 98.5549C36.3138 98.5851 35.8638 98.6003 35.4113 98.6003C33.0731 98.6026 30.7513 98.2085 28.5442 97.4347C28.4801 97.412 28.4159 97.3893 28.3536 97.3666C24.7777 96.0722 21.6249 93.8191 19.2386 90.8527C16.8524 87.8863 15.3244 84.3204 14.821 80.5436C14.3177 76.7668 14.8583 72.924 16.384 69.4339C17.9097 65.9438 20.362 62.9403 23.4735 60.7508C26.5851 58.5613 30.2366 57.2696 34.0302 57.0166C37.8238 56.7637 41.6139 57.559 44.9875 59.3161C48.3611 61.0732 51.1888 63.7246 53.1624 66.9813C55.1361 70.238 56.1799 73.9751 56.1803 77.7855Z" fill="white"/>
<path d="M34.914 91.5761C40.4948 91.5761 45.0189 87.0421 45.0189 81.449C45.0189 75.8559 40.4948 71.3218 34.914 71.3218C29.3332 71.3218 24.8091 75.8559 24.8091 81.449C24.8091 87.0421 29.3332 91.5761 34.914 91.5761Z" fill="#2A85FF"/>
<path d="M35.504 86.9054L35.5145 86.527C34.812 86.5074 34.1927 86.4632 33.7273 86.1225C33.5953 86.0204 33.4869 85.891 33.4093 85.7431C33.3317 85.5953 33.2868 85.4324 33.2777 85.2656C33.2695 85.1637 33.2849 85.0612 33.3226 84.9662C33.3604 84.8712 33.4195 84.7863 33.4953 84.7179C33.6712 84.6111 33.8725 84.5537 34.0781 84.5519C34.2837 84.5501 34.486 84.6038 34.6637 84.7075L34.9761 84.8511L34.377 80.4629L34.0028 80.5143L34.5125 84.247C34.3039 84.1694 34.0792 84.1455 33.859 84.1772C33.6387 84.209 33.4299 84.2955 33.2516 84.4289C33.1316 84.5338 33.0375 84.6652 32.9766 84.8126C32.9156 84.9601 32.8895 85.1197 32.9003 85.2789C32.9113 85.503 32.9711 85.722 33.0755 85.9205C33.1799 86.119 33.3263 86.2923 33.5046 86.4281C34.1025 86.8661 34.8796 86.8879 35.504 86.9054Z" fill="#2F2E41"/>
<path d="M32.1524 80.8364H30.1187V81.2149H32.1524V80.8364Z" fill="#2F2E41"/>
<path d="M38.5718 80.8364H36.5381V81.2149H38.5718V80.8364Z" fill="#2F2E41"/>
<path d="M37.7845 95.607C37.8113 95.4826 37.8252 95.3558 37.8261 95.2286C37.8253 94.752 37.6361 94.2952 37.2999 93.9583C36.9637 93.6213 36.5079 93.4317 36.0324 93.4309H33.3891C32.9135 93.4313 32.4575 93.6209 32.1212 93.9579C31.7849 94.2949 31.5958 94.7519 31.5954 95.2286C31.5953 95.3565 31.6092 95.484 31.6369 95.6089C30.639 95.924 29.6958 96.3919 28.8407 96.9959C28.6744 97.1113 28.5102 97.2362 28.3535 97.3668C28.4158 97.3895 28.48 97.4122 28.5442 97.4349C30.7512 98.2087 33.073 98.6029 35.4112 98.6005C35.8643 98.6005 36.3143 98.5854 36.7612 98.5551C37.7906 98.4909 38.8138 98.3486 39.8218 98.1294C40.3788 98.0083 40.9263 97.8663 41.4663 97.6998C40.398 96.7527 39.1439 96.0398 37.7845 95.607Z" fill="#2F2E41"/>
<path d="M37.4447 98.3148C37.1997 98.333 36.9639 98.4159 36.7612 98.5552C37.7907 98.4909 38.8138 98.3486 39.8218 98.1294L37.4447 98.3148Z" fill="#2F2E41"/>
<path d="M44.0784 79.0435L26.5241 72.6074C26.336 72.5385 26.1829 72.3974 26.0986 72.2153C26.0142 72.0333 26.0055 71.8251 26.0743 71.6365L26.1337 71.3552C27.5046 67.5994 32.0487 65.2357 35.7962 66.6096L41.1981 68.5902C44.9456 69.9641 46.5744 74.4115 45.2034 78.1673L45.0472 78.5927C44.9783 78.7812 44.8376 78.9346 44.6559 79.0191C44.4743 79.1037 44.2665 79.1124 44.0784 79.0435Z" fill="#2F2E41"/>
<path d="M45.0238 79.4006C20.5565 80.3054 18.4186 77.2243 25.8736 72.3794L27.4551 69.4629L45.5808 76.0858L45.0238 79.4006Z" fill="#2F2E41"/>
<path d="M40.2262 68.1281C40.3613 67.6778 39.7827 67.1054 38.9338 66.8496C38.085 66.5939 37.2874 66.7517 37.1523 67.2021C37.0172 67.6525 37.5958 68.2249 38.4447 68.4806C39.2935 68.7363 40.0911 68.5785 40.2262 68.1281Z" fill="#2F2E41"/>
<path d="M35.4117 99.1682C33.0097 99.1709 30.6245 98.766 28.3574 97.9707L28.1603 97.9003C23.4114 96.1803 19.4251 92.828 16.9103 88.4396C14.3955 84.0511 13.5153 78.911 14.4262 73.9334C15.3371 68.9558 17.9801 64.4633 21.8851 61.2548C25.7901 58.0464 30.704 56.33 35.7529 56.4109C40.8018 56.4919 45.6584 58.3648 49.459 61.6968C53.2596 65.0287 55.7579 69.6037 56.5095 74.608C57.2611 79.6122 56.2173 84.7215 53.5638 89.0271C50.9103 93.3327 46.8191 96.5555 42.0177 98.1224C41.8835 98.1652 41.7572 98.2054 41.6288 98.2438C41.0926 98.4092 40.5236 98.5578 39.9423 98.6841C38.9062 98.9092 37.8546 99.0555 36.7965 99.1217C36.3419 99.1525 35.8748 99.1682 35.4117 99.1682ZM35.4117 57.5386C30.6577 57.5393 26.0562 59.2199 22.4164 62.2849C18.7767 65.3499 16.3318 69.6029 15.5119 74.296C14.6919 78.9891 15.5494 83.8216 17.9334 87.9437C20.3175 92.0657 24.0754 95.2133 28.5464 96.8329L28.7334 96.8997C30.8798 97.6524 33.1377 98.0355 35.4117 98.0329C35.8495 98.0329 36.2908 98.018 36.7234 97.9887C37.7255 97.9261 38.7213 97.7876 39.7025 97.5745C40.2523 97.4551 40.7899 97.3146 41.3002 97.1574C41.4266 97.1195 41.5465 97.0812 41.6665 97.043C46.2395 95.5502 50.1313 92.4716 52.6422 88.3605C55.1531 84.2494 56.1184 79.3756 55.3647 74.615C54.6109 69.8545 52.1875 65.5196 48.5301 62.3894C44.8727 59.2593 40.2212 57.5393 35.4117 57.5386Z" fill="#CCCCCC"/>
<path d="M117.133 200.973H5.31002C3.9022 200.972 2.5525 200.411 1.55702 199.413C0.561542 198.415 0.0015844 197.063 0 195.652V43.5131C0.0015844 42.1022 0.561541 40.7495 1.55702 39.7519C2.5525 38.7542 3.9022 38.193 5.31002 38.1914H117.133C118.541 38.193 119.89 38.7542 120.886 39.7519C121.881 40.7495 122.441 42.1022 122.443 43.5131V195.652C122.441 197.063 121.881 198.415 120.886 199.413C119.89 200.411 118.541 200.972 117.133 200.973ZM5.31002 38.8175C4.06783 38.8189 2.87693 39.3141 1.99856 40.1944C1.1202 41.0747 0.626117 42.2682 0.624709 43.5131V195.652C0.626116 196.897 1.12019 198.09 1.99855 198.97C2.87691 199.851 4.06783 200.346 5.31002 200.347H117.133C118.375 200.346 119.566 199.851 120.444 198.97C121.323 198.09 121.817 196.897 121.818 195.652V43.5131C121.817 42.2682 121.323 41.0747 120.444 40.1944C119.566 39.3141 118.375 38.8189 117.133 38.8175H5.31002Z" fill="#CCCCCC"/>
<path d="M95.4854 77.7045H63.8434C63.18 77.7037 62.5441 77.439 62.0754 76.9686C61.6066 76.4982 61.3433 75.8606 61.3433 75.1958C61.3433 74.5309 61.6066 73.8933 62.0754 73.4229C62.5441 72.9525 63.18 72.6878 63.8434 72.687H95.4854C95.8144 72.6866 96.1402 72.7512 96.4443 72.8771C96.7484 73.003 97.0247 73.1877 97.2575 73.4207C97.4903 73.6537 97.6749 73.9304 97.8009 74.235C97.9269 74.5396 97.9918 74.8661 97.9918 75.1958C97.9918 75.5255 97.9269 75.852 97.8009 76.1566C97.6749 76.4611 97.4903 76.7378 97.2575 76.9708C97.0247 77.2038 96.7484 77.3886 96.4443 77.5145C96.1402 77.6403 95.8144 77.7049 95.4854 77.7045Z" fill="#E6E6E6"/>
<path d="M105.811 86.1718H63.8434C63.18 86.171 62.5441 85.9063 62.0754 85.4359C61.6066 84.9655 61.3433 84.3279 61.3433 83.6631C61.3433 82.9982 61.6066 82.3606 62.0754 81.8902C62.5441 81.4198 63.18 81.1551 63.8434 81.1543H105.811C106.475 81.1551 107.111 81.4198 107.579 81.8902C108.048 82.3606 108.311 82.9982 108.311 83.6631C108.311 84.3279 108.048 84.9655 107.579 85.4359C107.111 85.9063 106.475 86.171 105.811 86.1718Z" fill="#E6E6E6"/>
<path d="M95.4393 118.646H16.6318C16.3028 118.647 15.977 118.582 15.6729 118.456C15.3689 118.33 15.0925 118.146 14.8598 117.913C14.627 117.68 14.4423 117.403 14.3163 117.098C14.1903 116.794 14.1255 116.467 14.1255 116.138C14.1255 115.808 14.1903 115.481 14.3163 115.177C14.4423 114.872 14.627 114.596 14.8598 114.363C15.0925 114.13 15.3689 113.945 15.6729 113.819C15.977 113.693 16.3028 113.628 16.6318 113.629H95.4393C96.1027 113.63 96.7386 113.894 97.2074 114.365C97.6762 114.835 97.9395 115.473 97.9395 116.138C97.9395 116.802 97.6762 117.44 97.2074 117.911C96.7386 118.381 96.1027 118.646 95.4393 118.646Z" fill="#E6E6E6"/>
<path d="M105.765 127.113H16.6318C16.3028 127.114 15.977 127.049 15.6729 126.923C15.3689 126.798 15.0925 126.613 14.8598 126.38C14.627 126.147 14.4423 125.87 14.3163 125.565C14.1903 125.261 14.1255 124.934 14.1255 124.605C14.1255 124.275 14.1903 123.949 14.3163 123.644C14.4423 123.339 14.627 123.063 14.8598 122.83C15.0925 122.597 15.3689 122.412 15.6729 122.286C15.977 122.16 16.3028 122.096 16.6318 122.096H105.765C106.094 122.096 106.42 122.16 106.724 122.286C107.028 122.412 107.305 122.597 107.537 122.83C107.77 123.063 107.955 123.339 108.081 123.644C108.207 123.949 108.272 124.275 108.272 124.605C108.272 124.934 108.207 125.261 108.081 125.565C107.955 125.87 107.77 126.147 107.537 126.38C107.305 126.613 107.028 126.798 106.724 126.923C106.42 127.049 106.094 127.114 105.765 127.113Z" fill="#E6E6E6"/>
<path d="M95.4391 146.574H16.6317C15.9678 146.574 15.331 146.31 14.8616 145.839C14.3922 145.369 14.1284 144.731 14.1284 144.065C14.1284 143.4 14.3922 142.762 14.8616 142.291C15.331 141.821 15.9678 141.556 16.6317 141.556H95.4391C96.1031 141.556 96.7398 141.821 97.2092 142.291C97.6787 142.762 97.9424 143.4 97.9424 144.065C97.9424 144.731 97.6787 145.369 97.2092 145.839C96.7398 146.31 96.1031 146.574 95.4391 146.574Z" fill="#E6E6E6"/>
<path d="M105.765 155.041H16.6317C15.9678 155.041 15.331 154.777 14.8616 154.306C14.3922 153.836 14.1284 153.198 14.1284 152.532C14.1284 151.867 14.3922 151.229 14.8616 150.758C15.331 150.288 15.9678 150.023 16.6317 150.023H105.765C106.429 150.023 107.066 150.288 107.535 150.758C108.005 151.229 108.268 151.867 108.268 152.532C108.268 153.198 108.005 153.836 107.535 154.306C107.066 154.777 106.429 155.041 105.765 155.041Z" fill="#E6E6E6"/>
<path d="M95.4391 174.502H16.6317C15.9678 174.502 15.331 174.237 14.8616 173.767C14.3922 173.296 14.1284 172.658 14.1284 171.993C14.1284 171.328 14.3922 170.689 14.8616 170.219C15.331 169.748 15.9678 169.484 16.6317 169.484H95.4391C96.1031 169.484 96.7398 169.748 97.2092 170.219C97.6787 170.689 97.9424 171.328 97.9424 171.993C97.9424 172.658 97.6787 173.296 97.2092 173.767C96.7398 174.237 96.1031 174.502 95.4391 174.502Z" fill="#E6E6E6"/>
<path d="M105.765 182.969H16.6317C15.9678 182.969 15.331 182.704 14.8616 182.234C14.3922 181.763 14.1284 181.125 14.1284 180.46C14.1284 179.795 14.3922 179.156 14.8616 178.686C15.331 178.215 15.9678 177.951 16.6317 177.951H105.765C106.429 177.951 107.066 178.215 107.535 178.686C108.005 179.156 108.268 179.795 108.268 180.46C108.268 181.125 108.005 181.763 107.535 182.234C107.066 182.704 106.429 182.969 105.765 182.969Z" fill="#E6E6E6"/>
<path d="M262.69 162.782L150.867 162.782C149.459 162.781 148.11 162.219 147.114 161.222C146.119 160.224 145.559 158.871 145.557 157.46L145.557 5.32182C145.559 3.91089 146.119 2.55822 147.114 1.56054C148.11 0.562871 149.459 0.00167699 150.867 8.80784e-05L262.69 0C264.098 0.00158687 265.447 0.562773 266.443 1.56044C267.438 2.55812 267.998 3.91079 268 5.32172L268 157.46C267.999 158.871 267.439 160.224 266.443 161.222C265.448 162.219 264.098 162.78 262.69 162.782Z" fill="white"/>
<path d="M262.69 162.782L150.867 162.782C149.459 162.781 148.11 162.219 147.114 161.222C146.119 160.224 145.559 158.871 145.557 157.46L145.557 5.32182C145.559 3.91089 146.119 2.55822 147.114 1.56054C148.11 0.562871 149.459 0.00167699 150.867 8.80784e-05L262.69 0C264.098 0.00158687 265.447 0.562773 266.443 1.56044C267.438 2.55812 267.998 3.91079 268 5.32172L268 157.46C267.999 158.871 267.439 160.224 266.443 161.222C265.448 162.219 264.098 162.78 262.69 162.782ZM150.867 0.626173C149.625 0.627585 148.434 1.12276 147.556 2.00306C146.677 2.88335 146.183 4.07689 146.182 5.32182L146.182 157.46C146.183 158.705 146.677 159.899 147.556 160.779C148.434 161.659 149.625 162.155 150.867 162.156L262.69 162.156C263.932 162.155 265.123 161.659 266.002 160.779C266.88 159.899 267.374 158.705 267.375 157.46L267.375 5.32172C267.374 4.07679 266.88 2.88326 266.001 2.00296C265.123 1.12266 263.932 0.627495 262.69 0.626085L150.867 0.626173Z" fill="#CCCCCC"/>
<path d="M201.79 39.387C201.79 43.5038 200.572 47.5282 198.29 50.9511C196.008 54.3741 192.764 57.042 188.969 58.6174C185.174 60.1928 180.998 60.605 176.969 59.8019C172.94 58.9988 169.24 57.0163 166.335 54.1053C163.43 51.1943 161.452 47.4855 160.651 43.4478C159.85 39.4102 160.261 35.225 161.833 31.4216C163.405 27.6182 166.067 24.3674 169.482 22.0802C172.898 19.793 176.913 18.5723 181.021 18.5723C186.529 18.574 191.81 20.7675 195.705 24.6707C199.6 28.5738 201.788 33.8672 201.79 39.387Z" fill="white"/>
<path d="M190.62 42.9487C190.393 56.2609 170.635 56.2588 170.41 42.9483C170.637 29.6366 190.395 29.6386 190.62 42.9487Z" fill="#2A85FF"/>
<path d="M180.114 47.0807L180.104 46.7023C182.706 47.0505 183.267 43.8178 180.642 45.0264L181.241 40.6382L181.615 40.6896L181.106 44.4223C183.869 44.01 182.847 47.4589 180.114 47.0807Z" fill="#2F2E41"/>
<path d="M185.499 41.0112H183.465V41.3897H185.499V41.0112Z" fill="#2F2E41"/>
<path d="M179.08 41.0112H177.046V41.3897H179.08V41.0112Z" fill="#2F2E41"/>
<path d="M183.791 57.1083C184.187 54.427 181.055 54.9568 179.397 54.9304C179.13 54.9312 178.866 54.9918 178.625 55.1077C178.384 55.2236 178.172 55.3919 178.004 55.6004C177.836 55.8088 177.717 56.0522 177.655 56.3128C177.593 56.5733 177.589 56.8444 177.645 57.1064C176.362 57.5039 175.174 58.1608 174.154 59.0365C178.452 60.5385 183.122 60.5903 187.452 59.1841C186.396 58.2341 185.147 57.5258 183.791 57.1083Z" fill="#2F2E41"/>
<path d="M175.765 38.1591C177.637 37.0744 179.908 37.9065 181.843 38.3615C185.513 39.4922 190.66 38.0763 191.106 33.6947C191.57 29.6198 186.008 27.3487 184.23 31.4044L184.748 31.3366C178.982 22.7492 168.953 23.0749 169.019 34.8811C168.998 35.2458 169.564 35.2446 169.585 34.8809C169.373 27.9236 173.967 23.1679 180.462 27.6389C181.912 28.7769 183.191 30.1188 184.259 31.6231C184.935 32.3828 185.082 29.1113 188.319 29.9682C191.882 31.3514 190.72 36.464 187.535 37.5863C183.601 39.6009 179.34 35.695 175.479 37.6687C175.417 37.708 175.372 37.77 175.355 37.8416C175.337 37.9131 175.348 37.9887 175.385 38.0523C175.422 38.1159 175.483 38.1626 175.553 38.1825C175.624 38.2024 175.7 38.194 175.765 38.1591Z" fill="#2F2E41"/>
<path d="M181.021 60.7695C175.657 60.765 170.493 58.7344 166.557 55.0828C162.621 51.4312 160.203 46.4269 159.786 41.068C159.368 35.7091 160.982 30.3893 164.305 26.1698C167.627 21.9502 172.415 19.141 177.713 18.3023C183.01 17.4636 188.429 18.657 192.887 21.6447C197.346 24.6324 200.517 29.1946 201.768 34.4216C203.019 39.6485 202.258 45.156 199.637 49.8457C197.016 54.5354 192.728 58.0625 187.627 59.7237C185.494 60.419 183.264 60.772 181.021 60.7695ZM181.021 19.1399C177.024 19.1394 173.117 20.3266 169.794 22.5515C166.471 24.7764 163.881 27.9389 162.351 31.6393C160.821 35.3396 160.421 39.4114 161.2 43.3398C161.98 47.2682 163.904 50.8767 166.73 53.7088C169.556 56.541 173.157 58.4697 177.077 59.251C180.996 60.0322 185.059 59.6309 188.752 58.0979C192.444 56.5649 195.599 53.9689 197.819 50.6384C200.039 47.3079 201.224 43.3923 201.223 39.387C201.217 34.019 199.087 28.8726 195.299 25.0769C191.512 21.2811 186.377 19.146 181.021 19.1399Z" fill="#CCCCCC"/>
<path d="M241.042 39.5136L209.4 39.5136C208.736 39.5136 208.1 39.2493 207.63 38.7788C207.161 38.3084 206.897 37.6702 206.897 37.0049C206.897 36.3395 207.161 35.7014 207.63 35.2309C208.1 34.7604 208.736 34.4961 209.4 34.4961L241.042 34.4961C241.706 34.4961 242.343 34.7604 242.812 35.2309C243.282 35.7014 243.545 36.3395 243.545 37.0048C243.545 37.6702 243.282 38.3083 242.812 38.7788C242.343 39.2493 241.706 39.5136 241.042 39.5136Z" fill="#E6E6E6"/>
<path d="M251.368 47.9804L209.4 47.9804C209.071 47.9809 208.746 47.9163 208.441 47.7904C208.137 47.6645 207.861 47.4797 207.628 47.2467C207.396 47.0137 207.211 46.737 207.085 46.4325C206.959 46.1279 206.894 45.8014 206.894 45.4717C206.894 45.142 206.959 44.8155 207.085 44.5109C207.211 44.2063 207.396 43.9296 207.628 43.6966C207.861 43.4636 208.137 43.2789 208.441 43.153C208.746 43.0271 209.071 42.9625 209.4 42.9629L251.368 42.9629C252.032 42.9629 252.669 43.2272 253.138 43.6977C253.608 44.1682 253.872 44.8063 253.872 45.4717C253.872 46.137 253.608 46.7751 253.138 47.2456C252.669 47.7161 252.032 47.9804 251.368 47.9804Z" fill="#E6E6E6"/>
<path d="M240.996 80.455L162.189 80.4551C161.525 80.4543 160.889 80.1896 160.421 79.7192C159.952 79.2488 159.688 78.6112 159.688 77.9463C159.688 77.2815 159.952 76.6439 160.421 76.1735C160.889 75.7031 161.525 75.4384 162.189 75.4376L240.996 75.4375C241.66 75.4375 242.297 75.7018 242.766 76.1723C243.236 76.6428 243.499 77.2809 243.499 77.9463C243.499 78.6116 243.236 79.2497 242.766 79.7202C242.297 80.1907 241.66 80.455 240.996 80.455Z" fill="#E6E6E6"/>
<path d="M251.322 88.9223L162.189 88.9224C161.86 88.9228 161.534 88.8582 161.23 88.7323C160.926 88.6064 160.65 88.4217 160.417 88.1887C160.184 87.9557 159.999 87.679 159.873 87.3744C159.747 87.0698 159.683 86.7433 159.683 86.4136C159.683 86.0839 159.747 85.7574 159.873 85.4528C159.999 85.1483 160.184 84.8716 160.417 84.6386C160.65 84.4056 160.926 84.2208 161.23 84.0949C161.534 83.969 161.86 83.9044 162.189 83.9049L251.322 83.9048C251.986 83.9048 252.623 84.1691 253.092 84.6396C253.562 85.1101 253.826 85.7482 253.826 86.4135C253.826 87.0789 253.562 87.717 253.092 88.1875C252.623 88.658 251.986 88.9223 251.322 88.9223Z" fill="#E6E6E6"/>
<path d="M240.996 108.383L162.189 108.383C161.525 108.382 160.889 108.117 160.421 107.647C159.952 107.177 159.688 106.539 159.688 105.874C159.688 105.209 159.952 104.572 160.421 104.101C160.889 103.631 161.525 103.366 162.189 103.365L240.996 103.365C241.66 103.365 242.297 103.63 242.766 104.1C243.236 104.571 243.499 105.209 243.499 105.874C243.499 106.539 243.236 107.177 242.766 107.648C242.297 108.118 241.66 108.383 240.996 108.383Z" fill="#E6E6E6"/>
<path d="M251.322 116.85L162.189 116.85C161.86 116.85 161.534 116.786 161.23 116.66C160.926 116.534 160.65 116.349 160.417 116.116C160.184 115.883 159.999 115.606 159.873 115.302C159.747 114.997 159.683 114.671 159.683 114.341C159.683 114.011 159.747 113.685 159.873 113.38C159.999 113.076 160.184 112.799 160.417 112.566C160.65 112.333 160.926 112.148 161.23 112.022C161.534 111.897 161.86 111.832 162.189 111.832L251.322 111.832C251.986 111.832 252.623 112.097 253.092 112.567C253.562 113.038 253.826 113.676 253.826 114.341C253.826 115.006 253.562 115.645 253.092 116.115C252.623 116.585 251.986 116.85 251.322 116.85Z" fill="#E6E6E6"/>
<path d="M240.996 136.31L162.189 136.311C161.525 136.311 160.888 136.046 160.419 135.576C159.949 135.105 159.686 134.467 159.686 133.802C159.686 133.136 159.949 132.498 160.419 132.028C160.888 131.557 161.525 131.293 162.189 131.293L240.996 131.293C241.66 131.293 242.297 131.557 242.766 132.028C243.236 132.498 243.5 133.136 243.5 133.802C243.5 134.467 243.236 135.105 242.766 135.576C242.297 136.046 241.66 136.31 240.996 136.31Z" fill="#E6E6E6"/>
<path d="M251.322 144.778L162.189 144.778C161.525 144.778 160.888 144.513 160.419 144.043C159.949 143.572 159.686 142.934 159.686 142.269C159.686 141.603 159.949 140.965 160.419 140.495C160.888 140.024 161.525 139.76 162.189 139.76L251.322 139.76C251.986 139.76 252.623 140.024 253.092 140.495C253.562 140.965 253.825 141.603 253.825 142.269C253.825 142.934 253.562 143.572 253.092 144.043C252.623 144.513 251.986 144.778 251.322 144.778Z" fill="#E6E6E6"/>
<path d="M195.221 228.208H83.3984C81.9906 228.206 80.6409 227.645 79.6454 226.647C78.6499 225.65 78.09 224.297 78.0884 222.886V70.7475C78.09 69.3366 78.6499 67.9839 79.6454 66.9862C80.6409 65.9886 81.9906 65.4274 83.3984 65.4258H195.221C196.629 65.4274 197.979 65.9886 198.974 66.9862C199.97 67.9839 200.53 69.3366 200.531 70.7475V222.886C200.53 224.297 199.97 225.65 198.974 226.647C197.979 227.645 196.629 228.206 195.221 228.208Z" fill="white"/>
<path d="M92.7251 104.592C92.7215 107.332 93.2592 110.045 94.3072 112.576C95.3552 115.106 96.8928 117.403 98.8312 119.335C98.9936 119.496 99.1598 119.657 99.3277 119.814C100.34 120.761 101.444 121.605 102.624 122.332C102.851 122.472 103.078 122.607 103.31 122.737C104.503 123.411 105.761 123.965 107.063 124.389C107.288 124.463 107.516 124.533 107.745 124.597C111.886 125.788 116.293 125.663 120.361 124.242C120.44 124.213 120.52 124.185 120.597 124.156C124.168 122.854 127.314 120.596 129.693 117.626C132.072 114.656 133.592 111.09 134.089 107.314C134.585 103.538 134.039 99.6986 132.509 96.2127C130.979 92.7268 128.524 89.7283 125.412 87.5436C122.299 85.3589 118.648 84.0718 114.857 83.8223C111.065 83.5728 107.278 84.3706 103.907 86.1287C100.536 87.8868 97.7113 90.5379 95.7397 93.7934C93.7682 97.049 92.7254 100.784 92.7251 104.592Z" fill="white"/>
<path d="M109.108 114.795C109.118 116.407 108.525 117.965 107.446 119.161C106.378 120.336 104.788 121.115 103.184 120.793C101.706 120.496 100.506 119.202 100.656 117.636C100.681 117.297 100.779 116.968 100.944 116.671C101.109 116.374 101.336 116.116 101.611 115.916C101.885 115.716 102.2 115.579 102.533 115.513C102.866 115.448 103.209 115.456 103.538 115.537C104.942 115.902 105.501 117.929 104.331 118.88C104.051 119.109 103.648 118.709 103.931 118.479C104.105 118.319 104.237 118.117 104.314 117.893C104.391 117.669 104.41 117.429 104.371 117.195C104.331 116.961 104.233 116.741 104.087 116.555C103.94 116.368 103.75 116.222 103.532 116.129C103.275 116.046 103.003 116.024 102.736 116.062C102.469 116.101 102.215 116.2 101.992 116.352C101.768 116.503 101.583 116.704 101.448 116.938C101.314 117.173 101.235 117.435 101.216 117.704C101.124 119.024 102.133 120.018 103.37 120.252C104.708 120.505 106.035 119.818 106.942 118.871C107.981 117.771 108.554 116.31 108.542 114.795C108.544 114.721 108.575 114.651 108.628 114.6C108.681 114.549 108.751 114.52 108.825 114.52C108.898 114.52 108.969 114.549 109.022 114.6C109.075 114.651 109.106 114.721 109.108 114.795Z" fill="#2F2E41"/>
<path d="M114.639 118.404C120.22 118.404 124.744 113.869 124.744 108.276C124.744 102.683 120.22 98.1492 114.639 98.1492C109.058 98.1492 104.534 102.683 104.534 108.276C104.534 113.869 109.058 118.404 114.639 118.404Z" fill="#2A85FF"/>
<path d="M114.122 112.597L114.111 112.219C114.814 112.199 115.433 112.155 115.899 111.814C116.03 111.712 116.139 111.583 116.217 111.435C116.294 111.287 116.339 111.124 116.348 110.957C116.356 110.856 116.341 110.753 116.303 110.658C116.265 110.563 116.206 110.478 116.131 110.41C115.955 110.303 115.753 110.246 115.548 110.244C115.342 110.242 115.14 110.296 114.962 110.399L114.65 110.543L115.249 106.155L115.623 106.206L115.113 109.939C115.322 109.861 115.547 109.837 115.767 109.869C115.987 109.901 116.196 109.987 116.374 110.121C116.494 110.226 116.588 110.357 116.649 110.505C116.71 110.652 116.736 110.812 116.726 110.971C116.715 111.195 116.655 111.414 116.55 111.612C116.446 111.811 116.3 111.984 116.121 112.12C115.523 112.558 114.746 112.58 114.122 112.597Z" fill="#2F2E41"/>
<path d="M119.507 106.528H117.473V106.907H119.507V106.528Z" fill="#2F2E41"/>
<path d="M113.087 106.528H111.054V106.907H113.087V106.528Z" fill="#2F2E41"/>
<path d="M107.745 124.597C111.886 125.788 116.293 125.663 120.361 124.242C120.44 124.213 120.52 124.185 120.597 124.156C119.638 123.415 118.554 122.854 117.397 122.499C117.478 122.208 117.477 121.9 117.393 121.609C117.278 121.241 117.048 120.92 116.737 120.694C116.426 120.468 116.05 120.348 115.665 120.353H113.203C112.819 120.348 112.444 120.467 112.133 120.693C111.823 120.919 111.593 121.24 111.479 121.608C111.395 121.898 111.394 122.207 111.476 122.499C110.456 122.812 109.492 123.285 108.621 123.901C108.445 124.024 108.275 124.153 108.111 124.287C107.986 124.387 107.864 124.491 107.745 124.597Z" fill="#2F2E41"/>
<path d="M119.715 101.715C119.883 101.989 119.952 102.312 119.913 102.632C119.873 102.951 119.726 103.247 119.496 103.472C118.948 104.086 118.073 104.125 117.313 104.011C116.461 103.883 115.557 103.482 114.694 103.752C113.959 103.982 113.434 104.651 112.67 104.819C111.992 104.967 111.182 104.77 110.944 104.046C110.83 103.699 111.377 103.55 111.49 103.896C111.644 104.364 112.308 104.355 112.688 104.225C113.297 104.017 113.767 103.511 114.365 103.27C115.079 103.048 115.844 103.05 116.556 103.276C117.234 103.429 118.013 103.655 118.688 103.37C119.188 103.158 119.585 102.493 119.226 102.001C119.01 101.706 119.502 101.423 119.715 101.715Z" fill="#2F2E41"/>
<path d="M113.494 125.975C111.496 125.977 109.508 125.697 107.588 125.143C107.362 125.079 107.125 125.007 106.887 124.929C105.549 124.492 104.258 123.924 103.032 123.232C102.802 123.103 102.571 122.966 102.327 122.816C101.115 122.069 99.9808 121.202 98.9409 120.229C98.7693 120.068 98.5993 119.904 98.4331 119.739C95.1628 116.471 93.0388 112.228 92.3802 107.647C91.7216 103.066 92.564 98.395 94.7808 94.3349C96.9976 90.2748 100.469 87.0452 104.674 85.1313C108.879 83.2174 113.589 82.7225 118.099 83.7211C122.608 84.7197 126.672 87.1577 129.681 90.669C132.689 94.1802 134.48 98.5751 134.783 103.193C135.087 107.812 133.887 112.404 131.364 116.28C128.84 120.156 125.13 123.108 120.791 124.69C120.713 124.719 120.632 124.748 120.552 124.776C118.283 125.572 115.897 125.978 113.494 125.975ZM113.494 84.3455C109.496 84.3456 105.587 85.5349 102.263 87.7626C98.9397 89.9903 96.3504 93.1564 94.8232 96.8598C93.296 100.563 92.8996 104.638 93.6843 108.567C94.4689 112.496 96.3993 116.104 99.231 118.933C99.3877 119.088 99.55 119.245 99.714 119.399C100.699 120.321 101.773 121.141 102.921 121.849C103.152 121.992 103.37 122.12 103.587 122.242C104.748 122.898 105.971 123.436 107.238 123.849C107.462 123.923 107.684 123.991 107.898 124.051C111.927 125.21 116.216 125.089 120.174 123.706L120.403 123.623C124.866 121.995 128.615 118.843 130.99 114.72C133.365 110.597 134.214 105.768 133.39 101.08C132.565 96.3916 130.119 92.1444 126.48 89.0841C122.842 86.0238 118.244 84.3461 113.494 84.3455Z" fill="#CCCCCC"/>
<path d="M195.221 228.208H83.3984C81.9906 228.206 80.6409 227.645 79.6454 226.647C78.6499 225.65 78.09 224.297 78.0884 222.886V70.7475C78.09 69.3366 78.6499 67.9839 79.6454 66.9862C80.6409 65.9886 81.9906 65.4274 83.3984 65.4258H195.221C196.629 65.4274 197.979 65.9886 198.974 66.9862C199.97 67.9839 200.53 69.3366 200.531 70.7475V222.886C200.53 224.297 199.97 225.65 198.974 226.647C197.979 227.645 196.629 228.206 195.221 228.208ZM83.3984 66.0519C82.1562 66.0533 80.9653 66.5484 80.0869 67.4287C79.2086 68.309 78.7145 69.5026 78.7131 70.7475V222.886C78.7145 224.131 79.2086 225.325 80.0869 226.205C80.9653 227.085 82.1562 227.58 83.3984 227.582H195.221C196.463 227.58 197.654 227.085 198.533 226.205C199.411 225.325 199.905 224.131 199.907 222.886V70.7475C199.905 69.5026 199.411 68.309 198.533 67.4287C197.654 66.5484 196.463 66.0533 195.221 66.0519H83.3984Z" fill="#3F3D56"/>
<path d="M173.574 104.939H141.932C141.268 104.939 140.631 104.675 140.162 104.205C139.692 103.734 139.429 103.096 139.429 102.431C139.429 101.765 139.692 101.127 140.162 100.657C140.631 100.186 141.268 99.9219 141.932 99.9219H173.574C174.238 99.9219 174.875 100.186 175.344 100.657C175.813 101.127 176.077 101.765 176.077 102.431C176.077 103.096 175.813 103.734 175.344 104.205C174.875 104.675 174.238 104.939 173.574 104.939Z" fill="#2A85FF"/>
<path d="M183.9 113.406H141.932C141.268 113.406 140.631 113.142 140.162 112.672C139.692 112.201 139.429 111.563 139.429 110.898C139.429 110.232 139.692 109.594 140.162 109.124C140.631 108.653 141.268 108.389 141.932 108.389H183.9C184.564 108.389 185.2 108.653 185.67 109.124C186.139 109.594 186.403 110.232 186.403 110.898C186.403 111.563 186.139 112.201 185.67 112.672C185.2 113.142 184.564 113.406 183.9 113.406Z" fill="#2A85FF"/>
<path d="M173.528 145.881H94.72C94.0561 145.881 93.4194 145.617 92.95 145.146C92.4805 144.676 92.2168 144.038 92.2168 143.372C92.2168 142.707 92.4805 142.069 92.95 141.598C93.4194 141.128 94.0561 140.864 94.72 140.864H173.528C174.191 140.864 174.828 141.128 175.298 141.598C175.767 142.069 176.031 142.707 176.031 143.372C176.031 144.038 175.767 144.676 175.298 145.146C174.828 145.617 174.191 145.881 173.528 145.881Z" fill="#CCCCCC"/>
<path d="M183.853 154.348H94.72C94.0561 154.348 93.4194 154.084 92.95 153.613C92.4805 153.143 92.2168 152.505 92.2168 151.839C92.2168 151.174 92.4805 150.536 92.95 150.065C93.4194 149.595 94.0561 149.331 94.72 149.331H183.853C184.517 149.331 185.154 149.595 185.623 150.065C186.093 150.536 186.357 151.174 186.357 151.839C186.357 152.505 186.093 153.143 185.623 153.613C185.154 154.084 184.517 154.348 183.853 154.348Z" fill="#CCCCCC"/>
<path d="M173.528 173.809H94.7204C94.057 173.808 93.4211 173.543 92.9523 173.073C92.4835 172.602 92.2202 171.965 92.2202 171.3C92.2202 170.635 92.4835 169.998 92.9523 169.527C93.4211 169.057 94.057 168.792 94.7204 168.791H173.528C174.192 168.791 174.828 169.056 175.298 169.526C175.767 169.997 176.031 170.635 176.031 171.3C176.031 171.965 175.767 172.604 175.298 173.074C174.828 173.544 174.192 173.809 173.528 173.809Z" fill="#CCCCCC"/>
<path d="M183.854 182.276H94.7204C94.057 182.275 93.4211 182.01 92.9523 181.54C92.4835 181.07 92.2202 180.432 92.2202 179.767C92.2202 179.102 92.4835 178.465 92.9523 177.994C93.4211 177.524 94.057 177.259 94.7204 177.258H183.854C184.518 177.258 185.154 177.523 185.624 177.993C186.093 178.464 186.357 179.102 186.357 179.767C186.357 180.432 186.093 181.071 185.624 181.541C185.154 182.012 184.518 182.276 183.854 182.276Z" fill="#CCCCCC"/>
<path d="M173.528 201.736H94.72C94.0561 201.736 93.4194 201.472 92.95 201.001C92.4805 200.531 92.2168 199.893 92.2168 199.228C92.2168 198.562 92.4805 197.924 92.95 197.454C93.4194 196.983 94.0561 196.719 94.72 196.719H173.528C174.191 196.719 174.828 196.983 175.298 197.454C175.767 197.924 176.031 198.562 176.031 199.228C176.031 199.893 175.767 200.531 175.298 201.001C174.828 201.472 174.191 201.736 173.528 201.736Z" fill="#CCCCCC"/>
<path d="M183.853 210.203H94.72C94.0561 210.203 93.4194 209.939 92.95 209.469C92.4805 208.998 92.2168 208.36 92.2168 207.695C92.2168 207.029 92.4805 206.391 92.95 205.921C93.4194 205.45 94.0561 205.186 94.72 205.186H183.853C184.517 205.186 185.154 205.45 185.623 205.921C186.093 206.391 186.357 207.029 186.357 207.695C186.357 208.36 186.093 208.998 185.623 209.469C185.154 209.939 184.517 210.203 183.853 210.203Z" fill="#CCCCCC"/>
<path d="M193.924 193.565C190.683 193.561 187.473 194.198 184.477 195.438C181.482 196.679 178.76 198.499 176.466 200.795C174.173 203.09 172.354 205.816 171.113 208.817C169.872 211.818 169.233 215.034 169.233 218.282C169.233 221.531 169.872 224.747 171.113 227.748C172.354 230.748 174.173 233.474 176.466 235.77C178.759 238.066 181.482 239.886 184.477 241.126C187.472 242.367 190.682 243.004 193.924 243C200.457 242.988 206.719 240.379 211.335 235.745C215.951 231.111 218.544 224.83 218.544 218.282C218.544 211.734 215.951 205.454 211.335 200.82C206.719 196.186 200.457 193.576 193.924 193.565Z" fill="#2A85FF"/>
<path d="M191.584 228.548C190.934 228.549 190.302 228.338 189.783 227.948L189.751 227.924L182.968 222.724C182.335 222.236 181.92 221.516 181.816 220.723C181.712 219.929 181.926 219.126 182.412 218.49C182.898 217.855 183.616 217.439 184.408 217.334C185.2 217.229 186.001 217.443 186.636 217.929L191.029 221.306L201.41 207.732C201.651 207.418 201.951 207.154 202.294 206.955C202.636 206.757 203.014 206.628 203.407 206.576C203.799 206.524 204.197 206.55 204.58 206.653C204.962 206.755 205.32 206.932 205.634 207.173L205.635 207.174L205.571 207.264L205.637 207.174C206.27 207.662 206.685 208.382 206.789 209.175C206.894 209.969 206.68 210.772 206.194 211.408L193.984 227.366C193.701 227.734 193.338 228.031 192.922 228.236C192.506 228.44 192.049 228.545 191.586 228.544L191.584 228.548Z" fill="white"/>
</g>
<defs>
<clipPath id="clip0_94_2679">
<rect width="268" height="243" fill="white"/>
</clipPath>
</defs>
</svg>
