<svg width="315" height="243" viewBox="0 0 315 243" fill="none" xmlns="http://www.w3.org/2000/svg">
<g clip-path="url(#clip0_94_8342)">
<path d="M75.6257 131.751C73.1117 118.574 77.0698 103.583 88.0708 95.6063C87.4473 110.171 92.1044 124.483 101.218 136.009C104.749 140.441 109.148 145.012 109.011 150.632C108.927 154.129 106.995 157.387 104.45 159.842C101.905 162.296 98.77 164.066 95.6724 165.808L95.1902 166.543C86.1098 156.512 78.1397 144.928 75.6257 131.751Z" fill="#F0F0F0"/>
<path d="M88.2713 95.8078C83.6494 105.938 82.4043 117.237 84.7128 128.1C85.1674 130.448 85.9969 132.71 87.1708 134.804C88.3817 136.808 90.1183 138.458 92.2004 139.582C94.1202 140.668 96.2124 141.562 97.8292 143.086C98.6449 143.879 99.2804 144.831 99.694 145.881C100.108 146.931 100.29 148.054 100.229 149.178C100.151 151.982 99.05 154.591 97.8824 157.106C96.5859 159.898 95.1942 162.778 95.2782 165.918C95.2884 166.298 94.6852 166.291 94.675 165.912C94.5287 160.45 98.5608 156.063 99.4592 150.822C99.8785 148.376 99.5477 145.792 97.7921 143.897C96.257 142.239 94.1003 141.316 92.1467 140.232C90.0992 139.165 88.3497 137.622 87.0511 135.74C85.7721 133.711 84.855 131.484 84.339 129.154C83.0919 123.926 82.6919 118.538 83.1536 113.188C83.6461 107.08 85.2018 101.099 87.7536 95.5042C87.9117 95.158 88.4284 95.4638 88.2713 95.8078Z" fill="white"/>
<path d="M83.7588 124.645C81.8453 124.777 79.9461 124.239 78.4006 123.126C76.855 122.013 75.7637 120.398 75.3215 118.57C75.2334 118.2 75.8166 118.049 75.9049 118.419C76.3135 120.122 77.3302 121.626 78.7716 122.66C80.2129 123.693 81.984 124.188 83.7652 124.055C84.1522 124.026 84.1437 124.617 83.7588 124.645Z" fill="white"/>
<path d="M91.1525 139.157C93.7502 136.28 95.1453 132.55 95.0595 128.71C95.0507 128.33 95.654 128.336 95.6628 128.716C95.7444 132.712 94.2845 136.591 91.5746 139.579C91.3161 139.863 90.8954 139.44 91.1525 139.157Z" fill="white"/>
<path d="M84.3527 107.447C85.1039 107.547 85.8688 107.463 86.5786 107.202C87.2884 106.941 87.9209 106.511 88.4193 105.952C88.6739 105.664 89.0944 106.088 88.8414 106.374C88.2878 106.989 87.5887 107.463 86.8051 107.753C86.0215 108.043 85.1773 108.141 84.3463 108.038C84.2672 108.034 84.1922 108.002 84.1368 107.946C84.0814 107.891 84.0496 107.817 84.0479 107.739C84.0491 107.661 84.0818 107.586 84.1389 107.532C84.1959 107.477 84.2728 107.446 84.3527 107.447Z" fill="white"/>
<path d="M133.059 106.506C132.905 106.69 132.751 106.874 132.599 107.063C130.544 109.548 128.699 112.193 127.081 114.97C126.953 115.183 126.826 115.401 126.704 115.617C122.879 122.35 120.365 129.72 119.288 137.352C118.862 140.389 118.673 143.454 118.722 146.519C118.79 150.753 119.208 155.338 117.883 159.232C117.749 159.639 117.59 160.038 117.406 160.427L96.1427 167.062C96.0866 167.053 96.0319 167.049 95.9756 167.041L95.139 167.343C95.1252 167.186 95.1144 167.021 95.1006 166.864C95.0922 166.772 95.0885 166.679 95.0801 166.587C95.076 166.526 95.0721 166.464 95.0648 166.409C95.0634 166.388 95.0622 166.368 95.0623 166.352C95.055 166.297 95.0542 166.245 95.0485 166.194C94.9852 165.277 94.9267 164.359 94.8782 163.437C94.8766 163.432 94.8766 163.432 94.8798 163.426C94.5148 156.407 94.745 149.296 96.0699 142.446C96.1098 142.24 96.148 142.029 96.1976 141.82C96.8123 138.735 97.6834 135.705 98.8022 132.759C99.4201 131.148 100.121 129.569 100.902 128.027C102.928 124.048 105.58 120.405 108.761 117.233C115.105 110.91 123.442 106.644 132.376 106.51C132.605 106.506 132.829 106.504 133.059 106.506Z" fill="#F0F0F0"/>
<path d="M133.097 106.785C123.179 112.148 115.238 120.436 110.403 130.471C109.323 132.613 108.595 134.908 108.245 137.273C107.98 139.587 108.352 141.928 109.323 144.053C110.188 146.052 111.309 148 111.663 150.17C111.827 151.284 111.749 152.419 111.434 153.501C111.119 154.583 110.574 155.588 109.834 156.449C108.049 158.642 105.565 160.076 103.087 161.395C100.335 162.86 97.4534 164.339 95.5905 166.896C95.3648 167.205 94.8873 166.844 95.1127 166.535C98.3537 162.088 104.27 160.963 108.209 157.308C110.047 155.602 111.372 153.344 111.135 150.795C110.929 148.567 109.774 146.558 108.881 144.541C107.902 142.481 107.453 140.218 107.574 137.949C107.8 135.575 108.437 133.256 109.457 131.091C111.676 126.182 114.668 121.644 118.326 117.645C122.474 113.058 127.393 109.2 132.87 106.237C133.209 106.054 133.434 106.603 133.097 106.785Z" fill="white"/>
<path d="M111.766 127.15C110.157 126.127 108.972 124.577 108.422 122.777C107.872 120.977 107.993 119.045 108.764 117.324C108.921 116.977 109.48 117.2 109.323 117.548C108.602 119.148 108.489 120.949 109.005 122.624C109.52 124.299 110.63 125.738 112.134 126.682C112.461 126.887 112.091 127.354 111.766 127.15Z" fill="white"/>
<path d="M108.748 143.096C112.591 142.331 115.998 140.175 118.29 137.059C118.517 136.75 118.994 137.111 118.768 137.419C116.377 140.658 112.827 142.894 108.826 143.682C108.445 143.757 108.369 143.17 108.748 143.096Z" fill="white"/>
<path d="M122.813 113.768C123.351 114.291 124.014 114.674 124.741 114.884C125.468 115.095 126.237 115.124 126.979 114.972C127.359 114.892 127.434 115.479 127.057 115.557C126.236 115.723 125.387 115.689 124.583 115.458C123.779 115.228 123.045 114.808 122.445 114.236C122.384 114.186 122.344 114.116 122.334 114.039C122.323 113.962 122.344 113.884 122.39 113.821C122.439 113.76 122.511 113.719 122.59 113.709C122.669 113.699 122.749 113.72 122.813 113.768Z" fill="white"/>
<path d="M166.459 34.4479C166.53 34.7546 166.576 35.0663 166.597 35.3801L191.528 49.4654L197.587 46.049L204.047 54.3313L193.92 61.4004C193.102 61.9715 192.117 62.2673 191.112 62.2433C190.108 62.2193 189.138 61.8769 188.35 61.2675L162.642 41.4055C161.482 41.8261 160.219 41.8908 159.02 41.591C157.821 41.2912 156.744 40.6411 155.932 39.7272C155.12 38.8133 154.611 37.6789 154.473 36.4749C154.336 35.2709 154.575 34.0543 155.161 32.987C155.746 31.9197 156.65 31.0522 157.751 30.5C158.852 29.9477 160.099 29.7369 161.325 29.8955C162.551 30.0541 163.7 30.5746 164.617 31.3878C165.534 32.201 166.176 33.2684 166.459 34.4479Z" fill="#FFB6B6"/>
<path d="M191.874 47.9103C191.953 47.551 192.11 47.2126 192.335 46.9183C192.559 46.624 192.846 46.3806 193.176 46.2048L204.686 40.0631C206.219 38.9302 208.148 38.4387 210.05 38.6967C211.952 38.9546 213.672 39.9407 214.833 41.4389C215.994 42.937 216.5 44.8249 216.242 46.6884C215.984 48.552 214.981 50.2391 213.454 51.3798L204.23 60.5577C203.966 60.8197 203.648 61.0229 203.298 61.1537C202.947 61.2844 202.572 61.3397 202.197 61.3155C201.823 61.2914 201.458 61.1885 201.128 61.0139C200.797 60.8392 200.51 60.597 200.284 60.3035L192.341 49.9905C192.115 49.6971 191.956 49.3594 191.875 49.0004C191.795 48.6414 191.794 48.2695 191.874 47.9103Z" fill="#3F3D56"/>
<path d="M212.437 12.2046C214.093 7.0358 217.858 2.29521 223.067 0.547885C228.275 -1.19943 235.901 1.4623 239.817 5.28406C246.979 12.2748 248.727 36.2906 243.806 43.8798C242.828 43.8291 239.45 43.7916 238.46 43.7552L237.058 39.181V43.7101C229.326 43.4761 221.276 43.6227 213.222 43.7742C212.5 38.4009 210.78 17.3733 212.437 12.2046Z" fill="#2F2E41"/>
<path d="M210.221 229.162H203.168L199.813 202.521L210.222 202.521L210.221 229.162Z" fill="#FFB6B6"/>
<path d="M271.957 224.867L265.133 226.609L255.025 201.658L265.097 199.088L271.957 224.867Z" fill="#FFB6B6"/>
<path d="M233.092 65.5378L234.691 69.6067L234.371 73.6756L203.097 84.2842L204.649 66.4768L208.164 62.4073L233.092 65.5378Z" fill="#FFB6B6"/>
<path d="M223.204 28.9209C229.373 28.9209 234.374 24.0232 234.374 17.9816C234.374 11.94 229.373 7.04224 223.204 7.04224C217.035 7.04224 212.034 11.94 212.034 17.9816C212.034 24.0232 217.035 28.9209 223.204 28.9209Z" fill="#FFB7B7"/>
<path d="M215.529 3.73662C217.676 2.45521 220.134 1.76204 222.647 1.72959C225.161 1.69714 227.637 2.32659 229.817 3.55215C231.997 4.77771 233.801 6.55435 235.04 8.6963C236.279 10.8383 236.907 13.2668 236.86 15.7281C230.771 17.2522 224.282 17.8897 217.406 16.0952L215.835 12.3278L214.908 16.098C212.804 17.5472 210.774 17.5446 208.817 16.0902C208.734 13.6358 209.31 11.2031 210.488 9.03525C211.666 6.86738 213.404 5.0403 215.529 3.73662Z" fill="#2F2E41"/>
<path d="M213.375 242.276H208.371L207.478 237.649L205.19 242.276H191.917C191.281 242.276 190.662 242.077 190.149 241.708C189.637 241.339 189.258 240.819 189.069 240.224C188.879 239.629 188.889 238.991 189.097 238.402C189.304 237.813 189.698 237.304 190.222 236.95L200.821 229.781V225.103L211.97 225.755L213.375 242.276Z" fill="#2F2E41"/>
<path d="M279.006 236.62L274.164 237.856L272.108 233.6L271.086 238.642L258.242 241.921C257.627 242.078 256.976 242.038 256.385 241.808C255.794 241.577 255.294 241.167 254.957 240.639C254.621 240.11 254.466 239.489 254.515 238.868C254.564 238.247 254.814 237.657 255.23 237.185L263.64 227.63L262.435 223.103L273.391 220.98L279.006 236.62Z" fill="#2F2E41"/>
<path d="M271.092 208.113L250.42 166.503L243.93 115.858C248.404 107.72 240.095 91.1608 240.095 91.1608V84.2083L207.906 90.1554C201.322 107.742 198.13 126.372 198.491 145.099L199.788 212.421H199.381C198.706 212.421 198.058 212.684 197.581 213.151C197.103 213.619 196.835 214.253 196.835 214.914C196.835 215.575 197.103 216.209 197.581 216.677C198.058 217.145 198.706 217.407 199.381 217.407H212.11C212.785 217.407 213.432 217.145 213.91 216.677C214.387 216.209 214.655 215.575 214.655 214.914C214.655 214.253 214.387 213.619 213.91 213.151C213.432 212.684 212.785 212.421 212.11 212.421H211.781L220.919 126.776L231.544 169.04L257.22 207.953C256.566 208.003 255.956 208.3 255.519 208.781C255.083 209.262 254.854 209.89 254.88 210.532C254.907 211.175 255.187 211.783 255.661 212.228C256.135 212.673 256.767 212.921 257.424 212.92H270.153C270.745 212.92 271.319 212.718 271.775 212.349C272.232 211.98 272.542 211.466 272.653 210.897C272.765 210.327 272.669 209.738 272.384 209.23C272.099 208.721 271.642 208.327 271.092 208.113Z" fill="#2F2E41"/>
<path d="M243.005 95.4233C242.9 95.0164 242.665 94.6528 242.335 94.3845C242.005 94.1163 241.598 93.9571 241.17 93.9299C240.745 89.1792 237.942 58.7116 237.835 57.8177L237.831 57.7799L237.019 40.7974C236.99 40.1806 236.73 39.5961 236.288 39.1554C235.846 38.7148 235.254 38.449 234.625 38.4087L230.338 38.1342C230.279 38.1323 230.223 38.1081 230.182 38.0666C230.141 38.0252 230.119 37.9698 230.118 37.9122C230.119 37.4485 230.025 36.9893 229.844 36.5609C229.663 36.1325 229.397 35.7432 229.062 35.4153C228.728 35.0875 228.33 34.8274 227.893 34.6499C227.455 34.4724 226.986 34.3811 226.513 34.3811H213.819C212.997 34.3814 212.203 34.6756 211.587 35.2085C210.97 35.7413 210.574 36.4762 210.471 37.2751C210.466 37.3301 210.439 37.381 210.397 37.4177C210.354 37.4543 210.3 37.4739 210.243 37.4727L210.242 37.4726C208.799 37.4435 207.394 37.9218 206.281 38.8206C205.168 39.7194 204.421 40.9792 204.175 42.3714C202.439 52.26 198.962 74.7032 200.681 87.1804C201.28 91.5239 201.008 98.0565 200.781 101.691C200.759 102.042 200.807 102.394 200.924 102.727C201.041 103.06 201.223 103.367 201.461 103.63C200.955 103.773 200.525 104.103 200.263 104.55C200 104.997 199.925 105.527 200.053 106.028C200.185 106.54 200.52 106.981 200.983 107.252C201.447 107.524 202.002 107.603 202.525 107.474L241.528 97.8448C242.052 97.7155 242.502 97.3878 242.779 96.9336C243.056 96.4795 243.137 95.9362 243.005 95.4233Z" fill="#3F3D56"/>
<path d="M178.544 166.82C178.536 165.705 178.126 164.628 177.386 163.781C176.645 162.934 175.622 162.371 174.498 162.192L105.348 151.071C104.685 150.964 104.006 150.993 103.355 151.158L87.1496 155.262L77.8512 157.619L60.6915 161.963C59.6556 162.227 58.7383 162.82 58.0834 163.649C57.4285 164.478 57.073 165.496 57.0728 166.544V237.508C57.0779 238.59 57.4596 239.637 58.1549 240.478C58.8501 241.319 59.8173 241.902 60.8968 242.132L131.331 241.351C131.662 241.421 131.999 241.455 132.337 241.453C132.83 241.454 133.32 241.381 133.791 241.237L175.637 242.256C176.625 241.955 177.487 241.349 178.095 240.529C178.704 239.71 179.026 238.72 179.015 237.707L178.544 166.82Z" fill="white"/>
<path d="M178.544 166.82C178.536 165.705 178.126 164.628 177.386 163.781C176.645 162.934 175.622 162.371 174.498 162.192L105.348 151.071C104.685 150.964 104.006 150.993 103.355 151.158L87.1496 155.262L77.8512 157.619L60.6915 161.963C59.6556 162.227 58.7383 162.82 58.0834 163.649C57.4285 164.478 57.073 165.496 57.0728 166.544V237.508C57.0779 238.59 57.4596 239.638 58.1549 240.478C58.8501 241.319 59.8173 241.902 60.8968 242.132L131.331 241.351C131.662 241.421 131.999 241.455 132.337 241.453C132.83 241.454 133.32 241.381 133.791 241.237L175.637 242.256C176.625 241.955 177.487 241.349 178.095 240.53C178.704 239.71 179.026 238.72 179.015 237.707L178.544 166.82ZM175.275 241.129L133.428 242.104C132.831 242.286 132.197 242.316 131.585 242.19L61.1464 240.977C60.337 240.804 59.612 240.366 59.091 239.736C58.5699 239.105 58.284 238.319 58.2803 237.508V166.544C58.2809 165.818 58.5088 165.109 58.9335 164.513C59.3581 163.918 59.9591 163.464 60.6553 163.213C60.7658 163.172 60.8787 163.138 60.9934 163.111L79.1474 158.514L89.8828 155.794L103.657 152.305C103.953 152.228 104.257 152.189 104.563 152.191C104.76 152.191 104.956 152.206 105.151 152.238L174.301 163.359C174.857 163.448 175.385 163.663 175.842 163.987C176.299 164.311 176.673 164.734 176.934 165.224C177.195 165.72 177.333 166.27 177.336 166.828L177.807 237.715C177.816 238.475 177.574 239.217 177.118 239.832C176.662 240.447 176.016 240.902 175.275 241.129Z" fill="#CCCCCC"/>
<path d="M176.934 165.224C176.887 165.254 176.835 165.276 176.781 165.291L156.441 170.676L150.109 172.351L132.1 177.117C132.049 177.13 131.996 177.136 131.943 177.137C131.907 177.136 131.87 177.134 131.834 177.129L59.2182 164.163L58.9767 164.12C58.8194 164.091 58.6802 164.002 58.5895 163.873C58.4988 163.744 58.464 163.585 58.4927 163.43C58.5215 163.276 58.6114 163.139 58.7428 163.05C58.8742 162.961 59.0365 162.926 59.1941 162.953L60.6553 163.213L131.919 175.938L147.44 171.831L156.123 169.532L176.149 164.23L176.467 164.147C176.604 164.112 176.75 164.125 176.879 164.184C177.007 164.243 177.111 164.344 177.171 164.471C177.187 164.501 177.199 164.533 177.207 164.565C177.24 164.689 177.232 164.82 177.182 164.939C177.133 165.058 177.046 165.158 176.934 165.224Z" fill="#CCCCCC"/>
<path d="M132.546 241.591C132.215 241.591 131.946 241.33 131.943 243L131.339 178.545C131.336 176.224 131.604 175.957 131.937 175.954H131.943C132.274 175.954 132.543 176.215 132.546 178.535L133.15 242.989C133.153 241.321 132.885 241.588 132.552 241.591H132.546Z" fill="#CCCCCC"/>
<path d="M156.612 242.339L150.109 242.407L147.44 171.831L79.3445 158.561C79.2777 158.55 79.2119 158.534 79.1472 158.514C78.6241 158.368 78.1671 158.053 77.8511 157.619L87.1495 155.262L89.8826 155.794L154.496 168.381C154.836 168.447 155.157 168.584 155.438 168.783C155.719 168.981 155.952 169.237 156.123 169.532C156.324 169.875 156.608 241.929 156.612 242.339Z" fill="#CCCCCC"/>
<path d="M208.7 37.6421C208.694 36.8016 208.385 35.9902 207.827 35.3518C207.269 34.7133 206.498 34.289 205.651 34.1541L153.536 25.7729C153.036 25.6918 152.524 25.7141 152.034 25.8382L139.82 28.9311L132.813 30.7077L119.88 33.9818C119.099 34.1804 118.408 34.6271 117.915 35.2519C117.421 35.8767 117.153 36.6442 117.153 37.4341V79.2663C117.157 80.0816 117.444 80.8713 117.968 81.5049C118.492 82.1385 119.221 82.5782 120.035 82.7513L173.118 93.8125C173.367 93.865 173.621 93.8908 173.876 93.8897C174.248 93.8904 174.617 93.8353 174.971 93.7263L206.509 83.9724C207.254 83.745 207.903 83.2886 208.362 82.6709C208.82 82.0533 209.063 81.3074 209.055 80.5438L208.7 37.6421Z" fill="white"/>
<path d="M152.945 28.8448C152.907 28.8448 152.869 28.8496 152.832 28.8591L120.678 37.0027C120.581 37.0274 120.495 37.0832 120.433 37.1612C120.371 37.2391 120.338 37.335 120.338 37.4336V79.2651C120.338 79.367 120.374 79.4657 120.44 79.5449C120.505 79.624 120.596 79.679 120.698 79.7006L173.781 90.7616C173.858 90.7774 173.937 90.7736 174.012 90.7506L205.551 80.9969C205.644 80.9686 205.725 80.9115 205.782 80.8344C205.839 80.7572 205.87 80.664 205.868 80.5687L205.515 37.6671C205.514 37.5622 205.475 37.4609 205.406 37.3812C205.336 37.3015 205.24 37.2485 205.134 37.2317L153.019 28.8506C152.994 28.8468 152.97 28.8449 152.945 28.8448Z" fill="#2A85FF"/>
<path d="M208.7 37.6421C208.694 36.8016 208.385 35.9902 207.827 35.3518C207.269 34.7133 206.498 34.289 205.651 34.1541L153.536 25.7729C153.036 25.6918 152.524 25.7141 152.034 25.8382L139.82 28.9311L132.813 30.7077L119.88 33.9818C119.099 34.1804 118.408 34.6271 117.915 35.2519C117.421 35.8767 117.153 36.6442 117.153 37.4341V79.2663C117.157 80.0816 117.444 80.8713 117.968 81.5049C118.492 82.1385 119.221 82.5782 120.035 82.7513L173.118 93.8125C173.367 93.865 173.621 93.8908 173.876 93.8897C174.248 93.8904 174.617 93.8353 174.971 93.7263L206.509 83.9724C207.254 83.745 207.903 83.2886 208.362 82.6709C208.82 82.0533 209.063 81.3074 209.055 80.5438L208.7 37.6421ZM206.236 83.1227L174.698 92.8766C174.249 93.0138 173.77 93.0363 173.309 92.942L120.223 81.8808C119.613 81.7506 119.067 81.4206 118.674 80.9453C118.281 80.4699 118.066 79.8777 118.063 79.2663V37.4342C118.063 36.8867 118.235 36.3525 118.555 35.9035C118.875 35.4546 119.328 35.1126 119.853 34.9236C119.936 34.893 120.021 34.8672 120.108 34.8464L133.789 31.3822L141.88 29.3322L152.261 26.7028C152.484 26.6446 152.714 26.6156 152.944 26.6166C153.092 26.6166 153.241 26.6285 153.387 26.6523L205.502 35.0336C205.922 35.101 206.319 35.263 206.664 35.507C207.008 35.7509 207.29 36.0699 207.486 36.4389C207.683 36.813 207.787 37.2273 207.79 37.6481L208.145 80.5498C208.151 81.1226 207.969 81.6822 207.625 82.1456C207.282 82.609 206.795 82.9517 206.236 83.1227Z" fill="#3F3D56"/>
<path d="M207.486 36.439C207.451 36.4617 207.412 36.4788 207.371 36.4894L192.042 40.5479L187.27 41.8106L173.697 45.4025C173.659 45.4119 173.619 45.4168 173.579 45.4174C173.552 45.4169 173.524 45.4149 173.497 45.4114L118.77 35.6397L118.588 35.607C118.469 35.5853 118.364 35.5184 118.296 35.4211C118.227 35.3237 118.201 35.2037 118.223 35.0875C118.244 34.9712 118.312 34.868 118.411 34.8006C118.51 34.7331 118.633 34.7069 118.752 34.7276L119.853 34.9237L173.561 44.5142L185.259 41.4184L191.802 39.6862L206.895 35.6902L207.134 35.6278C207.238 35.6011 207.348 35.6108 207.445 35.6553C207.542 35.6999 207.62 35.7763 207.665 35.8714C207.677 35.8942 207.686 35.9181 207.693 35.9427C207.718 36.0362 207.711 36.135 207.674 36.2245C207.637 36.3139 207.571 36.3892 207.486 36.439Z" fill="#3F3D56"/>
<path d="M174.034 93.9937C173.914 93.9937 173.799 93.9473 173.714 93.8646C173.629 93.7819 173.58 93.6696 173.579 93.5521L173.124 44.9757C173.123 44.8575 173.17 44.7438 173.254 44.6594C173.339 44.5751 173.454 44.5271 173.575 44.526H173.579C173.699 44.526 173.814 44.5724 173.899 44.6551C173.985 44.7378 174.033 44.8501 174.034 44.9676L174.489 93.544C174.49 93.6622 174.443 93.776 174.359 93.8603C174.274 93.9446 174.159 93.9926 174.038 93.9937H174.034Z" fill="#3F3D56"/>
<path d="M192.042 88.0843L187.27 89.347L185.259 41.4183L133.938 31.4178C133.888 31.409 133.838 31.3971 133.789 31.3821C133.395 31.2722 133.051 31.0344 132.812 30.7077L139.82 28.931L141.88 29.3321L190.577 38.8186C190.833 38.8682 191.075 38.9713 191.286 39.1211C191.498 39.2708 191.674 39.4636 191.802 39.6862C191.954 39.9446 192.039 87.7754 192.042 88.0843Z" fill="#3F3D56"/>
<path d="M189.904 60.7574C190.148 60.9619 190.375 61.1848 190.583 61.4242L219.17 58.1545L221.951 51.8715L232.181 54.7413L228.363 66.3327C228.055 67.2691 227.444 68.0823 226.624 68.6501C225.803 69.2179 224.817 69.5098 223.813 69.4818L191.082 68.5706C190.407 69.5862 189.433 70.3765 188.288 70.8366C187.144 71.2966 185.884 71.4045 184.675 71.1459C183.466 70.8873 182.367 70.2745 181.523 69.389C180.678 68.5034 180.129 67.3872 179.949 66.1886C179.768 64.99 179.964 63.766 180.511 62.6793C181.058 61.5926 181.93 60.6947 183.011 60.1051C184.091 59.5155 185.33 59.2622 186.561 59.3787C187.793 59.4952 188.959 59.9761 189.904 60.7574Z" fill="#FFB6B6"/>
<path d="M218.501 56.7044C218.345 56.3699 218.265 56.0065 218.266 55.6389C218.267 55.2714 218.349 54.9084 218.506 54.5747L223.999 42.9193C224.539 41.1145 225.787 39.5929 227.47 38.6882C229.154 37.7835 231.135 37.5694 232.979 38.093C234.823 38.6166 236.38 39.835 237.308 41.4812C238.237 43.1274 238.461 45.0669 237.931 46.8745L236.122 59.6305C236.071 59.9946 235.939 60.3434 235.738 60.6534C235.536 60.9633 235.268 61.227 234.953 61.4265C234.638 61.626 234.283 61.7567 233.911 61.8096C233.54 61.8624 233.161 61.8363 232.801 61.733L220.143 58.1002C219.783 57.997 219.45 57.8188 219.166 57.578C218.883 57.3371 218.656 57.0391 218.501 56.7044Z" fill="#3F3D56"/>
<path d="M314.394 242.859H0.606432C0.445951 242.858 0.292198 242.795 0.178885 242.684C0.0655727 242.573 0.00195312 242.422 0.00195312 242.265C0.00195312 242.108 0.0655727 241.957 0.178885 241.846C0.292198 241.734 0.445951 241.672 0.606432 241.671H314.394C314.555 241.671 314.709 241.734 314.823 241.845C314.936 241.956 315 242.107 315 242.265C315 242.422 314.936 242.573 314.823 242.685C314.709 242.796 314.555 242.859 314.394 242.859Z" fill="#CACACA"/>
<path d="M61.1556 179.772C71.2256 179.772 79.3889 171.777 79.3889 161.915C79.3889 152.053 71.2256 144.058 61.1556 144.058C51.0857 144.058 42.9224 152.053 42.9224 161.915C42.9224 171.777 51.0857 179.772 61.1556 179.772Z" fill="#2A85FF"/>
<path d="M58.6683 171.209C58.3535 171.209 58.0429 171.137 57.7613 170.999C57.4797 170.861 57.2348 170.661 57.0459 170.414L52.0716 163.918C51.7489 163.497 51.6103 162.967 51.6864 162.446C51.7625 161.924 52.047 161.454 52.4773 161.137C52.9077 160.821 53.4486 160.686 53.9811 160.76C54.5136 160.835 54.994 161.113 55.3167 161.535L58.5711 165.784L66.9295 153.505C67.0769 153.287 67.2667 153.1 67.4881 152.954C67.7095 152.808 67.9581 152.707 68.2197 152.655C68.4814 152.603 68.7508 152.603 69.0127 152.653C69.2745 152.704 69.5236 152.804 69.7457 152.949C69.9677 153.094 70.1584 153.281 70.3067 153.498C70.4551 153.715 70.5581 153.959 70.6101 154.216C70.662 154.472 70.6618 154.736 70.6094 154.992C70.557 155.248 70.4534 155.492 70.3047 155.709L60.3561 170.324C60.1761 170.588 59.9341 170.806 59.6502 170.96C59.3664 171.114 59.049 171.199 58.7248 171.208C58.706 171.208 58.6871 171.209 58.6683 171.209Z" fill="white"/>
<path d="M138.792 67.0674C138.735 67.0674 138.679 67.0612 138.624 67.0489L122.84 63.5584C122.642 63.5146 122.471 63.3958 122.363 63.2281C122.255 63.0605 122.219 62.8577 122.264 62.6644C122.308 62.471 122.429 62.3029 122.6 62.1969C122.772 62.0909 122.978 62.0557 123.176 62.099L138.96 65.5895C139.143 65.6301 139.305 65.7353 139.414 65.8852C139.523 66.035 139.571 66.219 139.551 66.4018C139.53 66.5847 139.441 66.7537 139.301 66.8765C139.161 66.9992 138.98 67.0672 138.792 67.0674Z" fill="white"/>
<path d="M78.047 207.552C77.9914 207.564 77.9348 207.569 77.8781 207.568L61.6993 207.301C61.497 207.297 61.3045 207.215 61.164 207.073C61.0235 206.93 60.9465 206.739 60.9498 206.541C60.9532 206.343 61.0366 206.154 61.1819 206.016C61.3272 205.878 61.5223 205.802 61.7246 205.805L77.9034 206.072C78.0913 206.075 78.2713 206.146 78.4092 206.271C78.5471 206.396 78.6332 206.566 78.6509 206.749C78.6687 206.933 78.6169 207.116 78.5055 207.264C78.3941 207.412 78.2308 207.515 78.047 207.552Z" fill="#E6E6E6"/>
<path d="M83.648 216.029C83.5925 216.04 83.5359 216.046 83.4792 216.045L67.3003 215.778C67.0981 215.774 66.9056 215.692 66.765 215.55C66.6245 215.407 66.5475 215.216 66.5509 215.018C66.5542 214.819 66.6377 214.631 66.783 214.493C66.9282 214.355 67.1234 214.279 67.3257 214.282L83.5045 214.549C83.6924 214.552 83.8724 214.623 84.0103 214.748C84.1482 214.873 84.2343 215.043 84.252 215.226C84.2698 215.409 84.218 215.593 84.1066 215.741C83.9952 215.889 83.8319 215.991 83.648 216.029Z" fill="#E6E6E6"/>
</g>
<defs>
<clipPath id="clip0_94_8342">
<rect width="315" height="243" fill="white"/>
</clipPath>
</defs>
</svg>
