<svg width="302" height="243" viewBox="0 0 302 243" fill="none" xmlns="http://www.w3.org/2000/svg">
<g clip-path="url(#clip0_94_4359)">
<path d="M54.3853 160.113C54.12 160.113 53.8563 160.071 53.6037 159.99C53.2841 159.889 52.9876 159.726 52.7316 159.509C52.4755 159.293 52.2649 159.028 52.112 158.73L49.6461 153.947C49.3366 153.345 49.2786 152.645 49.4846 152.001C49.6906 151.356 50.1439 150.82 50.7449 150.509L90.6083 129.956C91.2101 129.647 91.91 129.589 92.5545 129.795C93.1991 130.001 93.7355 130.454 94.0462 131.055L96.5121 135.838C96.8216 136.44 96.8796 137.14 96.6736 137.784C96.4676 138.429 96.0143 138.965 95.4132 139.276L55.5499 159.829C55.19 160.015 54.7907 160.113 54.3853 160.113Z" fill="#2A85FF"/>
<path d="M68.8454 141.479C68.9522 141.626 69.043 141.784 69.1163 141.95L73.3287 151.149C73.4644 151.456 73.5384 151.786 73.5464 152.122C73.5544 152.457 73.4963 152.79 73.3753 153.103C73.2543 153.416 73.0729 153.702 72.8413 153.944C72.6098 154.187 72.3327 154.382 72.0259 154.517L57.8583 159.469C56.3848 159.983 54.7737 159.939 53.3306 159.345C51.8874 158.751 50.7123 157.648 50.0282 156.245C49.312 154.777 49.1872 153.09 49.6794 151.533C50.1715 149.976 51.2432 148.667 52.6728 147.877L65.7365 140.654C66.2708 140.415 66.871 140.366 67.4369 140.516C68.0027 140.666 68.4999 141.006 68.8454 141.479Z" fill="#2F2E41"/>
<path d="M235.672 117.398H167.424C165.87 117.394 164.371 116.827 163.202 115.804L135.091 91.0111C134.126 90.1587 132.883 89.6886 131.595 89.6894H107.335V6.01575C107.337 4.42083 107.972 2.89175 109.099 1.76396C110.227 0.636181 111.756 0.00180259 113.351 0H229.656C231.251 0.00180162 232.78 0.636181 233.908 1.76396C235.035 2.89175 235.67 4.42083 235.672 6.01575L235.672 117.398Z" fill="#E6E6E6"/>
<path d="M135.227 38.829C142.275 38.829 147.988 33.1158 147.988 26.0683C147.988 19.0208 142.275 13.3076 135.227 13.3076C128.179 13.3076 122.466 19.0208 122.466 26.0683C122.466 33.1158 128.179 38.829 135.227 38.829Z" fill="white"/>
<path d="M184.811 19.2322H161.113C160.678 19.2322 160.26 19.405 159.953 19.7127C159.645 20.0204 159.472 20.4377 159.472 20.8728C159.472 21.308 159.645 21.7253 159.953 22.033C160.26 22.3406 160.678 22.5135 161.113 22.5135H184.811C185.246 22.5135 185.664 22.3406 185.971 22.033C186.279 21.7253 186.452 21.308 186.452 20.8728C186.452 20.4377 186.279 20.0204 185.971 19.7127C185.664 19.405 185.246 19.2322 184.811 19.2322Z" fill="white"/>
<path d="M219.214 29.623H160.799C160.066 29.623 159.472 30.3595 159.472 31.2637C159.472 32.1679 160.066 32.9044 160.799 32.9044H219.214C219.947 32.9044 220.541 32.1679 220.541 31.2637C220.541 30.3595 219.947 29.623 219.214 29.623Z" fill="white"/>
<path d="M214.624 51.5896H128.384C127.684 51.5896 127.115 52.3261 127.115 53.2303C127.115 54.1344 127.684 54.8709 128.384 54.8709H214.624C215.324 54.8709 215.893 54.1344 215.893 53.2303C215.893 52.3261 215.324 51.5896 214.624 51.5896Z" fill="white"/>
<path d="M214.624 61.7982H128.384C127.684 61.7982 127.115 62.5347 127.115 63.4389C127.115 64.3431 127.684 65.0795 128.384 65.0795H214.624C215.324 65.0795 215.893 64.3431 215.893 63.4389C215.893 62.5347 215.324 61.7982 214.624 61.7982Z" fill="white"/>
<path d="M214.624 72.0067H128.384C127.684 72.0067 127.115 72.7432 127.115 73.6474C127.115 74.5516 127.684 75.288 128.384 75.288H214.624C215.324 75.288 215.893 74.5516 215.893 73.6474C215.893 72.7432 215.324 72.0067 214.624 72.0067Z" fill="white"/>
<path d="M214.624 82.2153H128.384C127.684 82.2153 127.115 82.9518 127.115 83.856C127.115 84.7602 127.684 85.4967 128.384 85.4967H214.624C215.324 85.4967 215.893 84.7602 215.893 83.856C215.893 82.9518 215.324 82.2153 214.624 82.2153Z" fill="white"/>
<path d="M292.183 117.398H167.424C166.182 117.4 164.967 117.037 163.929 116.355L163.847 116.301V31.1725C163.849 29.5776 164.483 28.0485 165.611 26.9207C166.739 25.7929 168.268 25.1585 169.863 25.1567H286.167C287.762 25.1585 289.291 25.7929 290.419 26.9207C291.547 28.0485 292.181 29.5776 292.183 31.1725L292.183 117.398Z" fill="#2A85FF"/>
<path d="M191.738 63.9857C198.786 63.9857 204.499 58.2726 204.499 51.225C204.499 44.1775 198.786 38.4644 191.738 38.4644C184.691 38.4644 178.978 44.1775 178.978 51.225C178.978 58.2726 184.691 63.9857 191.738 63.9857Z" fill="white"/>
<path d="M241.323 44.3889H217.625C217.189 44.3889 216.772 44.5618 216.464 44.8695C216.157 45.1771 215.984 45.5944 215.984 46.0296C215.984 46.4647 216.157 46.882 216.464 47.1897C216.772 47.4974 217.189 47.6702 217.625 47.6702H241.323C241.758 47.6702 242.175 47.4974 242.483 47.1897C242.791 46.882 242.964 46.4647 242.964 46.0296C242.964 45.5944 242.791 45.1771 242.483 44.8695C242.175 44.5618 241.758 44.3889 241.323 44.3889Z" fill="white"/>
<path d="M275.726 54.7798H217.311C216.578 54.7798 215.984 55.5163 215.984 56.4204C215.984 57.3246 216.578 58.0611 217.311 58.0611H275.726C276.459 58.0611 277.053 57.3246 277.053 56.4204C277.053 55.5163 276.459 54.7798 275.726 54.7798Z" fill="white"/>
<path d="M271.136 76.7465H184.895C184.195 76.7465 183.626 77.4829 183.626 78.3871C183.626 79.2913 184.195 80.0278 184.895 80.0278H271.136C271.836 80.0278 272.404 79.2913 272.404 78.3871C272.404 77.4829 271.836 76.7465 271.136 76.7465Z" fill="white"/>
<path d="M271.136 86.955H184.895C184.195 86.955 183.626 87.6914 183.626 88.5956C183.626 89.4998 184.195 90.2363 184.895 90.2363H271.136C271.836 90.2363 272.404 89.4998 272.404 88.5956C272.404 87.6914 271.836 86.955 271.136 86.955Z" fill="white"/>
<path d="M271.136 97.1636H184.895C184.195 97.1636 183.626 97.9 183.626 98.8042C183.626 99.7084 184.195 100.445 184.895 100.445H271.136C271.836 100.445 272.404 99.7084 272.404 98.8042C272.404 97.9 271.836 97.1636 271.136 97.1636Z" fill="white"/>
<path d="M271.136 107.372H184.895C184.195 107.372 183.626 108.109 183.626 109.013C183.626 109.917 184.195 110.653 184.895 110.653H271.136C271.836 110.653 272.404 109.917 272.404 109.013C272.404 108.109 271.836 107.372 271.136 107.372Z" fill="white"/>
<path d="M295.647 116.487H167.424C166.191 116.488 164.995 116.072 164.029 115.306C163.953 115.247 163.88 115.185 163.807 115.12L152.953 105.549L135.693 90.3275C134.562 89.3285 133.105 88.7774 131.595 88.778H100.226C98.5828 88.7803 97.0076 89.434 95.8458 90.5959C94.6839 91.7577 94.0302 93.3329 94.0278 94.976V236.802C94.0302 238.445 94.6839 240.02 95.8458 241.182C97.0076 242.344 98.5828 242.998 100.226 243H295.647C297.29 242.998 298.865 242.344 300.027 241.182C301.189 240.02 301.842 238.445 301.845 236.802V122.685C301.842 121.042 301.189 119.467 300.027 118.305C298.865 117.143 297.29 116.489 295.647 116.487ZM301.116 236.802C301.114 238.252 300.537 239.642 299.512 240.667C298.487 241.692 297.097 242.269 295.647 242.271H100.226C98.776 242.269 97.386 241.692 96.3608 240.667C95.3355 239.642 94.7588 238.252 94.757 236.802V94.976C94.7588 93.5261 95.3355 92.1361 96.3608 91.1109C97.386 90.0856 98.776 89.5089 100.226 89.5071H131.595C132.927 89.5061 134.214 89.9924 135.212 90.8744L151.852 105.549L163.322 115.667C164.457 116.661 165.914 117.212 167.424 117.216H295.647C297.097 117.218 298.487 117.795 299.512 118.82C300.537 119.845 301.114 121.235 301.116 122.685V236.802Z" fill="#3F3D56"/>
<path d="M37.6454 138.396C48.4219 138.396 57.158 129.659 57.158 118.883C57.158 108.106 48.4219 99.3704 37.6454 99.3704C26.8689 99.3704 18.1328 108.106 18.1328 118.883C18.1328 129.659 26.8689 138.396 37.6454 138.396Z" fill="#2A85FF"/>
<path d="M37.4875 242.788H32.1063C31.4297 242.787 30.781 242.518 30.3025 242.04C29.8241 241.561 29.555 240.912 29.5542 240.236V195.386C29.555 194.709 29.8241 194.061 30.3025 193.582C30.781 193.104 31.4297 192.835 32.1063 192.834H37.4875C38.1641 192.835 38.8128 193.104 39.2912 193.582C39.7697 194.061 40.0388 194.709 40.0396 195.386V240.236C40.0388 240.912 39.7697 241.561 39.2912 242.04C38.8128 242.518 38.1641 242.787 37.4875 242.788Z" fill="#2A85FF"/>
<path d="M49.1544 242.788H43.7733C43.0967 242.787 42.448 242.518 41.9695 242.04C41.4911 241.561 41.2219 240.912 41.2212 240.236V195.386C41.2219 194.709 41.4911 194.061 41.9695 193.582C42.448 193.104 43.0967 192.835 43.7733 192.834H49.1544C49.8311 192.835 50.4798 193.104 50.9582 193.582C51.4367 194.061 51.7058 194.709 51.7066 195.386V240.236C51.7058 240.912 51.4367 241.561 50.9582 242.04C50.4798 242.518 49.8311 242.787 49.1544 242.788Z" fill="#2A85FF"/>
<path d="M68.6953 185.456C68.6953 201.363 53.7319 206.494 37.8247 206.494C21.9174 206.494 11.0898 201.363 11.0898 185.456C11.0898 169.549 21.7977 142.434 37.705 142.434C53.6123 142.434 68.6953 169.549 68.6953 185.456Z" fill="#2F2E41"/>
<path d="M37.2356 126.115L37.2153 125.386C38.5719 125.348 39.7678 125.263 40.6665 124.607C40.9213 124.41 41.1307 124.161 41.2805 123.876C41.4303 123.591 41.517 123.277 41.5347 122.956C41.5505 122.759 41.5208 122.562 41.4479 122.379C41.375 122.196 41.2609 122.032 41.1144 121.9C40.5178 121.396 39.5579 121.559 38.8583 121.88L38.255 122.157L39.4119 113.702L40.1344 113.801L39.1503 120.993C40.1009 120.714 40.9818 120.834 41.5851 121.343C41.8167 121.546 41.9985 121.799 42.1161 122.083C42.2338 122.367 42.2842 122.674 42.2633 122.981C42.2421 123.413 42.1266 123.835 41.925 124.217C41.7235 124.6 41.4407 124.934 41.0966 125.195C39.9419 126.039 38.4414 126.081 37.2356 126.115Z" fill="#2F2E41"/>
<path d="M47.6342 114.421H43.707V115.15H47.6342V114.421Z" fill="#2F2E41"/>
<path d="M35.2382 114.421H31.311V115.15H35.2382V114.421Z" fill="#2F2E41"/>
<path d="M254.448 217.843H147.258C145.808 217.842 144.418 217.265 143.393 216.24C142.368 215.214 141.791 213.824 141.79 212.374V153.311C141.791 151.861 142.368 150.471 143.393 149.445C144.418 148.42 145.808 147.843 147.258 147.842H254.448C255.898 147.843 257.288 148.42 258.313 149.445C259.339 150.471 259.915 151.861 259.917 153.311V212.374C259.915 213.824 259.339 215.214 258.313 216.24C257.288 217.265 255.898 217.842 254.448 217.843ZM147.258 148.571C146.002 148.572 144.797 149.072 143.909 149.961C143.02 150.849 142.52 152.054 142.519 153.311V212.374C142.52 213.631 143.02 214.836 143.909 215.724C144.797 216.613 146.002 217.113 147.258 217.114H254.448C255.705 217.113 256.91 216.613 257.798 215.724C258.687 214.836 259.186 213.631 259.188 212.374V153.311C259.186 152.054 258.687 150.849 257.798 149.961C256.91 149.072 255.705 148.572 254.448 148.571H147.258Z" fill="#E6E6E6"/>
<path d="M164.577 182.478C171.624 182.478 177.337 176.765 177.337 169.717C177.337 162.67 171.624 156.957 164.577 156.957C157.529 156.957 151.816 162.67 151.816 169.717C151.816 176.765 157.529 182.478 164.577 182.478Z" fill="#E6E6E6"/>
<path d="M214.161 162.881H190.462C190.027 162.881 189.61 163.054 189.302 163.362C188.995 163.669 188.822 164.087 188.822 164.522C188.822 164.957 188.995 165.374 189.302 165.682C189.61 165.99 190.027 166.162 190.462 166.162H214.161C214.596 166.162 215.013 165.99 215.321 165.682C215.629 165.374 215.802 164.957 215.802 164.522C215.802 164.087 215.629 163.669 215.321 163.362C215.013 163.054 214.596 162.881 214.161 162.881Z" fill="#E6E6E6"/>
<path d="M248.564 173.272H190.149C189.416 173.272 188.822 174.008 188.822 174.913C188.822 175.817 189.416 176.553 190.149 176.553H248.564C249.297 176.553 249.891 175.817 249.891 174.913C249.891 174.008 249.297 173.272 248.564 173.272Z" fill="#E6E6E6"/>
<path d="M243.974 195.239H157.733C157.033 195.239 156.464 195.975 156.464 196.879C156.464 197.783 157.033 198.52 157.733 198.52H243.974C244.673 198.52 245.242 197.783 245.242 196.879C245.242 195.975 244.673 195.239 243.974 195.239Z" fill="#E6E6E6"/>
<path d="M243.974 205.447H157.733C157.033 205.447 156.464 206.184 156.464 207.088C156.464 207.992 157.033 208.728 157.733 208.728H243.974C244.673 208.728 245.242 207.992 245.242 207.088C245.242 206.184 244.673 205.447 243.974 205.447Z" fill="#E6E6E6"/>
<path d="M22.0727 113.522C23.5903 111.237 26.2605 110.269 28.8937 110.034C31.8575 109.768 34.7213 110.34 37.615 110.895C40.7996 111.506 44.1701 112.078 47.379 111.305C48.7986 110.977 50.1251 110.331 51.2585 109.415C52.3919 108.499 53.3026 107.338 53.9221 106.02C55.097 103.447 55.3501 100.547 54.639 97.8097C53.887 94.898 52.0205 92.3359 49.7578 90.4008C45.1396 86.4512 38.8901 84.6762 32.8791 84.8434C26.8908 84.998 21.1031 87.033 16.3359 90.6603C11.5608 94.4185 8.20053 99.6843 6.80368 105.598C5.34303 111.464 5.81885 117.644 8.1601 123.217C9.47547 126.268 11.3779 129.019 12.8458 131.994C14.2126 134.763 15.2652 137.983 14.4148 141.072C13.6685 143.783 11.4777 146.191 8.7273 146.927C6.10767 147.628 3.52108 146.479 2.08569 144.216C0.710775 142.048 0.677878 139.208 2.74224 137.457C3.26272 137.009 3.86902 136.671 4.52428 136.464C5.17953 136.257 5.87003 136.185 6.5538 136.253C7.23758 136.321 7.90033 136.528 8.50175 136.86C9.10318 137.193 9.63072 137.644 10.0523 138.187C10.8898 139.275 11.2647 140.649 11.0956 142.011C10.9939 142.7 12.0477 142.997 12.1503 142.302C12.3967 140.861 12.1235 139.38 11.3795 138.121C10.6355 136.863 9.46894 135.91 8.08772 135.432C6.70649 134.953 5.20031 134.981 3.83751 135.509C2.47472 136.038 1.34384 137.033 0.646367 138.318C-0.598548 140.658 0.0731539 143.482 1.65346 145.482C2.46881 146.548 3.57394 147.356 4.83662 147.81C6.0993 148.264 7.46606 148.345 8.77338 148.043C11.65 147.378 14.0032 145.092 15.1098 142.405C16.3418 139.414 15.7774 136.077 14.5763 133.174C13.2781 130.037 11.3501 127.223 9.8255 124.2C8.445 121.467 7.56652 118.509 7.23192 115.467C6.56225 109.356 7.94905 103.197 11.1729 97.9635C14.4589 92.8111 19.4744 88.9993 25.3185 87.2128C31.081 85.4039 37.4365 85.4593 43.0787 87.6824C48.6364 89.8722 54.0031 94.6445 53.9386 101.054C53.9111 103.792 52.8947 106.584 50.7976 108.41C48.2913 110.592 44.8017 110.779 41.6511 110.438C38.4806 110.096 35.4017 109.17 32.2175 108.934C29.4479 108.728 26.4599 108.942 23.987 110.318C22.8354 110.96 21.8549 111.869 21.1283 112.97C20.7377 113.558 21.6846 114.106 22.0727 113.522Z" fill="#2F2E41"/>
<path d="M16.4516 204.976C16.3226 204.976 16.1937 204.966 16.0661 204.946L10.7463 204.137C10.0775 204.034 9.47669 203.67 9.07568 203.125C8.67467 202.58 8.50622 201.899 8.60729 201.23L15.356 156.891C15.4586 156.222 15.8223 155.621 16.3673 155.22C16.9123 154.819 17.5941 154.651 18.2631 154.752L23.583 155.561C24.2518 155.664 24.8526 156.028 25.2536 156.572C25.6547 157.117 25.8231 157.799 25.722 158.468L18.9732 202.807C18.8806 203.41 18.5756 203.96 18.1132 204.358C17.6508 204.755 17.0615 204.975 16.4516 204.976Z" fill="#2A85FF"/>
<path d="M22.8089 174.758C22.627 174.758 22.4456 174.738 22.2678 174.7L12.3491 172.704C12.0212 172.634 11.7104 172.5 11.4344 172.309C11.1584 172.119 10.9226 171.876 10.7406 171.594C10.5586 171.312 10.4339 170.997 10.3736 170.668C10.3133 170.338 10.3186 169.999 10.3893 169.671L14.7059 155.297C15.1554 153.803 16.1375 152.525 17.4662 151.706C18.7949 150.887 20.3778 150.585 21.9149 150.855C23.5235 151.138 24.962 152.028 25.933 153.341C26.9041 154.655 27.3336 156.291 27.1327 157.912L25.3028 172.727C25.1825 173.3 24.8692 173.814 24.4153 174.184C23.9614 174.553 23.3943 174.756 22.8089 174.758Z" fill="#2F2E41"/>
<path d="M69.9491 243H12.7083C12.6116 243 12.5189 242.962 12.4505 242.893C12.3822 242.825 12.3438 242.732 12.3438 242.635C12.3438 242.539 12.3822 242.446 12.4505 242.378C12.5189 242.309 12.6116 242.271 12.7083 242.271H69.9491C70.0458 242.271 70.1386 242.309 70.207 242.378C70.2753 242.446 70.3137 242.539 70.3137 242.635C70.3137 242.732 70.2753 242.825 70.207 242.893C70.1386 242.962 70.0458 243 69.9491 243Z" fill="#3F3D56"/>
</g>
<defs>
<clipPath id="clip0_94_4359">
<rect width="301.845" height="243" fill="white"/>
</clipPath>
</defs>
</svg>
