<svg width="287" height="207" viewBox="0 0 287 207" fill="none" xmlns="http://www.w3.org/2000/svg">
<g clip-path="url(#clip0_135_5073)">
<path d="M141.168 205.517H130.17V120.869H139.115C139.548 120.869 139.963 121.041 140.271 121.346C140.578 121.652 140.751 122.067 140.753 122.5L141.168 205.517Z" fill="#CCCCCC"/>
<path d="M131.199 205.965H13.0898V145.681H131.199V205.965Z" fill="white"/>
<path d="M84.6449 205.741H13.3125V145.905H130.974V159.412C130.96 171.695 126.074 183.471 117.389 192.156C108.704 200.842 96.9278 205.727 84.6449 205.741Z" fill="#F2F2F2"/>
<path d="M139.377 123.274C139.318 123.386 139.272 123.505 139.24 123.628L135.167 139.326L130.75 147.692H13.5371V145.609L20.2104 139.326L27.9951 124.436C28.3388 123.778 28.7901 123.183 29.3303 122.675C30.5629 121.515 32.1916 120.869 33.8841 120.869H137.928C138.211 120.869 138.488 120.942 138.734 121.081C138.98 121.22 139.186 121.42 139.332 121.662C139.478 121.904 139.559 122.18 139.566 122.462C139.574 122.744 139.509 123.024 139.377 123.274Z" fill="#F2F2F2"/>
<path d="M131.199 205.965H13.0898V145.681H131.199V205.965ZM13.9864 205.068H130.303V146.578H13.9864V205.068Z" fill="#E6E6E6"/>
<path d="M137.344 131.304L135.168 139.326H20.2109L23.9255 132.649L137.344 131.304Z" fill="#CCCCCC"/>
<path d="M36.2731 177.271H17.4453V178.313H36.2731V177.271Z" fill="white"/>
<path d="M36.2731 180.917H17.4453V181.959H36.2731V180.917Z" fill="white"/>
<path d="M36.2731 184.564H17.4453V185.606H36.2731V184.564Z" fill="white"/>
<path d="M24.7371 165.665C28.4774 165.665 31.5094 162.633 31.5094 158.892C31.5094 155.152 28.4774 152.12 24.7371 152.12C20.9969 152.12 17.9648 155.152 17.9648 158.892C17.9648 162.633 20.9969 165.665 24.7371 165.665Z" fill="white"/>
<path d="M98.9626 134.776H93.2109V90.509H97.8886C98.1151 90.509 98.3325 90.5987 98.4931 90.7585C98.6537 90.9183 98.7445 91.1352 98.7456 91.3618L98.9626 134.776Z" fill="#CCCCCC"/>
<path d="M93.7501 135.011H31.9844V103.485H93.7501V135.011Z" fill="white"/>
<path d="M69.4051 134.894H32.1016V103.602H93.6329V110.666C93.6256 117.089 91.0707 123.247 86.5287 127.789C81.9867 132.331 75.8285 134.886 69.4051 134.894Z" fill="#F2F2F2"/>
<path d="M98.0273 91.7664C97.9963 91.8252 97.9722 91.8873 97.9555 91.9516L95.8257 100.161L93.5155 104.536H32.2188V103.447L35.7086 100.161L39.7796 92.3741C39.9593 92.0303 40.1954 91.7191 40.4779 91.4533C41.1225 90.8468 41.9742 90.509 42.8593 90.509H97.2695C97.4173 90.509 97.5625 90.5472 97.6911 90.6199C97.8197 90.6925 97.9274 90.7972 98.0036 90.9237C98.0798 91.0502 98.1221 91.1943 98.1263 91.3419C98.1304 91.4896 98.0963 91.6358 98.0273 91.7664Z" fill="#F2F2F2"/>
<path d="M93.7501 135.011H31.9844V103.485H93.7501V135.011ZM32.4533 134.542H93.2812V103.954H32.4533V134.542Z" fill="#E6E6E6"/>
<path d="M96.9618 95.9666L95.824 100.161H35.707L37.6495 96.6695L96.9618 95.9666Z" fill="#CCCCCC"/>
<path d="M44.1078 120.005H34.2617V120.55H44.1078V120.005Z" fill="white"/>
<path d="M44.1078 121.912H34.2617V122.457H44.1078V121.912Z" fill="white"/>
<path d="M44.1078 123.819H34.2617V124.364H44.1078V123.819Z" fill="white"/>
<path d="M38.0748 113.935C40.0308 113.935 41.6164 112.35 41.6164 110.394C41.6164 108.438 40.0308 106.852 38.0748 106.852C36.1188 106.852 34.5332 108.438 34.5332 110.394C34.5332 112.35 36.1188 113.935 38.0748 113.935Z" fill="white"/>
<path d="M268.472 205.935L268.437 205.744C267.855 202.535 267.979 199.237 268.799 196.081C269.62 192.925 271.119 189.985 273.191 187.467C274.364 186.063 275.709 184.813 277.195 183.746L277.337 183.643L277.399 183.806C278.138 185.755 279.07 187.706 279.496 188.57L279.782 182.122L279.946 182.036C280.696 181.634 281.549 181.466 282.395 181.553C283.242 181.64 284.043 181.979 284.695 182.526C285.369 183.068 285.866 183.799 286.121 184.626C286.376 185.453 286.377 186.337 286.125 187.165C285.902 187.923 285.692 188.708 285.488 189.468C284.789 192.08 284.065 194.78 282.663 197.054C281.585 198.764 280.138 200.212 278.429 201.292C276.719 202.372 274.79 203.057 272.782 203.296L268.472 205.935Z" fill="#F2F2F2"/>
<path d="M286.311 205.856C286.311 205.926 286.298 205.995 286.271 206.06C286.244 206.125 286.205 206.184 286.155 206.233C286.106 206.283 286.047 206.322 285.982 206.349C285.917 206.376 285.848 206.389 285.778 206.389H0.53347C0.391985 206.389 0.256293 206.333 0.156249 206.233C0.0562038 206.133 0 205.997 0 205.856C0 205.714 0.0562038 205.578 0.156249 205.478C0.256293 205.378 0.391985 205.322 0.53347 205.322H285.778C285.848 205.322 285.917 205.336 285.982 205.362C286.047 205.389 286.106 205.428 286.155 205.478C286.205 205.528 286.244 205.586 286.271 205.651C286.298 205.716 286.311 205.786 286.311 205.856Z" fill="#CCCCCC"/>
<path d="M221.61 69.3617L213.446 68.1922C210.684 72.8096 209.703 85.0995 209.703 85.0995L201.713 104.091C201.183 104.451 200.758 104.943 200.48 105.519C200.202 106.095 200.08 106.734 200.127 107.372C200.174 108.01 200.389 108.624 200.749 109.153C201.109 109.682 201.602 110.106 202.178 110.384C202.754 110.662 203.394 110.783 204.032 110.735C204.67 110.687 205.283 110.472 205.812 110.111C206.34 109.75 206.764 109.257 207.041 108.68C207.318 108.103 207.438 107.464 207.39 106.826L220.509 84.7207L221.61 69.3617Z" fill="#FFB8B8"/>
<path d="M220.312 46.6948C221.576 46.8905 222.781 47.3623 223.842 48.0767C224.902 48.7911 225.792 49.7304 226.449 50.8279C227.105 51.9254 227.512 53.1541 227.639 54.4265C227.767 55.6989 227.612 56.9838 227.187 58.1898L225.454 63.1007C225.454 63.1007 224.511 77.8876 220.914 82.0616L209.877 81.0625C209.877 81.0625 211.895 73.6023 210.346 69.9928C209.397 67.7822 209.45 60.1473 210.384 53.9365C210.56 52.8086 210.956 51.7264 211.55 50.7517C212.144 49.777 212.924 48.9291 213.846 48.2565C214.768 47.5838 215.814 47.0996 216.924 46.8317C218.033 46.5637 219.185 46.5172 220.312 46.6948Z" fill="#E6E6E6"/>
<path d="M247.295 200.126L242.377 200.126L240.037 181.155L247.296 181.156L247.295 200.126Z" fill="#FFB6B6"/>
<path d="M247.468 205.257L232.344 205.256V205.065C232.344 203.504 232.964 202.006 234.068 200.902C235.172 199.798 236.669 199.178 238.23 199.178L240.993 197.082L246.148 199.178L247.468 199.179L247.468 205.257Z" fill="#2F2E41"/>
<path d="M225.913 176.615L221.37 178.498L211.941 161.872L218.647 159.091L225.913 176.615Z" fill="#FFB6B6"/>
<path d="M228.038 181.288L214.067 187.081L213.994 186.904C213.396 185.462 213.395 183.842 213.992 182.399C214.589 180.956 215.734 179.81 217.176 179.212L218.926 176.217L224.49 176.179L225.71 175.673L228.038 181.288Z" fill="#2F2E41"/>
<path d="M252.917 92.2114L218.014 95.858L213.345 111.583L197.176 137.567L215.028 170.368L221.316 164.725L215.281 138.238L233.294 118.791L236.709 117.374L239.42 189.535L249.449 189.7L253.837 110.075C255.946 103.041 255.311 97.2328 252.917 92.2114Z" fill="#2F2E41"/>
<path d="M240.121 42.4299L234.393 35.9792L225.34 36.985L219.544 45.0959C216.459 45.8051 213.764 47.6697 212.012 50.306C210.26 52.9423 209.584 56.1499 210.125 59.2688C212.374 72.2194 220.018 84.7799 217.494 91.1697C213.663 100.869 213.429 104.825 222.6 103.465C231.77 102.106 262.493 98.9706 256.536 93.0141C250.58 87.0577 249.271 77.1042 249.271 77.1042L249.033 54.3324C249.286 52.9589 249.252 51.5479 248.934 50.1882C248.615 48.8284 248.018 47.5493 247.181 46.4313C246.344 45.3133 245.285 44.3807 244.07 43.6921C242.855 43.0034 241.511 42.5737 240.121 42.4299Z" fill="#E6E6E6"/>
<path d="M228.926 34.3284C234.475 34.3284 238.974 29.8295 238.974 24.2798C238.974 18.73 234.475 14.2311 228.926 14.2311C223.376 14.2311 218.877 18.73 218.877 24.2798C218.877 29.8295 223.376 34.3284 228.926 34.3284Z" fill="#FFB8B8"/>
<path d="M241.308 23.6828C240.859 25.7188 240.05 27.6581 238.918 29.4089C238.617 30.0059 238.168 30.5156 237.614 30.8891C237.333 31.0691 236.999 31.1451 236.668 31.1037C236.337 31.0624 236.031 30.9063 235.803 30.6627L235.559 30.4636C236.038 30.1681 236.466 29.7966 236.826 29.3636C237.005 29.1463 237.128 28.8896 237.187 28.6148C237.246 28.3401 237.239 28.0552 237.166 27.7839C237.079 27.5163 236.892 27.2927 236.644 27.1602C236.396 27.0277 236.106 26.9965 235.835 27.0732C235.247 27.3041 234.889 28.155 234.273 28.0238C233.776 27.9151 233.671 27.2588 233.671 26.7428C233.69 24.0449 232.386 20.211 231.376 20.3287C230.357 20.3844 229.336 20.2477 228.366 19.9258C227.396 19.6033 226.372 19.4726 225.352 19.541C225.279 19.5501 225.207 19.5637 225.13 19.5773C224.966 19.0647 224.741 18.5738 224.46 18.1152C224.492 18.6687 224.464 19.2241 224.378 19.7719C223.567 20.1065 222.728 20.3715 221.871 20.564C220.938 20.6953 218.888 23.4836 218.793 23.1985C218.629 22.6859 218.404 22.195 218.123 21.7364C218.154 22.29 218.127 22.8453 218.041 23.3931C218.037 23.4157 218.037 23.4339 218.032 23.4565C217.58 22.8544 217.303 22.1212 217.457 22.6824C215.941 19.2513 216.529 16.7934 218.915 13.901C219.38 13.279 219.995 12.7853 220.703 12.4661C221.057 12.3103 221.446 12.2485 221.831 12.2866C222.217 12.3246 222.586 12.4613 222.903 12.6833C223.876 11.7913 225.07 11.1757 226.361 10.9003C227.651 10.6249 228.993 10.6998 230.245 11.1171C232.73 11.9817 234.645 12.4887 235.025 15.096C237.08 14.7655 239.194 15.9334 240.325 17.6761C241.453 19.4234 241.683 21.6414 241.308 23.6828Z" fill="#2F2E41"/>
<path d="M233.159 107.146H229.824V81.4775H232.537C232.668 81.4775 232.794 81.5295 232.887 81.6222C232.98 81.7148 233.033 81.8406 233.034 81.9719L233.159 107.146Z" fill="#3F3D56"/>
<path d="M230.136 107.282H194.32V89.0016H230.136V107.282Z" fill="white"/>
<path d="M216.018 107.214H194.387V89.0696H230.066V93.1655C230.062 96.8902 228.581 100.461 225.947 103.095C223.313 105.729 219.742 107.21 216.018 107.214Z" fill="#2A85FF"/>
<path d="M232.615 82.2066C232.597 82.2406 232.583 82.2767 232.573 82.314L231.338 87.0744L229.999 89.6114H194.455V88.9795L196.479 87.0744L198.839 82.559C198.944 82.3596 199.08 82.1792 199.244 82.025C199.618 81.6733 200.112 81.4775 200.625 81.4775H232.176C232.261 81.4775 232.346 81.4996 232.42 81.5418C232.495 81.5839 232.557 81.6446 232.601 81.7179C232.646 81.7913 232.67 81.8748 232.672 81.9605C232.675 82.0461 232.655 82.1309 232.615 82.2066Z" fill="#3F3D56"/>
<path d="M230.136 107.282H194.32V89.0016H230.136V107.282ZM194.592 107.01H229.864V89.2735H194.592V107.01Z" fill="#3F3D56"/>
<path d="M231.998 84.6419L231.338 87.0748H196.479L197.605 85.0498L231.998 84.6419Z" fill="#2A85FF"/>
<path d="M201.35 98.581H195.641V98.8969H201.35V98.581Z" fill="white"/>
<path d="M201.35 99.687H195.641V100.003H201.35V99.687Z" fill="white"/>
<path d="M201.35 100.793H195.641V101.108H201.35V100.793Z" fill="white"/>
<path d="M197.852 95.0617C198.987 95.0617 199.906 94.1423 199.906 93.0081C199.906 91.8739 198.987 90.9545 197.852 90.9545C196.718 90.9545 195.799 91.8739 195.799 93.0081C195.799 94.1423 196.718 95.0617 197.852 95.0617Z" fill="white"/>
<path d="M247.093 67.0147L238.928 65.8453C236.167 70.4626 235.185 82.7526 235.185 82.7526L227.195 101.744C226.666 102.104 226.241 102.596 225.962 103.172C225.684 103.748 225.562 104.387 225.61 105.025C225.657 105.663 225.871 106.277 226.231 106.806C226.591 107.335 227.084 107.76 227.661 108.037C228.237 108.315 228.876 108.436 229.514 108.388C230.152 108.34 230.766 108.125 231.294 107.764C231.823 107.403 232.247 106.91 232.524 106.333C232.8 105.757 232.921 105.117 232.872 104.479L245.991 82.3737L247.093 67.0147Z" fill="#FFB8B8"/>
<path d="M242.667 44.3478C243.931 44.5435 245.136 45.0153 246.196 45.7297C247.257 46.4441 248.147 47.3834 248.804 48.4809C249.46 49.5784 249.866 50.8071 249.994 52.0795C250.121 53.3519 249.967 54.6368 249.542 55.8428L247.809 60.7537C247.809 60.7537 249.991 75.5406 246.395 79.7146L235.357 78.7154C235.357 78.7154 237.375 71.2552 235.826 67.6457C234.877 65.4352 234.93 57.8003 235.865 51.5895C236.579 46.847 237.928 43.6138 242.667 44.3478Z" fill="#E6E6E6"/>
<path d="M173.338 19.8817C169.349 21.8711 166.313 25.3638 164.899 29.5912C163.485 33.8187 163.809 38.4347 165.798 42.4238C169.941 50.7306 184.911 64.8979 196.856 67.0384C191.718 51.4379 198.862 35.5806 195.88 27.4213C192.693 18.7028 181.644 15.7389 173.338 19.8817Z" fill="#2A85FF"/>
<path d="M178.937 39.6381C181.964 39.6381 184.418 37.184 184.418 34.1566C184.418 31.1293 181.964 28.6751 178.937 28.6751C175.909 28.6751 173.455 31.1293 173.455 34.1566C173.455 37.184 175.909 39.6381 178.937 39.6381Z" fill="white"/>
<path d="M196.75 75.8366C198.733 75.8366 200.341 74.2292 200.341 72.2463C200.341 70.2635 198.733 68.6561 196.75 68.6561C194.768 68.6561 193.16 70.2635 193.16 72.2463C193.16 74.2292 194.768 75.8366 196.75 75.8366Z" fill="#2A85FF"/>
<path opacity="0.2" d="M180.608 28.3942C181.328 28.3692 182.046 28.4863 182.72 28.7388C183.395 28.9913 184.013 29.3743 184.539 29.8658C185.066 30.3573 185.49 30.9477 185.788 31.6033C186.086 32.2589 186.252 32.9669 186.277 33.6867C186.301 34.4065 186.183 35.124 185.93 35.7983C185.677 36.4726 185.294 37.0904 184.802 37.6165C184.31 38.1425 183.719 38.5664 183.063 38.864C182.407 39.1616 181.699 39.327 180.979 39.3508C182.199 38.8971 183.218 38.024 183.853 36.8879C184.488 35.7517 184.698 34.4267 184.445 33.1499C184.193 31.8731 183.494 30.7279 182.474 29.9192C181.454 29.1106 180.18 28.6913 178.879 28.7364C179.433 28.5298 180.017 28.4143 180.608 28.3942Z" fill="#231F20"/>
<path opacity="0.2" d="M195.907 27.4246C198.889 35.5838 191.745 51.4411 196.883 67.0417C195.756 66.8341 194.645 66.5434 193.561 66.172C189.375 51.0911 195.945 36.0217 193.064 28.1383C190.485 21.0826 182.757 17.7966 175.5 18.9954C183.465 16.2791 192.987 19.4349 195.907 27.4246Z" fill="#231F20"/>
<path d="M27.6418 103.126C23.5125 103.026 19.513 104.572 16.523 107.421C13.533 110.271 11.7976 114.192 11.6984 118.321C11.492 126.92 17.6144 145.011 26.4697 151.94C29.0217 136.936 41.7443 127.044 42.8375 119.069C44.0056 110.547 36.2406 103.332 27.6418 103.126Z" fill="#D1D3D4"/>
<path d="M26.0421 122.323C28.8473 122.323 31.1213 120.049 31.1213 117.244C31.1213 114.438 28.8473 112.164 26.0421 112.164C23.2369 112.164 20.9629 114.438 20.9629 117.244C20.9629 120.049 23.2369 122.323 26.0421 122.323Z" fill="white"/>
<path d="M24.1275 159.487C25.9649 159.487 27.4543 157.997 27.4543 156.16C27.4543 154.323 25.9649 152.833 24.1275 152.833C22.2902 152.833 20.8008 154.323 20.8008 156.16C20.8008 157.997 22.2902 159.487 24.1275 159.487Z" fill="#D1D3D4"/>
<path opacity="0.2" d="M29.9066 113.248C31.1179 113.837 32.0455 114.884 32.4854 116.157C32.9253 117.43 32.8413 118.826 32.2521 120.037C31.9603 120.637 31.5533 121.174 31.0542 121.616C30.5551 122.059 29.9737 122.398 29.3433 122.616C28.07 123.056 26.6742 122.972 25.4629 122.383C26.6587 122.54 27.8713 122.266 28.8837 121.611C29.8961 120.955 30.6423 119.961 30.9886 118.806C31.3349 117.651 31.2588 116.41 30.7739 115.306C30.289 114.201 29.4269 113.306 28.342 112.779C28.8854 112.85 29.4138 113.008 29.9066 113.248Z" fill="#231F20"/>
<path opacity="0.2" d="M42.8586 119.083C41.7655 127.058 29.0429 136.95 26.4908 151.954C25.6574 151.296 24.8738 150.576 24.1465 149.802C27.2528 135.636 39.1642 126.141 40.2204 118.436C41.1656 111.539 36.2601 105.499 29.797 103.336C37.4973 104.563 43.929 111.274 42.8586 119.083Z" fill="#231F20"/>
<path d="M86.727 36.9458C85.5664 37.0217 84.4813 37.5475 83.7025 38.4113C82.9238 39.275 82.5128 40.4086 82.557 41.5708C82.5697 41.8069 82.602 42.0415 82.6534 42.2723L69.4746 50.5749L76.7605 53.7972L88.1583 45.4189C89.0987 45.1316 89.9175 44.5411 90.487 43.7395C91.0565 42.9378 91.3446 41.9702 91.3063 40.9877C91.2792 40.4288 91.1422 39.8807 90.9033 39.3748C90.6643 38.8688 90.3281 38.4149 89.9137 38.0388C89.4993 37.6628 89.0149 37.3721 88.4882 37.1833C87.9614 36.9945 87.4027 36.9113 86.8438 36.9385C86.8048 36.9404 86.7659 36.9428 86.727 36.9458Z" fill="#FFB6B6"/>
<path d="M74.0197 46.8015L77.2859 53.5406L64.3717 61.851C63.4528 62.4474 62.3966 62.7989 61.3036 62.8722C60.2106 62.9454 59.117 62.7379 58.1268 62.2694C56.9228 61.6931 55.9388 60.7412 55.3231 59.557C54.7073 58.3728 54.4932 57.0205 54.7129 55.704L58.9033 31.7809C59.1846 30.1067 60.0968 28.6041 61.4521 27.5819C62.8075 26.5597 64.503 26.0958 66.19 26.2854C67.0116 26.3753 67.8076 26.6261 68.5323 27.0236C69.2571 27.421 69.8965 27.9573 70.4139 28.6019C70.9314 29.2464 71.3169 29.9866 71.5483 30.7801C71.7798 31.5736 71.8526 32.4049 71.7628 33.2266C71.7557 33.2915 71.7476 33.3563 71.7385 33.421C71.7068 33.6509 71.6627 33.8789 71.6065 34.104L67.0319 51.1177L74.0197 46.8015Z" fill="#2A85FF"/>
<path d="M74.9376 57.2485H56.4688V75.7174H74.9376V57.2485Z" fill="#FFB8B8"/>
<path d="M118.736 111.641L125.79 109.268L129.718 128.467L124.938 130.075L118.736 111.641Z" fill="#FFB6B6"/>
<path d="M106.781 110.165L113.778 107.629L118.151 126.731L113.411 128.45L106.781 110.165Z" fill="#FFB6B6"/>
<path d="M57.1311 80.5423C53.4294 105.22 102.724 90.6303 102.724 90.6303L118.18 111.952L127.229 110.307C127.229 110.307 123.158 97.5068 115.886 80.3478C112.657 72.7275 75.9898 74.5895 75.9898 74.5895L75.2284 68.6145L54.252 68.2032L57.1311 80.5423Z" fill="#2F2E41"/>
<path d="M92.7383 92.2848L104.137 85.1855C112.482 101.849 114.942 109.065 114.942 109.065L107.053 111.284L92.7383 92.2848Z" fill="#2F2E41"/>
<path d="M67.6818 27.2366L63.9644 22.4582L58.6616 22.2282L58.1323 26.7224L55.5048 27.934C52.8812 37.9013 52.476 48.3227 54.3178 58.4636C54.6699 58.7952 54.9272 59.2147 55.0632 59.6789C55.1991 60.143 55.2087 60.6351 55.091 61.1042L54.9207 61.7833L54.9365 61.8082C55.4955 62.6904 55.6852 63.7571 55.4646 64.778L54.2098 67.0076C53.7595 67.8094 53.4893 68.6997 53.4179 69.6165C53.3465 70.5334 53.4757 71.4548 53.7964 72.3166C54.1172 73.1785 54.6218 73.9602 55.2752 74.6072C55.9287 75.2543 56.7152 75.7513 57.5802 76.0636C65.2932 78.8594 72.5236 79.9008 77.8727 72.0555L79.5546 44.716L67.6818 27.2366Z" fill="#2A85FF"/>
<path d="M63.787 23.7275C69.2019 23.7275 73.5915 19.3378 73.5915 13.9229C73.5915 8.50802 69.2019 4.11838 63.787 4.11838C58.3721 4.11838 53.9824 8.50802 53.9824 13.9229C53.9824 19.3378 58.3721 23.7275 63.787 23.7275Z" fill="#FFB8B8"/>
<path d="M58.866 2.10345C54.7146 2.18321 51.422 6.03392 51.5118 10.7043C48.4397 13.9098 47.6955 29.6767 50.2624 33.8711C54.9581 34.4162 57.8143 22.7989 61.9323 24.4783L62.4749 21.9429L63.7046 25.2446C64.7511 25.7271 65.7897 26.2566 66.8205 26.8333C67.5612 23.4358 67.3775 20.1332 65.3867 17.2567C63.618 14.7011 67.9222 11.6672 71.0003 12.096L70.9553 9.74891L71.7284 12.082C72.9283 12.9638 74.2556 12.6446 75.6167 12.0073C77.8238 0.536352 60.7358 -2.6006 58.866 2.10345Z" fill="#2F2E41"/>
<path d="M122.765 133.322L125.907 132.912L126.081 129.872L127.905 132.651L136.24 131.562C136.639 131.51 137.012 131.331 137.302 131.053C137.593 130.774 137.787 130.409 137.857 130.012C137.926 129.616 137.866 129.207 137.686 128.846C137.507 128.486 137.217 128.192 136.858 128.008L129.602 124.28L129.21 121.281L122.264 122.613L122.765 133.322Z" fill="#2F2E41"/>
<path d="M114.466 133.349L117.316 131.965L116.518 129.026L119.129 131.085L126.69 127.414C127.052 127.238 127.349 126.95 127.537 126.594C127.724 126.237 127.793 125.83 127.733 125.432C127.673 125.033 127.487 124.665 127.202 124.379C126.918 124.094 126.549 123.907 126.151 123.846L118.088 122.608L116.767 119.887L110.6 123.35L114.466 133.349Z" fill="#2F2E41"/>
<path d="M71.4277 67.9686H74.9236V41.0632H72.0805C71.9428 41.0632 71.8107 41.1177 71.7131 41.2148C71.6154 41.3119 71.5603 41.4438 71.5596 41.5815L71.4277 67.9686Z" fill="#CCCCCC"/>
<path d="M74.5977 48.9494H112.139V68.1107H74.5977V48.9494Z" fill="white"/>
<path d="M74.668 53.3142V49.021H112.067V68.0398H89.3935C85.4894 68.0354 81.7465 66.4825 78.9859 63.7219C76.2252 60.9613 74.6724 57.2183 74.668 53.3142Z" fill="#F2F2F2"/>
<path d="M71.9978 41.8274C72.0167 41.8631 72.0313 41.9009 72.0415 41.9399L73.336 46.9297L74.7401 49.5889H111.996V48.9266L109.875 46.9297L107.401 42.1968C107.291 41.9878 107.148 41.7987 106.976 41.6371C106.584 41.2684 106.067 41.0632 105.529 41.0632H72.4584C72.3686 41.0632 72.2804 41.0864 72.2022 41.1305C72.124 41.1747 72.0586 41.2383 72.0123 41.3152C71.9659 41.3921 71.9402 41.4797 71.9377 41.5694C71.9352 41.6592 71.9559 41.748 71.9978 41.8274Z" fill="#F2F2F2"/>
<path d="M74.5977 48.9494H112.139V68.1107H74.5977V48.9494ZM111.854 67.8257H74.8826V49.2344H111.854L111.854 67.8257Z" fill="#E6E6E6"/>
<path d="M72.6445 44.3796L73.3362 46.9295H109.875L108.694 44.8073L72.6445 44.3796Z" fill="#CCCCCC"/>
<path d="M110.754 58.9902H104.77V59.3214H110.754V58.9902Z" fill="white"/>
<path d="M110.754 60.1493H104.77V60.4805H110.754V60.1493Z" fill="white"/>
<path d="M110.754 61.3088H104.77V61.6399H110.754V61.3088Z" fill="white"/>
<path d="M108.436 55.3014C109.625 55.3014 110.588 54.3376 110.588 53.1488C110.588 51.96 109.625 50.9962 108.436 50.9962C107.247 50.9962 106.283 51.96 106.283 53.1488C106.283 54.3376 107.247 55.3014 108.436 55.3014Z" fill="white"/>
<path d="M91.0703 20.6236C93.6005 20.5629 96.0512 21.5097 97.8832 23.2559C99.7153 25.0021 100.779 27.4045 100.839 29.9347C100.966 35.2036 97.2145 46.2886 91.7884 50.5343C90.2247 41.3408 82.429 35.2795 81.7591 30.3929C81.0434 25.1713 85.8014 20.7502 91.0703 20.6236Z" fill="#D1D3D4"/>
<path d="M92.0517 32.3869C93.7706 32.3869 95.164 30.9935 95.164 29.2746C95.164 27.5558 93.7706 26.1624 92.0517 26.1624C90.3329 26.1624 88.9395 27.5558 88.9395 29.2746C88.9395 30.9935 90.3329 32.3869 92.0517 32.3869Z" fill="white"/>
<path d="M93.224 55.1585C94.3498 55.1585 95.2625 54.2459 95.2625 53.1201C95.2625 51.9943 94.3498 51.0816 93.224 51.0816C92.0982 51.0816 91.1855 51.9943 91.1855 53.1201C91.1855 54.2459 92.0982 55.1585 93.224 55.1585Z" fill="#D1D3D4"/>
<path opacity="0.2" d="M89.6824 26.8264C89.3149 27.0052 88.9862 27.2546 88.7151 27.5605C88.4439 27.8663 88.2357 28.2225 88.1022 28.6088C87.9688 28.9951 87.9127 29.4039 87.9373 29.8119C87.9618 30.2198 88.0664 30.619 88.2452 30.9865C88.424 31.354 88.6734 31.6827 88.9792 31.9538C89.2851 32.225 89.6413 32.4332 90.0276 32.5666C90.4139 32.7001 90.8227 32.7562 91.2306 32.7316C91.6386 32.7071 92.0377 32.6025 92.4053 32.4237C91.6726 32.5199 90.9295 32.3522 90.3092 31.9506C89.6888 31.5491 89.2316 30.9398 89.0194 30.232C88.8072 29.5241 88.8538 28.7638 89.1509 28.0872C89.4481 27.4106 89.9763 26.8618 90.6411 26.539C90.3081 26.5825 89.9844 26.6795 89.6824 26.8264Z" fill="#231F20"/>
<path opacity="0.2" d="M81.7474 30.4023C82.4172 35.2889 90.2129 41.3502 91.7767 50.5438C92.2874 50.1402 92.7675 49.6995 93.2132 49.2251C91.3098 40.545 84.0112 34.7269 83.364 30.0054C82.7848 25.7797 85.7907 22.0786 89.7509 20.7534C85.0325 21.505 81.0915 25.6172 81.7474 30.4023Z" fill="#231F20"/>
<path d="M85.5261 46.5041C84.3663 46.4182 83.2187 46.7883 82.3275 47.5356C81.4364 48.2829 80.872 49.3485 80.7545 50.5055C80.7343 50.7411 80.7336 50.9779 80.7525 51.2136L66.5488 57.6063L73.3169 61.809L85.7674 55.094C86.7385 54.94 87.6314 54.4688 88.3067 53.754C88.9819 53.0392 89.4015 52.121 89.5 51.1426C89.6024 50.0172 89.2536 48.8972 88.5302 48.029C87.8068 47.1608 86.7682 46.6156 85.6428 46.5131C85.6039 46.5096 85.565 46.5066 85.5261 46.5041Z" fill="#FFB6B6"/>
<path d="M71.5727 54.4998L73.8718 61.627L59.929 68.0642C58.9362 68.5273 57.8414 68.7288 56.7488 68.6496C55.6562 68.5704 54.602 68.2131 53.6864 67.6116C52.5742 66.8738 51.7319 65.7945 51.2864 64.5363C50.841 63.2781 50.8167 61.9092 51.217 60.6359L58.6878 37.5261C59.1988 35.9072 60.3107 34.5457 61.7948 33.7216C63.279 32.8975 65.0225 32.6734 66.6668 33.0954C67.468 33.2984 68.2214 33.6573 68.884 34.1515C69.5466 34.6457 70.1053 35.2656 70.5283 35.9758C70.9513 36.6859 71.2303 37.4724 71.3493 38.2904C71.4684 39.1083 71.4251 39.9417 71.2221 40.743C71.206 40.8063 71.189 40.8693 71.171 40.9321C71.1077 41.1554 71.0324 41.375 70.9455 41.5902L64.0534 57.8041L71.5727 54.4998Z" fill="#2A85FF"/>
</g>
<defs>
<clipPath id="clip0_135_5073">
<rect width="286.311" height="206.389" fill="white"/>
</clipPath>
</defs>
</svg>
