<svg width="18" height="19" viewBox="0 0 18 19" fill="none" xmlns="http://www.w3.org/2000/svg">
<g clip-path="url(#clip0_408_817)">
<path d="M15.8808 7.72953C15.6157 7.4525 15.3415 7.16703 15.2381 6.91602C15.1425 6.68609 15.1369 6.305 15.1312 5.93586C15.1207 5.24961 15.1095 4.47195 14.5687 3.93125C14.028 3.39055 13.2504 3.3793 12.5641 3.36875C12.195 3.36312 11.8139 3.3575 11.584 3.26187C11.3337 3.15852 11.0475 2.8843 10.7705 2.61922C10.2853 2.15305 9.73406 1.625 9 1.625C8.26594 1.625 7.71539 2.15305 7.22953 2.61922C6.9525 2.8843 6.66703 3.15852 6.41602 3.26187C6.1875 3.3575 5.805 3.36312 5.43586 3.36875C4.74961 3.3793 3.97195 3.39055 3.43125 3.93125C2.89055 4.47195 2.88281 5.24961 2.86875 5.93586C2.86312 6.305 2.8575 6.68609 2.76187 6.91602C2.65852 7.16633 2.3843 7.4525 2.11922 7.72953C1.65305 8.21469 1.125 8.76594 1.125 9.5C1.125 10.2341 1.65305 10.7846 2.11922 11.2705C2.3843 11.5475 2.65852 11.833 2.76187 12.084C2.8575 12.3139 2.86312 12.695 2.86875 13.0641C2.8793 13.7504 2.89055 14.528 3.43125 15.0687C3.97195 15.6095 4.74961 15.6207 5.43586 15.6312C5.805 15.6369 6.18609 15.6425 6.41602 15.7381C6.66633 15.8415 6.9525 16.1157 7.22953 16.3808C7.71469 16.847 8.26594 17.375 9 17.375C9.73406 17.375 10.2846 16.847 10.7705 16.3808C11.0475 16.1157 11.333 15.8415 11.584 15.7381C11.8139 15.6425 12.195 15.6369 12.5641 15.6312C13.2504 15.6207 14.028 15.6095 14.5687 15.0687C15.1095 14.528 15.1207 13.7504 15.1312 13.0641C15.1369 12.695 15.1425 12.3139 15.2381 12.084C15.3415 11.8337 15.6157 11.5475 15.8808 11.2705C16.347 10.7853 16.875 10.2341 16.875 9.5C16.875 8.76594 16.347 8.21539 15.8808 7.72953ZM12.2105 8.21047L8.27297 12.148C8.22073 12.2003 8.15869 12.2418 8.0904 12.2701C8.02212 12.2984 7.94892 12.3129 7.875 12.3129C7.80108 12.3129 7.72788 12.2984 7.6596 12.2701C7.59131 12.2418 7.52927 12.2003 7.47703 12.148L5.78953 10.4605C5.68398 10.3549 5.62469 10.2118 5.62469 10.0625C5.62469 9.91323 5.68398 9.77008 5.78953 9.66453C5.89508 9.55898 6.03823 9.49969 6.1875 9.49969C6.33677 9.49969 6.47992 9.55898 6.58547 9.66453L7.875 10.9548L11.4145 7.41453C11.4668 7.36227 11.5288 7.32081 11.5971 7.29253C11.6654 7.26424 11.7386 7.24969 11.8125 7.24969C11.8864 7.24969 11.9596 7.26424 12.0279 7.29253C12.0962 7.32081 12.1582 7.36227 12.2105 7.41453C12.2627 7.46679 12.3042 7.52884 12.3325 7.59712C12.3608 7.6654 12.3753 7.73859 12.3753 7.8125C12.3753 7.88641 12.3608 7.9596 12.3325 8.02788C12.3042 8.09616 12.2627 8.15821 12.2105 8.21047Z" fill="#08AA0E"/>
</g>
<defs>
<clipPath id="clip0_408_817">
<rect width="18" height="18" fill="white" transform="translate(0 0.5)"/>
</clipPath>
</defs>
</svg>
