<svg width="50" height="49" viewBox="0 0 50 49" fill="none" xmlns="http://www.w3.org/2000/svg">
<g clip-path="url(#clip0_286_6006)">
<path d="M9.6875 26.7184V39.8125C9.6875 40.2186 9.84883 40.6081 10.136 40.8952C10.4232 41.1824 10.8126 41.3437 11.2188 41.3437H38.7812C39.1874 41.3437 39.5768 41.1824 39.864 40.8952C40.1512 40.6081 40.3125 40.2186 40.3125 39.8125V26.7184" stroke="#ADADAD" stroke-width="1.53125" stroke-linecap="round" stroke-linejoin="round"/>
<path d="M10.8359 7.65625H39.1641C39.4967 7.65631 39.8203 7.76469 40.0858 7.96498C40.3514 8.16528 40.5445 8.4466 40.636 8.76641L43.375 18.375H6.625L9.36977 8.76641C9.46097 8.44754 9.65323 8.16691 9.91763 7.96671C10.182 7.76651 10.5043 7.65756 10.8359 7.65625Z" stroke="#ADADAD" stroke-width="1.53125" stroke-linecap="round" stroke-linejoin="round"/>
<path d="M18.875 18.375V21.4375C18.875 23.062 18.2297 24.6199 17.081 25.7685C15.9324 26.9172 14.3745 27.5625 12.75 27.5625C11.1255 27.5625 9.56763 26.9172 8.41897 25.7685C7.27031 24.6199 6.625 23.062 6.625 21.4375V18.375" stroke="#ADADAD" stroke-width="1.53125" stroke-linecap="round" stroke-linejoin="round"/>
<path d="M31.125 18.375V21.4375C31.125 23.062 30.4797 24.6199 29.331 25.7685C28.1824 26.9172 26.6245 27.5625 25 27.5625C23.3755 27.5625 21.8176 26.9172 20.669 25.7685C19.5203 24.6199 18.875 23.062 18.875 21.4375V18.375" stroke="#ADADAD" stroke-width="1.53125" stroke-linecap="round" stroke-linejoin="round"/>
<path d="M43.375 18.375V21.4375C43.375 23.062 42.7297 24.6199 41.581 25.7685C40.4324 26.9172 38.8745 27.5625 37.25 27.5625C35.6255 27.5625 34.0676 26.9172 32.919 25.7685C31.7703 24.6199 31.125 23.062 31.125 21.4375V18.375" stroke="#ADADAD" stroke-width="1.53125" stroke-linecap="round" stroke-linejoin="round"/>
</g>
<defs>
<clipPath id="clip0_286_6006">
<rect width="49" height="49" fill="white" transform="translate(0.5)"/>
</clipPath>
</defs>
</svg>
