<svg width="22" height="22" viewBox="0 0 22 22" fill="none" xmlns="http://www.w3.org/2000/svg">
<g clip-path="url(#clip0_408_1763)">
<path d="M11 13.75C12.8985 13.75 14.4375 12.211 14.4375 10.3125C14.4375 8.41402 12.8985 6.875 11 6.875C9.10152 6.875 7.5625 8.41402 7.5625 10.3125C7.5625 12.211 9.10152 13.75 11 13.75Z" stroke="black" stroke-width="1.03125" stroke-linecap="round" stroke-linejoin="round"/>
<path d="M5.48291 17.1334C6.00018 16.1146 6.78947 15.2588 7.7633 14.6611C8.73713 14.0634 9.85745 13.7469 11.0001 13.7469C12.1427 13.7469 13.2631 14.0634 14.2369 14.6611C15.2107 15.2588 16 16.1146 16.5173 17.1334" stroke="black" stroke-width="1.03125" stroke-linecap="round" stroke-linejoin="round"/>
<path d="M15.125 4.8125H19.25" stroke="black" stroke-width="1.03125" stroke-linecap="round" stroke-linejoin="round"/>
<path d="M17.1875 2.75V6.875" stroke="black" stroke-width="1.03125" stroke-linecap="round" stroke-linejoin="round"/>
<path d="M19.1356 9.62503C19.4256 11.3484 19.1605 13.1193 18.3784 14.6821C17.5963 16.2449 16.3378 17.5188 14.7845 18.3197C13.2313 19.1205 11.4637 19.4071 9.73696 19.1379C8.01024 18.8687 6.41376 18.0576 5.17804 16.8219C3.94231 15.5862 3.13129 13.9897 2.86208 12.263C2.59286 10.5363 2.87939 8.76866 3.68029 7.2154C4.48119 5.66215 5.755 4.40362 7.31782 3.62153C8.88063 2.83945 10.6516 2.57429 12.3749 2.86433" stroke="black" stroke-width="1.03125" stroke-linecap="round" stroke-linejoin="round"/>
</g>
<defs>
<clipPath id="clip0_408_1763">
<rect width="22" height="22" fill="white"/>
</clipPath>
</defs>
</svg>
